DemiBold.ufo
<glyph name="exclam" format="1">
  <advance width="260"/>
  <unicode hex="0021"/>
  <outline>
    <contour>
      <point x="89.5" y="65.5" type="curve"/>
      <point x="133.837" y="113.072"/>
      <point x="235.114" y="40.0163"/>
      <point x="172" y="-7" type="curve"/>
      <point x="126.565" y="-56.3497"/>
      <point x="25.2876" y="20.2614"/>
    </contour>
    <contour>
      <point x="166" y="197" type="line" smooth="yes"/>
      <point x="166" y="168.333"/>
      <point x="154" y="154"/>
      <point x="130" y="154" type="curve" smooth="yes"/>
      <point x="106" y="154"/>
      <point x="94" y="168.333"/>
      <point x="94" y="197" type="curve" smooth="yes"/>
      <point x="94" y="616" type="line" smooth="yes"/>
      <point x="94" y="674.039"/>
      <point x="166" y="674.039"/>
      <point x="166" y="616" type="curve" smooth="yes"/>
    </contour>
  </outline>
</glyph>
<glyph name="quotedbl" format="1">
  <advance width="314"/>
  <unicode hex="0022"/>
  <outline>
    <contour>
      <point x="172" y="615" type="line" smooth="yes"/>
      <point x="172" y="673.039"/>
      <point x="244" y="673.039"/>
      <point x="244" y="615" type="curve" smooth="yes"/>
      <point x="244" y="466" type="line" smooth="yes"/>
      <point x="244" y="437.333"/>
      <point x="232" y="423"/>
      <point x="208" y="423" type="curve" smooth="yes"/>
      <point x="184" y="423"/>
      <point x="172" y="437.333"/>
      <point x="172" y="466" type="curve" smooth="yes"/>
    </contour>
    <contour>
      <point x="71" y="615" type="line" smooth="yes"/>
      <point x="71" y="645.667"/>
      <point x="88.3333" y="658"/>
      <point x="107" y="658" type="curve" smooth="yes"/>
      <point x="130.333" y="658"/>
      <point x="142" y="643.667"/>
      <point x="142" y="615" type="curve" smooth="yes"/>
      <point x="142" y="466" type="line" smooth="yes"/>
      <point x="142" y="435.333"/>
      <point x="124.667" y="423"/>
      <point x="106" y="423" type="curve" smooth="yes"/>
      <point x="82.6667" y="423"/>
      <point x="71" y="437.333"/>
      <point x="71" y="466" type="curve" smooth="yes"/>
    </contour>
  </outline>
</glyph>
<glyph name="numbersign" format="1">
  <advance width="622"/>
  <unicode hex="0023"/>
  <outline>
    <contour>
      <point x="306" y="446" type="line"/>
      <point x="409" y="446" type="line"/>
      <point x="468" y="610" type="line"/>
      <point x="476" y="630"/>
      <point x="488.333" y="640"/>
      <point x="505" y="640" type="curve" smooth="yes"/>
      <point x="543.045" y="640"/>
      <point x="542.694" y="602.776"/>
      <point x="538" y="584" type="curve"/>
      <point x="486" y="446" type="line"/>
      <point x="535" y="446" type="line" smooth="yes"/>
      <point x="593.039" y="446"/>
      <point x="593.039" y="374"/>
      <point x="535" y="374" type="curve" smooth="yes"/>
      <point x="460" y="374" type="line"/>
      <point x="419" y="262" type="line"/>
      <point x="504" y="262" type="line" smooth="yes"/>
      <point x="532.667" y="262"/>
      <point x="547" y="250"/>
      <point x="547" y="226" type="curve" smooth="yes"/>
      <point x="547" y="202"/>
      <point x="532.667" y="190"/>
      <point x="504" y="190" type="curve" smooth="yes"/>
      <point x="393" y="190" type="line"/>
      <point x="334" y="26" type="line"/>
      <point x="315.333" y="-14"/>
      <point x="283.167" y="-7.33333"/>
      <point x="270.5" y="6" type="curve" smooth="yes"/>
      <point x="257.833" y="19.3333"/>
      <point x="260" y="36"/>
      <point x="264" y="52" type="curve"/>
      <point x="317" y="190" type="line"/>
      <point x="214" y="190" type="line"/>
      <point x="155" y="26" type="line"/>
      <point x="136.333" y="-14"/>
      <point x="106.333" y="-7.16667"/>
      <point x="93" y="5.5" type="curve" smooth="yes"/>
      <point x="79.6667" y="18.1667"/>
      <point x="82" y="35"/>
      <point x="86" y="51" type="curve"/>
      <point x="138" y="190" type="line"/>
      <point x="86" y="190" type="line" smooth="yes"/>
      <point x="27.9608" y="190"/>
      <point x="27.9608" y="262"/>
      <point x="86" y="262" type="curve" smooth="yes"/>
      <point x="164" y="262" type="line"/>
      <point x="205" y="374" type="line"/>
      <point x="116" y="374" type="line" smooth="yes"/>
      <point x="88" y="374"/>
      <point x="74" y="386.333"/>
      <point x="74" y="411" type="curve" smooth="yes"/>
      <point x="74" y="429.667"/>
      <point x="85.3333" y="446"/>
      <point x="116" y="446" type="curve" smooth="yes"/>
      <point x="231" y="446" type="line"/>
      <point x="290" y="610" type="line" smooth="yes"/>
      <point x="296.667" y="630"/>
      <point x="308.667" y="640"/>
      <point x="326" y="640" type="curve" smooth="yes"/>
      <point x="362.243" y="640"/>
      <point x="365.946" y="601.206"/>
      <point x="359" y="585" type="curve" smooth="yes"/>
    </contour>
    <contour>
      <point x="281" y="374" type="line"/>
      <point x="240" y="262" type="line"/>
      <point x="342" y="262" type="line"/>
      <point x="383" y="374" type="line"/>
    </contour>
  </outline>
</glyph>
<glyph name="dollar" format="1">
  <advance width="628"/>
  <unicode hex="0024"/>
  <outline>
    <contour>
      <point x="171" y="84" type="line" smooth="yes"/>
      <point x="84.3333" y="84"/>
      <point x="61" y="131"/>
      <point x="61" y="203" type="curve" smooth="yes"/>
      <point x="61" y="231.667"/>
      <point x="73" y="246"/>
      <point x="97" y="246" type="curve" smooth="yes"/>
      <point x="121" y="246"/>
      <point x="133" y="232.333"/>
      <point x="133" y="205" type="curve" smooth="yes"/>
      <point x="133" y="163.667"/>
      <point x="143.333" y="156"/>
      <point x="178" y="156" type="curve" smooth="yes"/>
      <point x="284" y="156" type="line"/>
      <point x="284" y="291" type="line"/>
      <point x="201" y="291" type="line" smooth="yes"/>
      <point x="99.6667" y="291"/>
      <point x="61" y="349.333"/>
      <point x="61" y="428" type="curve" smooth="yes"/>
      <point x="61" y="514"/>
      <point x="107.667" y="557"/>
      <point x="201" y="557" type="curve" smooth="yes"/>
      <point x="284" y="557" type="line"/>
      <point x="284" y="602" type="line" smooth="yes"/>
      <point x="284" y="629.333"/>
      <point x="295.333" y="643"/>
      <point x="318" y="643" type="curve" smooth="yes"/>
      <point x="343.333" y="643"/>
      <point x="356" y="629.667"/>
      <point x="356" y="603" type="curve" smooth="yes"/>
      <point x="356" y="557" type="line"/>
      <point x="457" y="557" type="line" smooth="yes"/>
      <point x="500.333" y="557"/>
      <point x="529.5" y="546.5"/>
      <point x="544.5" y="525.5" type="curve" smooth="yes"/>
      <point x="559.5" y="504.5"/>
      <point x="567" y="478"/>
      <point x="567" y="446" type="curve" smooth="yes"/>
      <point x="567" y="414"/>
      <point x="555" y="398"/>
      <point x="531" y="398" type="curve"/>
      <point x="530" y="397" type="line"/>
      <point x="506.667" y="397"/>
      <point x="495" y="411"/>
      <point x="495" y="439" type="curve" smooth="yes"/>
      <point x="495" y="477.667"/>
      <point x="486" y="485"/>
      <point x="450" y="485" type="curve" smooth="yes"/>
      <point x="356" y="485" type="line"/>
      <point x="356" y="363" type="line"/>
      <point x="430" y="363" type="line"/>
      <point x="430.667" y="363"/>
      <point x="431.333" y="363"/>
      <point x="432" y="363" type="curve"/>
      <point x="522" y="363"/>
      <point x="567" y="316.667"/>
      <point x="567" y="224" type="curve" smooth="yes"/>
      <point x="567" y="130.667"/>
      <point x="520.667" y="84"/>
      <point x="428" y="84" type="curve" smooth="yes"/>
      <point x="356" y="84" type="line"/>
      <point x="356" y="34" type="line" smooth="yes"/>
      <point x="356" y="6.66667"/>
      <point x="343" y="-7"/>
      <point x="317" y="-7" type="curve" smooth="yes"/>
      <point x="295" y="-7"/>
      <point x="284" y="6"/>
      <point x="284" y="32" type="curve" smooth="yes"/>
      <point x="284" y="84" type="line"/>
    </contour>
    <contour>
      <point x="446" y="291" type="curve" smooth="yes"/>
      <point x="356" y="291" type="line"/>
      <point x="356" y="156" type="line"/>
      <point x="446" y="156" type="line" smooth="yes"/>
      <point x="482" y="156"/>
      <point x="495" y="173.333"/>
      <point x="495" y="216" type="curve" smooth="yes"/>
      <point x="495" y="258.667"/>
      <point x="474" y="291"/>
    </contour>
    <contour>
      <point x="182" y="363" type="curve" smooth="yes"/>
      <point x="284" y="363" type="line"/>
      <point x="284" y="485" type="line"/>
      <point x="182" y="485" type="line" smooth="yes"/>
      <point x="147.333" y="485"/>
      <point x="133" y="474.667"/>
      <point x="133" y="432" type="curve" smooth="yes"/>
      <point x="133" y="389.333"/>
      <point x="154" y="363"/>
    </contour>
  </outline>
</glyph>
<glyph name="percent" format="1">
  <advance width="597"/>
  <unicode hex="0025"/>
  <outline>
    <contour>
      <point x="445" y="183" type="curve" smooth="yes"/>
      <point x="445" y="196.333"/>
      <point x="438.333" y="203"/>
      <point x="425" y="203" type="curve" smooth="yes"/>
      <point x="407.471" y="203"/>
      <point x="398.745" y="181.255"/>
      <point x="411" y="169" type="curve" smooth="yes"/>
      <point x="423.255" y="156.745"/>
      <point x="445" y="165.471"/>
    </contour>
    <contour>
      <point x="353" y="118" type="curve" smooth="yes"/>
      <point x="311.667" y="154"/>
      <point x="311.667" y="212"/>
      <point x="353" y="248" type="curve" smooth="yes"/>
      <point x="394.333" y="284"/>
      <point x="454" y="284"/>
      <point x="490" y="248" type="curve" smooth="yes"/>
      <point x="526" y="212"/>
      <point x="526" y="154"/>
      <point x="490" y="118" type="curve" smooth="yes"/>
      <point x="454" y="82"/>
      <point x="394.333" y="82"/>
    </contour>
    <contour>
      <point x="171" y="476" type="curve" smooth="yes"/>
      <point x="146.408" y="476"/>
      <point x="147.464" y="441"/>
      <point x="171.5" y="441" type="curve" smooth="yes"/>
      <point x="196.85" y="441"/>
      <point x="197.572" y="476"/>
    </contour>
    <contour>
      <point x="173" y="369" type="curve" smooth="yes"/>
      <point x="119.667" y="369"/>
      <point x="79" y="410.667"/>
      <point x="79" y="460" type="curve" smooth="yes"/>
      <point x="79" y="509.333"/>
      <point x="119.667" y="548"/>
      <point x="173" y="548" type="curve" smooth="yes"/>
      <point x="226.333" y="548"/>
      <point x="274" y="509.333"/>
      <point x="274" y="460" type="curve" smooth="yes"/>
      <point x="274" y="410.667"/>
      <point x="226.333" y="369"/>
    </contour>
    <contour>
      <point x="464" y="514" type="line"/>
      <point x="503.359" y="548.439"/>
      <point x="555.311" y="503.311"/>
      <point x="514" y="462" type="curve"/>
      <point x="133" y="115" type="line" smooth="yes"/>
      <point x="94.9805" y="79.5151"/>
      <point x="39.5634" y="124.563"/>
      <point x="83" y="168" type="curve"/>
    </contour>
  </outline>
</glyph>
<glyph name="ampersand" format="1">
  <advance width="534"/>
  <unicode hex="0026"/>
  <outline>
    <contour>
      <point x="357" y="86" type="curve"/>
      <point x="167" y="305" type="line"/>
      <point x="131" y="279"/>
      <point x="113" y="238"/>
      <point x="113" y="182" type="curve" smooth="yes"/>
      <point x="113" y="74.6667"/>
      <point x="201.6" y="48"/>
      <point x="260" y="48" type="curve" smooth="yes"/>
      <point x="294.667" y="48"/>
      <point x="327" y="60.6667"/>
    </contour>
    <contour>
      <point x="121" y="359" type="curve"/>
      <point x="84.3333" y="398.333"/>
      <point x="66" y="437.333"/>
      <point x="66" y="476" type="curve" smooth="yes"/>
      <point x="66" y="530"/>
      <point x="85.8333" y="574.5"/>
      <point x="125.5" y="609.5" type="curve" smooth="yes"/>
      <point x="165.167" y="644.5"/>
      <point x="208" y="662"/>
      <point x="254" y="662" type="curve" smooth="yes"/>
      <point x="312.667" y="662"/>
      <point x="368.333" y="613.167"/>
      <point x="391" y="572.5" type="curve" smooth="yes"/>
      <point x="413.667" y="531.833"/>
      <point x="411.333" y="517.5"/>
      <point x="398" y="503.5" type="curve" smooth="yes"/>
      <point x="384.667" y="489.5"/>
      <point x="361.333" y="488"/>
      <point x="344" y="508" type="curve" smooth="yes"/>
      <point x="320.177" y="535.488"/>
      <point x="306.958" y="590"/>
      <point x="254" y="590" type="curve" smooth="yes"/>
      <point x="195.333" y="590"/>
      <point x="140" y="545.333"/>
      <point x="140" y="476" type="curve" smooth="yes"/>
      <point x="140" y="454.667"/>
      <point x="152" y="430.333"/>
      <point x="176" y="403" type="curve" smooth="yes"/>
      <point x="402" y="142" type="line"/>
      <point x="416" y="166"/>
      <point x="423" y="193.833"/>
      <point x="423" y="225.5" type="curve" smooth="yes"/>
      <point x="423" y="257.167"/>
      <point x="435.333" y="273"/>
      <point x="460" y="273" type="curve" smooth="yes"/>
      <point x="482.667" y="273"/>
      <point x="494" y="257.667"/>
      <point x="494" y="227" type="curve" smooth="yes"/>
      <point x="494" y="174.333"/>
      <point x="479.667" y="126.667"/>
      <point x="451" y="84" type="curve"/>
      <point x="493" y="38" type="line" smooth="yes"/>
      <point x="522.039" y="5.73445"/>
      <point x="478.619" y="-53.799"/>
      <point x="432" y="-2" type="curve" smooth="yes"/>
      <point x="403" y="31" type="line"/>
      <point x="359.667" y="-5.66667"/>
      <point x="312" y="-24"/>
      <point x="260" y="-24" type="curve" smooth="yes"/>
      <point x="210" y="-24"/>
      <point x="162.667" y="-9"/>
      <point x="118" y="21" type="curve" smooth="yes"/>
      <point x="72.6667" y="51.6667"/>
      <point x="41" y="110"/>
      <point x="41" y="182" type="curve" smooth="yes"/>
      <point x="41" y="257.333"/>
      <point x="67.6667" y="316.333"/>
    </contour>
  </outline>
</glyph>
<glyph name="parenleft" format="1">
  <advance width="271"/>
  <unicode hex="0028"/>
  <outline>
    <contour>
      <point x="223" y="15" type="curve"/>
      <point x="223" y="-57" type="line"/>
      <point x="165" y="-57"/>
      <point x="128.667" y="-48.6667"/>
      <point x="114" y="-32" type="curve" smooth="yes"/>
      <point x="74" y="13.3333"/>
      <point x="73" y="71.6667"/>
      <point x="73" y="133" type="curve" smooth="yes"/>
      <point x="73" y="503" type="line" smooth="yes"/>
      <point x="73" y="566.333"/>
      <point x="79.6667" y="610.667"/>
      <point x="93" y="636" type="curve" smooth="yes"/>
      <point x="100.333" y="649.333"/>
      <point x="107.333" y="660"/>
      <point x="114" y="668" type="curve" smooth="yes"/>
      <point x="122" y="676"/>
      <point x="132.667" y="682"/>
      <point x="146" y="686" type="curve" smooth="yes"/>
      <point x="162.667" y="690.667"/>
      <point x="184.667" y="693"/>
      <point x="212" y="693" type="curve" smooth="yes"/>
      <point x="215.333" y="693"/>
      <point x="219" y="693"/>
      <point x="223" y="693" type="curve"/>
      <point x="223" y="621" type="line"/>
      <point x="148.766" y="621"/>
      <point x="145" y="621.494"/>
      <point x="145" y="503" type="curve" smooth="yes"/>
      <point x="145" y="133" type="line" smooth="yes"/>
      <point x="145" y="77.6667"/>
      <point x="148.667" y="43.3333"/>
      <point x="156" y="30" type="curve" smooth="yes"/>
      <point x="158" y="26"/>
      <point x="162.667" y="22.6667"/>
      <point x="170" y="20" type="curve" smooth="yes"/>
      <point x="177.333" y="16.6667"/>
      <point x="191.333" y="15"/>
      <point x="212" y="15" type="curve" smooth="yes"/>
      <point x="215.333" y="15"/>
      <point x="219" y="15"/>
    </contour>
  </outline>
</glyph>
<glyph name="parenright" format="1">
  <advance width="271"/>
  <unicode hex="0029"/>
  <outline>
    <contour>
      <point x="48" y="15" type="line"/>
      <point x="50" y="15"/>
      <point x="52.3333" y="15"/>
      <point x="55" y="15" type="curve" smooth="yes"/>
      <point x="90.3333" y="15"/>
      <point x="110.333" y="20"/>
      <point x="115" y="30" type="curve" smooth="yes"/>
      <point x="127" y="52.6667"/>
      <point x="126" y="89"/>
      <point x="126" y="133" type="curve" smooth="yes"/>
      <point x="126" y="503" type="line" smooth="yes"/>
      <point x="126" y="621.494"/>
      <point x="122.234" y="621"/>
      <point x="48" y="621" type="curve"/>
      <point x="48" y="693" type="line"/>
      <point x="105.333" y="693"/>
      <point x="141.333" y="684.667"/>
      <point x="156" y="668" type="curve" smooth="yes"/>
      <point x="196" y="622.667"/>
      <point x="198" y="564.333"/>
      <point x="198" y="503" type="curve" smooth="yes"/>
      <point x="198" y="133" type="line" smooth="yes"/>
      <point x="198" y="69.6667"/>
      <point x="191.333" y="25.3333"/>
      <point x="178" y="0" type="curve" smooth="yes"/>
      <point x="163.333" y="-26.6667"/>
      <point x="152.667" y="-42"/>
      <point x="126" y="-50" type="curve" smooth="yes"/>
      <point x="109.333" y="-54.6667"/>
      <point x="87" y="-57"/>
      <point x="59" y="-57" type="curve" smooth="yes"/>
      <point x="55.6667" y="-57"/>
      <point x="52" y="-57"/>
      <point x="48" y="-57" type="curve"/>
    </contour>
  </outline>
</glyph>
<glyph name="asterisk" format="1">
  <advance width="415"/>
  <unicode hex="002A"/>
  <outline>
    <contour>
      <point x="243" y="374" type="line" smooth="yes"/>
      <point x="243" y="315.961"/>
      <point x="171" y="315.961"/>
      <point x="171" y="374" type="curve" smooth="yes"/>
      <point x="171" y="428" type="line"/>
      <point x="127.667" y="406"/>
      <point x="103.333" y="394.667"/>
      <point x="98" y="394" type="curve"/>
      <point x="74.3332" y="394"/>
      <point x="40.3335" y="436.015"/>
      <point x="86" y="463" type="curve" smooth="yes"/>
      <point x="135" y="492" type="line"/>
      <point x="87" y="519" type="line" smooth="yes"/>
      <point x="71.6667" y="527"/>
      <point x="64" y="538.333"/>
      <point x="64" y="553" type="curve" smooth="yes"/>
      <point x="64" y="574.333"/>
      <point x="83.6667" y="588"/>
      <point x="93" y="588" type="curve" smooth="yes"/>
      <point x="102" y="588" type="line" smooth="yes"/>
      <point x="118.02" y="588"/>
      <point x="127.924" y="575.538"/>
      <point x="171" y="554" type="curve"/>
      <point x="171" y="608" type="line" smooth="yes"/>
      <point x="171" y="636.667"/>
      <point x="183" y="651"/>
      <point x="207" y="651" type="curve" smooth="yes"/>
      <point x="231" y="651"/>
      <point x="243" y="636.667"/>
      <point x="243" y="608" type="curve" smooth="yes"/>
      <point x="243" y="554" type="line"/>
      <point x="286.333" y="576"/>
      <point x="310.667" y="587.333"/>
      <point x="316" y="588" type="curve"/>
      <point x="342.416" y="588"/>
      <point x="373.605" y="548.742"/>
      <point x="328" y="519" type="curve"/>
      <point x="280" y="492" type="line"/>
      <point x="328" y="463" type="line" smooth="yes"/>
      <point x="343.333" y="453"/>
      <point x="351" y="441.667"/>
      <point x="351" y="429" type="curve" smooth="yes"/>
      <point x="351" y="417"/>
      <point x="338.667" y="394"/>
      <point x="316" y="394" type="curve" smooth="yes"/>
      <point x="302.291" y="394"/>
      <point x="299.722" y="399.639"/>
      <point x="243" y="428" type="curve"/>
    </contour>
  </outline>
</glyph>
<glyph name="plus" format="1">
  <advance width="531"/>
  <unicode hex="002B"/>
  <outline>
    <contour>
      <point x="229" y="194" type="line"/>
      <point x="75" y="194" type="line" smooth="yes"/>
      <point x="47.6667" y="194"/>
      <point x="34" y="206.333"/>
      <point x="34" y="231" type="curve" smooth="yes"/>
      <point x="34" y="248.333"/>
      <point x="45.6667" y="267"/>
      <point x="75" y="267" type="curve" smooth="yes"/>
      <point x="229" y="267" type="line"/>
      <point x="229" y="440" type="line" smooth="yes"/>
      <point x="229" y="468.667"/>
      <point x="241" y="483"/>
      <point x="265" y="483" type="curve" smooth="yes"/>
      <point x="289" y="483"/>
      <point x="301" y="468.667"/>
      <point x="301" y="440" type="curve" smooth="yes"/>
      <point x="301" y="267" type="line"/>
      <point x="453" y="267" type="line" smooth="yes"/>
      <point x="482.333" y="267"/>
      <point x="497" y="254.333"/>
      <point x="497" y="229" type="curve" smooth="yes"/>
      <point x="497" y="207.667"/>
      <point x="478.333" y="194"/>
      <point x="453" y="194" type="curve" smooth="yes"/>
      <point x="301" y="194" type="line"/>
      <point x="301" y="20" type="line" smooth="yes"/>
      <point x="301" y="-8"/>
      <point x="289" y="-22"/>
      <point x="265" y="-22" type="curve" smooth="yes"/>
      <point x="241" y="-22"/>
      <point x="229" y="-8"/>
      <point x="229" y="20" type="curve" smooth="yes"/>
    </contour>
  </outline>
</glyph>
<glyph name="comma" format="1">
  <advance width="226"/>
  <unicode hex="002C"/>
  <outline>
    <contour>
      <point x="113" y="-65" type="line"/>
      <point x="104.333" y="-85"/>
      <point x="93" y="-95"/>
      <point x="79" y="-95" type="curve" smooth="yes"/>
      <point x="57.6667" y="-95"/>
      <point x="47" y="-83.3333"/>
      <point x="47" y="-60" type="curve"/>
      <point x="50" y="-42" type="line"/>
      <point x="74" y="45" type="line" smooth="yes"/>
      <point x="80" y="65.6667"/>
      <point x="91.6667" y="76"/>
      <point x="109" y="76" type="curve" smooth="yes"/>
      <point x="162.112" y="76"/>
      <point x="164.902" y="41.8043"/>
      <point x="153" y="18" type="curve" smooth="yes"/>
    </contour>
  </outline>
</glyph>
<glyph name="hyphen" format="1">
  <advance width="476"/>
  <unicode hex="002D"/>
  <outline>
    <contour>
      <point x="359" y="267" type="line" smooth="yes"/>
      <point x="388.333" y="267"/>
      <point x="403" y="254.333"/>
      <point x="403" y="229" type="curve" smooth="yes"/>
      <point x="403" y="207.667"/>
      <point x="384.333" y="194"/>
      <point x="359" y="194" type="curve" smooth="yes"/>
      <point x="114" y="194" type="line" smooth="yes"/>
      <point x="86.6667" y="194"/>
      <point x="73" y="206.333"/>
      <point x="73" y="231" type="curve" smooth="yes"/>
      <point x="73" y="248.333"/>
      <point x="84.6667" y="267"/>
      <point x="114" y="267" type="curve" smooth="yes"/>
    </contour>
  </outline>
</glyph>
<glyph name="period" format="1">
  <advance width="250"/>
  <unicode hex="002E"/>
  <outline>
    <contour>
      <point x="186" y="29" type="curve" smooth="yes"/>
      <point x="186" y="-37.3529"/>
      <point x="64" y="-37.3529"/>
      <point x="64" y="29" type="curve" smooth="yes"/>
      <point x="64" y="95.3529"/>
      <point x="186" y="95.3529"/>
    </contour>
  </outline>
</glyph>
<glyph name="slash" format="1">
  <advance width="375"/>
  <unicode hex="002F"/>
  <outline>
    <contour>
      <point x="113" y="6" type="line"/>
      <point x="105" y="-13.3333"/>
      <point x="93" y="-23"/>
      <point x="77" y="-23" type="curve" smooth="yes"/>
      <point x="62.3333" y="-23"/>
      <point x="42" y="-13.3333"/>
      <point x="42" y="8" type="curve" smooth="yes"/>
      <point x="42" y="16" type="line" smooth="yes"/>
      <point x="42" y="22"/>
      <point x="45.3333" y="34.3333"/>
      <point x="52" y="53" type="curve" smooth="yes"/>
      <point x="262" y="631" type="line"/>
      <point x="270.667" y="650.333"/>
      <point x="282.333" y="660"/>
      <point x="297" y="660" type="curve" smooth="yes"/>
      <point x="328.458" y="660"/>
      <point x="342.761" y="637.363"/>
      <point x="325" y="590" type="curve" smooth="yes"/>
    </contour>
  </outline>
</glyph>
<glyph name="zero" format="1">
  <advance width="592"/>
  <unicode hex="0030"/>
  <outline>
    <contour>
      <point x="116" y="491" type="curve" smooth="yes"/>
      <point x="116" y="144" type="line" smooth="yes"/>
      <point x="116" y="108"/>
      <point x="163" y="67"/>
      <point x="227" y="67" type="curve" smooth="yes"/>
      <point x="365" y="67" type="line" smooth="yes"/>
      <point x="429" y="67"/>
      <point x="476" y="108"/>
      <point x="476" y="144" type="curve" smooth="yes"/>
      <point x="476" y="491" type="line" smooth="yes"/>
      <point x="476" y="527"/>
      <point x="429" y="568"/>
      <point x="365" y="568" type="curve" smooth="yes"/>
      <point x="227" y="568" type="line" smooth="yes"/>
      <point x="163" y="568"/>
      <point x="116" y="527"/>
    </contour>
    <contour>
      <point x="548" y="158" type="line" smooth="yes"/>
      <point x="548" y="62"/>
      <point x="467.333" y="-5"/>
      <point x="354" y="-5" type="curve" smooth="yes"/>
      <point x="238" y="-5" type="line" smooth="yes"/>
      <point x="124.667" y="-5"/>
      <point x="44" y="62"/>
      <point x="44" y="158" type="curve" smooth="yes"/>
      <point x="44" y="478" type="line" smooth="yes"/>
      <point x="44" y="574"/>
      <point x="124.667" y="641"/>
      <point x="238" y="641" type="curve" smooth="yes"/>
      <point x="354" y="641" type="line" smooth="yes"/>
      <point x="467.333" y="641"/>
      <point x="548" y="574"/>
      <point x="548" y="478" type="curve" smooth="yes"/>
    </contour>
  </outline>
</glyph>
<glyph name="one" format="1">
  <advance width="592"/>
  <unicode hex="0031"/>
  <outline>
    <contour>
      <point x="269" y="569" type="line"/>
      <point x="261" y="562" type="line" smooth="yes"/>
      <point x="214.304" y="518.051"/>
      <point x="164.01" y="570.009"/>
      <point x="209" y="610" type="curve"/>
      <point x="270" y="670" type="line"/>
      <point x="300.807" y="695.672"/>
      <point x="341" y="685.896"/>
      <point x="341" y="647" type="curve" smooth="yes"/>
      <point x="341" y="33" type="line" smooth="yes"/>
      <point x="341" y="6.33333"/>
      <point x="329" y="-7"/>
      <point x="305" y="-7" type="curve" smooth="yes"/>
      <point x="281" y="-7"/>
      <point x="269" y="6.33333"/>
      <point x="269" y="33" type="curve" smooth="yes"/>
    </contour>
  </outline>
</glyph>
<glyph name="two" format="1">
  <advance width="592"/>
  <unicode hex="0032"/>
  <outline>
    <contour>
      <point x="548" y="456" type="curve" smooth="yes"/>
      <point x="548" y="277.707"/>
      <point x="135.17" y="259.599"/>
      <point x="117" y="67" type="curve"/>
      <point x="503" y="67" type="line" smooth="yes"/>
      <point x="533" y="67"/>
      <point x="548" y="55"/>
      <point x="548" y="31" type="curve" smooth="yes"/>
      <point x="548" y="7"/>
      <point x="533" y="-5"/>
      <point x="503" y="-5" type="curve" smooth="yes"/>
      <point x="45" y="-5" type="line"/>
      <point x="45" y="52" type="line" smooth="yes"/>
      <point x="45" y="303.756"/>
      <point x="476" y="316.506"/>
      <point x="476" y="454" type="curve" smooth="yes"/>
      <point x="476" y="554"/>
      <point x="442" y="569"/>
      <point x="314" y="569" type="curve" smooth="yes"/>
      <point x="161" y="569" type="line" smooth="yes"/>
      <point x="126.333" y="569"/>
      <point x="117" y="559"/>
      <point x="117" y="519" type="curve" smooth="yes"/>
      <point x="117" y="489"/>
      <point x="105" y="474"/>
      <point x="81" y="474" type="curve" smooth="yes"/>
      <point x="57" y="474"/>
      <point x="45" y="489"/>
      <point x="45" y="519" type="curve" smooth="yes"/>
      <point x="45" y="607"/>
      <point x="78" y="641"/>
      <point x="154" y="641" type="curve" smooth="yes"/>
      <point x="314" y="641" type="line" smooth="yes"/>
      <point x="475.333" y="641"/>
      <point x="548" y="601.333"/>
    </contour>
  </outline>
</glyph>
<glyph name="three" format="1">
  <advance width="592"/>
  <unicode hex="0033"/>
  <outline>
    <contour>
      <point x="342" y="569" type="curve" smooth="yes"/>
      <point x="250" y="569" type="line" smooth="yes"/>
      <point x="182" y="569"/>
      <point x="116" y="543.667"/>
      <point x="116" y="517" type="curve" smooth="yes"/>
      <point x="116" y="488.333"/>
      <point x="104" y="474"/>
      <point x="80" y="474" type="curve" smooth="yes"/>
      <point x="56" y="474"/>
      <point x="44" y="490"/>
      <point x="44" y="522" type="curve" smooth="yes"/>
      <point x="44" y="586"/>
      <point x="121.667" y="641"/>
      <point x="243" y="641" type="curve" smooth="yes"/>
      <point x="329" y="641" type="line" smooth="yes"/>
      <point x="489" y="641"/>
      <point x="548" y="587"/>
      <point x="548" y="447" type="curve" smooth="yes"/>
      <point x="548" y="403"/>
      <point x="489.667" y="352.667"/>
      <point x="435" y="326" type="curve"/>
      <point x="488.333" y="298"/>
      <point x="548" y="234.333"/>
      <point x="548" y="189" type="curve" smooth="yes"/>
      <point x="548" y="49"/>
      <point x="489" y="-5"/>
      <point x="329" y="-5" type="curve" smooth="yes"/>
      <point x="243" y="-5" type="line" smooth="yes"/>
      <point x="182.333" y="-5"/>
      <point x="134" y="7"/>
      <point x="98" y="31" type="curve" smooth="yes"/>
      <point x="62" y="54.3333"/>
      <point x="44" y="82"/>
      <point x="44" y="114" type="curve" smooth="yes"/>
      <point x="44" y="146"/>
      <point x="56" y="162"/>
      <point x="80" y="162" type="curve" smooth="yes"/>
      <point x="104" y="162"/>
      <point x="116" y="147.667"/>
      <point x="116" y="119" type="curve" smooth="yes"/>
      <point x="116" y="92.3333"/>
      <point x="180.667" y="67"/>
      <point x="250" y="67" type="curve" smooth="yes"/>
      <point x="342" y="67" type="line" smooth="yes"/>
      <point x="446" y="67"/>
      <point x="477" y="104"/>
      <point x="477" y="168" type="curve" smooth="yes"/>
      <point x="477" y="200"/>
      <point x="455.833" y="228.167"/>
      <point x="413.5" y="252.5" type="curve" smooth="yes"/>
      <point x="371.167" y="276.833"/>
      <point x="331.333" y="289"/>
      <point x="294" y="289" type="curve"/>
      <point x="256.667" y="289.667"/>
      <point x="238" y="302"/>
      <point x="238" y="326" type="curve" smooth="yes"/>
      <point x="238" y="350"/>
      <point x="257.667" y="362"/>
      <point x="297" y="362" type="curve" smooth="yes"/>
      <point x="336.333" y="362"/>
      <point x="376.167" y="372"/>
      <point x="416.5" y="392" type="curve" smooth="yes"/>
      <point x="456.833" y="412"/>
      <point x="477" y="438"/>
      <point x="477" y="470" type="curve" smooth="yes"/>
      <point x="477" y="534"/>
      <point x="446" y="569"/>
    </contour>
  </outline>
</glyph>
<glyph name="four" format="1">
  <advance width="592"/>
  <unicode hex="0034"/>
  <outline>
    <contour>
      <point x="508" y="160" type="curve" smooth="yes"/>
      <point x="462" y="160" type="line"/>
      <point x="462" y="32" type="line" smooth="yes"/>
      <point x="462" y="6"/>
      <point x="450" y="-7"/>
      <point x="426" y="-7" type="curve" smooth="yes"/>
      <point x="403.333" y="-7"/>
      <point x="386" y="6.66667"/>
      <point x="386" y="32" type="curve" smooth="yes"/>
      <point x="386" y="160" type="line"/>
      <point x="42" y="160" type="line"/>
      <point x="42" y="235" type="line"/>
      <point x="378" y="641" type="line"/>
      <point x="462" y="641" type="line"/>
      <point x="462" y="232" type="line"/>
      <point x="508" y="232" type="line" smooth="yes"/>
      <point x="536" y="232"/>
      <point x="550" y="220"/>
      <point x="550" y="196" type="curve" smooth="yes"/>
      <point x="550" y="172"/>
      <point x="536" y="160"/>
    </contour>
    <contour>
      <point x="386" y="232" type="line"/>
      <point x="386" y="550" type="line"/>
      <point x="124" y="232" type="line"/>
    </contour>
  </outline>
</glyph>
<glyph name="five" format="1">
  <advance width="592"/>
  <unicode hex="0035"/>
  <outline>
    <contour>
      <point x="291" y="63" type="curve" smooth="yes"/>
      <point x="411" y="63"/>
      <point x="471" y="126.167"/>
      <point x="471" y="229.5" type="curve" smooth="yes"/>
      <point x="471" y="332.833"/>
      <point x="392.333" y="377"/>
      <point x="319" y="377" type="curve" smooth="yes"/>
      <point x="55" y="377" type="line"/>
      <point x="64" y="508" type="line" smooth="yes"/>
      <point x="70.6667" y="606.667"/>
      <point x="106" y="641"/>
      <point x="190" y="641" type="curve" smooth="yes"/>
      <point x="459" y="641" type="line" smooth="yes"/>
      <point x="487" y="641"/>
      <point x="501" y="628.667"/>
      <point x="501" y="604" type="curve" smooth="yes"/>
      <point x="501" y="585.333"/>
      <point x="489.667" y="569"/>
      <point x="459" y="569" type="curve" smooth="yes"/>
      <point x="182" y="569" type="line" smooth="yes"/>
      <point x="154" y="569"/>
      <point x="142" y="559"/>
      <point x="138" y="523" type="curve"/>
      <point x="132" y="449" type="line"/>
      <point x="310" y="449" type="line" smooth="yes"/>
      <point x="434" y="449"/>
      <point x="543" y="367.333"/>
      <point x="543" y="226" type="curve" smooth="yes"/>
      <point x="543" y="84.6667"/>
      <point x="441.667" y="-9"/>
      <point x="291" y="-9" type="curve" smooth="yes"/>
      <point x="243" y="-9"/>
      <point x="190.667" y="3.33333"/>
      <point x="134" y="28" type="curve" smooth="yes"/>
      <point x="77.3333" y="52.6667"/>
      <point x="49" y="78.3333"/>
      <point x="49" y="105" type="curve" smooth="yes"/>
      <point x="49" y="125"/>
      <point x="67.6667" y="141"/>
      <point x="81" y="141" type="curve" smooth="yes"/>
      <point x="97" y="141"/>
      <point x="185" y="63"/>
    </contour>
  </outline>
</glyph>
<glyph name="six" format="1">
  <advance width="592"/>
  <unicode hex="0036"/>
  <outline>
    <contour>
      <point x="304" y="644" type="curve" smooth="yes"/>
      <point x="332.667" y="644"/>
      <point x="347" y="633"/>
      <point x="347" y="611" type="curve" smooth="yes"/>
      <point x="347" y="597"/>
      <point x="337" y="585"/>
      <point x="317" y="575" type="curve"/>
      <point x="250.333" y="545.667"/>
      <point x="185" y="486.333"/>
      <point x="149" y="401" type="curve"/>
      <point x="190.333" y="425.667"/>
      <point x="239.333" y="438"/>
      <point x="296" y="438" type="curve" smooth="yes"/>
      <point x="445.333" y="438"/>
      <point x="548" y="345.833"/>
      <point x="548" y="214.5" type="curve" smooth="yes"/>
      <point x="548" y="148.833"/>
      <point x="524.667" y="95.1667"/>
      <point x="478" y="53.5" type="curve" smooth="yes"/>
      <point x="431.333" y="11.8333"/>
      <point x="370.667" y="-9"/>
      <point x="296" y="-9" type="curve" smooth="yes"/>
      <point x="221.333" y="-9"/>
      <point x="160.667" y="11.6667"/>
      <point x="114" y="53" type="curve" smooth="yes"/>
      <point x="67.3333" y="94.3333"/>
      <point x="44" y="145.5"/>
      <point x="44" y="206.5" type="curve" smooth="yes"/>
      <point x="44" y="328.5"/>
      <point x="78" y="431"/>
      <point x="122" y="495" type="curve" smooth="yes"/>
      <point x="190.849" y="595.143"/>
      <point x="273.838" y="644"/>
    </contour>
    <contour>
      <point x="162.5" y="325" type="curve" smooth="yes"/>
      <point x="131.5" y="297.667"/>
      <point x="116" y="260.667"/>
      <point x="116" y="214" type="curve" smooth="yes"/>
      <point x="116" y="167.333"/>
      <point x="131.667" y="130.5"/>
      <point x="163" y="103.5" type="curve" smooth="yes"/>
      <point x="194.333" y="76.5"/>
      <point x="238.667" y="63"/>
      <point x="296" y="63" type="curve" smooth="yes"/>
      <point x="353.333" y="63"/>
      <point x="397.667" y="76.5"/>
      <point x="429" y="103.5" type="curve" smooth="yes"/>
      <point x="460.333" y="130.5"/>
      <point x="476" y="167.333"/>
      <point x="476" y="214" type="curve" smooth="yes"/>
      <point x="476" y="260.667"/>
      <point x="460.5" y="297.667"/>
      <point x="429.5" y="325" type="curve" smooth="yes"/>
      <point x="398.5" y="352.333"/>
      <point x="354" y="366"/>
      <point x="296" y="366" type="curve" smooth="yes"/>
      <point x="238" y="366"/>
      <point x="193.5" y="352.333"/>
    </contour>
  </outline>
</glyph>
<glyph name="seven" format="1">
  <advance width="592"/>
  <unicode hex="0037"/>
  <outline>
    <contour>
      <point x="268" y="-10" type="curve" smooth="yes"/>
      <point x="230.335" y="-10"/>
      <point x="216.456" y="18.1331"/>
      <point x="232" y="47" type="curve"/>
      <point x="453" y="574" type="line"/>
      <point x="171" y="574" type="line" smooth="yes"/>
      <point x="135" y="574"/>
      <point x="125" y="562.667"/>
      <point x="125" y="524" type="curve" smooth="yes"/>
      <point x="125" y="494"/>
      <point x="113" y="479"/>
      <point x="89" y="479" type="curve" smooth="yes"/>
      <point x="65" y="479"/>
      <point x="53" y="494"/>
      <point x="53" y="524" type="curve" smooth="yes"/>
      <point x="53" y="610.667"/>
      <point x="87" y="646"/>
      <point x="163" y="646" type="curve" smooth="yes"/>
      <point x="503" y="646" type="line" smooth="yes"/>
      <point x="527" y="646"/>
      <point x="539" y="635"/>
      <point x="539" y="613" type="curve" smooth="yes"/>
      <point x="539" y="604.333"/>
      <point x="537.667" y="596.667"/>
      <point x="535" y="590" type="curve" smooth="yes"/>
      <point x="307" y="22" type="line" smooth="yes"/>
      <point x="298.333" y="0.666667"/>
      <point x="285.333" y="-10"/>
    </contour>
  </outline>
</glyph>
<glyph name="eight" format="1">
  <advance width="592"/>
  <unicode hex="0038"/>
  <outline>
    <contour>
      <point x="279" y="67" type="curve" smooth="yes"/>
      <point x="314" y="67" type="line" smooth="yes"/>
      <point x="443.333" y="67"/>
      <point x="476" y="81.5"/>
      <point x="476" y="179.5" type="curve" smooth="yes"/>
      <point x="476" y="277.5"/>
      <point x="443.333" y="292"/>
      <point x="314" y="292" type="curve" smooth="yes"/>
      <point x="279" y="292" type="line" smooth="yes"/>
      <point x="149.667" y="292"/>
      <point x="116" y="277.5"/>
      <point x="116" y="179.5" type="curve" smooth="yes"/>
      <point x="116" y="81.5"/>
      <point x="148.333" y="67"/>
    </contour>
    <contour>
      <point x="486" y="28" type="curve" smooth="yes"/>
      <point x="443.333" y="1.33333"/>
      <point x="394" y="-5"/>
      <point x="314" y="-5" type="curve" smooth="yes"/>
      <point x="279" y="-5" type="line" smooth="yes"/>
      <point x="197.667" y="-5"/>
      <point x="138.167" y="7.33333"/>
      <point x="100.5" y="32" type="curve" smooth="yes"/>
      <point x="62.8333" y="56.6667"/>
      <point x="44" y="104.333"/>
      <point x="44" y="175" type="curve" smooth="yes"/>
      <point x="44" y="245.667"/>
      <point x="62.6667" y="296"/>
      <point x="100" y="326" type="curve"/>
      <point x="62.6667" y="352.667"/>
      <point x="44" y="400"/>
      <point x="44" y="468" type="curve" smooth="yes"/>
      <point x="44" y="525.333"/>
      <point x="58" y="568.667"/>
      <point x="86" y="598" type="curve" smooth="yes"/>
      <point x="107.333" y="619.333"/>
      <point x="145.667" y="632.667"/>
      <point x="201" y="638" type="curve" smooth="yes"/>
      <point x="221" y="639.333"/>
      <point x="247" y="640.333"/>
      <point x="279" y="641" type="curve"/>
      <point x="314" y="641" type="line"/>
      <point x="414.667" y="640.333"/>
      <point x="478.667" y="626"/>
      <point x="506" y="598" type="curve" smooth="yes"/>
      <point x="534" y="569.333"/>
      <point x="548" y="523.167"/>
      <point x="548" y="459.5" type="curve" smooth="yes"/>
      <point x="548" y="395.833"/>
      <point x="529.667" y="351.333"/>
      <point x="493" y="326" type="curve"/>
      <point x="529.667" y="295.333"/>
      <point x="548" y="244.333"/>
      <point x="548" y="173" type="curve" smooth="yes"/>
      <point x="548" y="101.667"/>
      <point x="527.333" y="53.3333"/>
    </contour>
    <contour>
      <point x="411" y="565" type="curve" smooth="yes"/>
      <point x="390.333" y="567.667"/>
      <point x="358" y="569"/>
      <point x="314" y="569" type="curve" smooth="yes"/>
      <point x="277" y="569" type="line" smooth="yes"/>
      <point x="211.667" y="569"/>
      <point x="174.833" y="567"/>
      <point x="166.5" y="563" type="curve" smooth="yes"/>
      <point x="158.167" y="559"/>
      <point x="150" y="554.667"/>
      <point x="142" y="550" type="curve" smooth="yes"/>
      <point x="121.44" y="538.007"/>
      <point x="116" y="507.745"/>
      <point x="116" y="466" type="curve" smooth="yes"/>
      <point x="116" y="394.758"/>
      <point x="135.267" y="372.498"/>
      <point x="193" y="367" type="curve" smooth="yes"/>
      <point x="214.333" y="365"/>
      <point x="243" y="364"/>
      <point x="279" y="364" type="curve" smooth="yes"/>
      <point x="314" y="364" type="line" smooth="yes"/>
      <point x="380.667" y="364"/>
      <point x="418.333" y="366.167"/>
      <point x="427" y="370.5" type="curve" smooth="yes"/>
      <point x="435.667" y="374.833"/>
      <point x="443.667" y="379.167"/>
      <point x="451" y="383.5" type="curve" smooth="yes"/>
      <point x="465.667" y="392.167"/>
      <point x="469" y="407.833"/>
      <point x="473" y="428.5" type="curve" smooth="yes"/>
      <point x="477" y="449.167"/>
      <point x="476.833" y="486.333"/>
      <point x="473.5" y="509" type="curve" smooth="yes"/>
      <point x="468.331" y="544.151"/>
      <point x="447.405" y="560.252"/>
    </contour>
  </outline>
</glyph>
<glyph name="nine" format="1">
  <advance width="592"/>
  <unicode hex="0039"/>
  <outline>
    <contour>
      <point x="44" y="466" type="curve" smooth="yes"/>
      <point x="44" y="518"/>
      <point x="61.3333" y="557.333"/>
      <point x="96" y="584" type="curve" smooth="yes"/>
      <point x="129.333" y="609.333"/>
      <point x="166.667" y="625.333"/>
      <point x="208" y="632" type="curve" smooth="yes"/>
      <point x="242.667" y="638"/>
      <point x="275" y="641"/>
      <point x="305" y="641" type="curve" smooth="yes"/>
      <point x="308.333" y="641"/>
      <point x="311.333" y="641"/>
      <point x="314" y="641" type="curve" smooth="yes"/>
      <point x="470" y="641"/>
      <point x="548" y="582.667"/>
      <point x="548" y="466" type="curve" smooth="yes"/>
      <point x="548" y="177.359"/>
      <point x="357.437" y="-16"/>
      <point x="160" y="-16" type="curve" smooth="yes"/>
      <point x="132.667" y="-16"/>
      <point x="119" y="-3.66667"/>
      <point x="119" y="21" type="curve"/>
      <point x="115.833" y="59"/>
      <point x="148.667" y="49"/>
      <point x="235.5" y="72" type="curve"/>
      <point x="316.633" y="101.325"/>
      <point x="419.038" y="175.805"/>
      <point x="457" y="315" type="curve"/>
      <point x="423" y="299.667"/>
      <point x="375.333" y="292"/>
      <point x="314" y="292" type="curve" smooth="yes"/>
      <point x="134" y="292"/>
      <point x="44" y="350"/>
    </contour>
    <contour>
      <point x="314" y="569" type="curve" smooth="yes"/>
      <point x="182" y="569"/>
      <point x="116" y="534.667"/>
      <point x="116" y="466" type="curve" smooth="yes"/>
      <point x="116" y="404.667"/>
      <point x="162.667" y="371.333"/>
      <point x="256" y="366" type="curve" smooth="yes"/>
      <point x="272" y="364.667"/>
      <point x="291.333" y="364"/>
      <point x="314" y="364" type="curve" smooth="yes"/>
      <point x="435.333" y="364"/>
      <point x="476" y="399.333"/>
      <point x="476" y="466" type="curve" smooth="yes"/>
      <point x="476" y="532.667"/>
      <point x="432.667" y="569"/>
    </contour>
  </outline>
</glyph>
<glyph name="colon" format="1">
  <advance width="268"/>
  <unicode hex="003A"/>
  <outline>
    <contour>
      <point x="195" y="80" type="curve" smooth="yes"/>
      <point x="195" y="13.6471"/>
      <point x="73" y="13.6471"/>
      <point x="73" y="80" type="curve" smooth="yes"/>
      <point x="73" y="146.353"/>
      <point x="195" y="146.353"/>
    </contour>
    <contour>
      <point x="195" y="433" type="curve" smooth="yes"/>
      <point x="195" y="366.647"/>
      <point x="73" y="366.647"/>
      <point x="73" y="433" type="curve" smooth="yes"/>
      <point x="73" y="499.353"/>
      <point x="195" y="499.353"/>
    </contour>
  </outline>
</glyph>
<glyph name="less" format="1">
  <advance width="548"/>
  <unicode hex="003C"/>
  <outline>
    <contour>
      <point x="55" y="298" type="line"/>
      <point x="25.6667" y="316.667"/>
      <point x="25.6667" y="348.667"/>
      <point x="55" y="366" type="curve" smooth="yes"/>
      <point x="420" y="576" type="line"/>
      <point x="436" y="586.667"/>
      <point x="456.667" y="587"/>
      <point x="470" y="575" type="curve" smooth="yes"/>
      <point x="492.997" y="554.303"/>
      <point x="471.445" y="523.223"/>
      <point x="455" y="515" type="curve"/>
      <point x="140" y="333" type="line"/>
      <point x="455" y="149" type="line" smooth="yes"/>
      <point x="471.667" y="139"/>
      <point x="480" y="128"/>
      <point x="480" y="116" type="curve" smooth="yes"/>
      <point x="480" y="79.7845"/>
      <point x="442.565" y="71.6861"/>
      <point x="419" y="88" type="curve"/>
    </contour>
  </outline>
</glyph>
<glyph name="equal" format="1">
  <advance width="488"/>
  <unicode hex="003D"/>
  <outline>
    <contour>
      <point x="365" y="420" type="line" smooth="yes"/>
      <point x="394.333" y="420"/>
      <point x="409" y="407.333"/>
      <point x="409" y="382" type="curve" smooth="yes"/>
      <point x="409" y="360.667"/>
      <point x="390.333" y="347"/>
      <point x="365" y="347" type="curve" smooth="yes"/>
      <point x="120" y="347" type="line" smooth="yes"/>
      <point x="92.6667" y="347"/>
      <point x="79" y="359.333"/>
      <point x="79" y="384" type="curve" smooth="yes"/>
      <point x="79" y="401.333"/>
      <point x="90.6667" y="420"/>
      <point x="120" y="420" type="curve" smooth="yes"/>
    </contour>
    <contour>
      <point x="365" y="317" type="line" smooth="yes"/>
      <point x="394.333" y="317"/>
      <point x="409" y="304.333"/>
      <point x="409" y="279" type="curve" smooth="yes"/>
      <point x="409" y="257.667"/>
      <point x="390.333" y="244"/>
      <point x="365" y="244" type="curve" smooth="yes"/>
      <point x="120" y="244" type="line" smooth="yes"/>
      <point x="92.6667" y="244"/>
      <point x="79" y="256.333"/>
      <point x="79" y="281" type="curve" smooth="yes"/>
      <point x="79" y="298.333"/>
      <point x="90.6667" y="317"/>
      <point x="120" y="317" type="curve" smooth="yes"/>
    </contour>
  </outline>
</glyph>
<glyph name="greater" format="1">
  <advance width="548"/>
  <unicode hex="003E"/>
  <outline>
    <contour>
      <point x="493" y="298" type="curve"/>
      <point x="129" y="88" type="line"/>
      <point x="111.667" y="76"/>
      <point x="92.6667" y="76.3333"/>
      <point x="82" y="87" type="curve" smooth="yes"/>
      <point x="63.3333" y="104.333"/>
      <point x="59.6667" y="129"/>
      <point x="93" y="149" type="curve" smooth="yes"/>
      <point x="408" y="333" type="line"/>
      <point x="93" y="515" type="line"/>
      <point x="82.3333" y="520.333"/>
      <point x="68" y="534.5"/>
      <point x="68" y="552.5" type="curve" smooth="yes"/>
      <point x="68" y="581.825"/>
      <point x="103.828" y="592.115"/>
      <point x="128" y="576" type="curve"/>
      <point x="493" y="366" type="line" smooth="yes"/>
      <point x="522.333" y="348.667"/>
      <point x="522.333" y="316.667"/>
    </contour>
  </outline>
</glyph>
<glyph name="question" format="1">
  <advance width="553"/>
  <unicode hex="003F"/>
  <outline>
    <contour>
      <point x="321" y="29" type="curve" smooth="yes"/>
      <point x="321" y="-37.3529"/>
      <point x="199" y="-37.3529"/>
      <point x="199" y="29" type="curve" smooth="yes"/>
      <point x="199" y="95.3529"/>
      <point x="321" y="95.3529"/>
    </contour>
    <contour>
      <point x="224" y="194" type="curve" smooth="yes"/>
      <point x="224" y="346" type="line"/>
      <point x="389" y="391" type="line" smooth="yes"/>
      <point x="418.333" y="399"/>
      <point x="441" y="435.667"/>
      <point x="441" y="485" type="curve" smooth="yes"/>
      <point x="441" y="534.333"/>
      <point x="416.667" y="587"/>
      <point x="354" y="587" type="curve" smooth="yes"/>
      <point x="261" y="587" type="line" smooth="yes"/>
      <point x="141" y="587"/>
      <point x="110" y="572.333"/>
      <point x="110" y="471" type="curve" smooth="yes"/>
      <point x="110" y="412.961"/>
      <point x="37" y="412.961"/>
      <point x="37" y="471" type="curve" smooth="yes"/>
      <point x="37" y="620.333"/>
      <point x="109" y="659"/>
      <point x="261" y="659" type="curve" smooth="yes"/>
      <point x="337" y="659" type="line" smooth="yes"/>
      <point x="401" y="659"/>
      <point x="450.667" y="636.667"/>
      <point x="476" y="602" type="curve" smooth="yes"/>
      <point x="500.667" y="568"/>
      <point x="513" y="528.167"/>
      <point x="513" y="482.5" type="curve" smooth="yes"/>
      <point x="513" y="391.167"/>
      <point x="476.667" y="342"/>
      <point x="378" y="314" type="curve" smooth="yes"/>
      <point x="296" y="291" type="line"/>
      <point x="296" y="194" type="line" smooth="yes"/>
      <point x="296" y="135.961"/>
      <point x="224" y="135.961"/>
    </contour>
  </outline>
</glyph>
<glyph name="at" format="1">
  <advance width="612"/>
  <unicode hex="0040"/>
  <outline>
    <contour>
      <point x="69" y="395" type="line" smooth="yes"/>
      <point x="69" y="553.667"/>
      <point x="156" y="651"/>
      <point x="292" y="651" type="curve" smooth="yes"/>
      <point x="321" y="651" type="line" smooth="yes"/>
      <point x="457" y="651"/>
      <point x="544" y="553.667"/>
      <point x="544" y="395" type="curve"/>
      <point x="544.833" y="314.75"/>
      <point x="538.167" y="259.25"/>
      <point x="488" y="215" type="curve"/>
      <point x="450.667" y="188.333"/>
      <point x="391.333" y="175"/>
      <point x="310" y="175" type="curve" smooth="yes"/>
      <point x="258" y="175"/>
      <point x="222.333" y="187.333"/>
      <point x="203" y="212" type="curve" smooth="yes"/>
      <point x="183.667" y="236.667"/>
      <point x="174" y="276.5"/>
      <point x="174" y="331.5" type="curve" smooth="yes"/>
      <point x="174" y="386.5"/>
      <point x="183.667" y="426.333"/>
      <point x="203" y="451" type="curve" smooth="yes"/>
      <point x="222.333" y="475.667"/>
      <point x="258.167" y="488"/>
      <point x="310.5" y="488" type="curve" smooth="yes"/>
      <point x="415.167" y="488"/>
      <point x="447" y="441.333"/>
      <point x="447" y="332" type="curve" smooth="yes"/>
      <point x="447" y="303.333"/>
      <point x="445" y="281.667"/>
      <point x="441" y="267" type="curve"/>
      <point x="465" y="279"/>
      <point x="472" y="304.667"/>
      <point x="472" y="406" type="curve" smooth="yes"/>
      <point x="472" y="507.333"/>
      <point x="421" y="579"/>
      <point x="321" y="579" type="curve" smooth="yes"/>
      <point x="292" y="579" type="line" smooth="yes"/>
      <point x="190.667" y="579"/>
      <point x="141" y="512.333"/>
      <point x="141" y="395" type="curve" smooth="yes"/>
      <point x="141" y="241" type="line" smooth="yes"/>
      <point x="141" y="123.667"/>
      <point x="190.667" y="57"/>
      <point x="292" y="57" type="curve" smooth="yes"/>
      <point x="426" y="57" type="line" smooth="yes"/>
      <point x="462" y="57"/>
      <point x="472" y="69"/>
      <point x="472" y="109" type="curve" smooth="yes"/>
      <point x="472" y="137.667"/>
      <point x="484" y="152"/>
      <point x="508" y="152" type="curve" smooth="yes"/>
      <point x="532" y="152"/>
      <point x="544" y="135.333"/>
      <point x="544" y="102" type="curve" smooth="yes"/>
      <point x="544" y="35.3333"/>
      <point x="519.667" y="-15"/>
      <point x="433" y="-15" type="curve" smooth="yes"/>
      <point x="292" y="-15" type="line" smooth="yes"/>
      <point x="156" y="-15"/>
      <point x="69" y="82.3333"/>
      <point x="69" y="241" type="curve" smooth="yes"/>
    </contour>
    <contour>
      <point x="246" y="332" type="curve" smooth="yes"/>
      <point x="246" y="260"/>
      <point x="253.833" y="247"/>
      <point x="310.5" y="247" type="curve" smooth="yes"/>
      <point x="367.167" y="247"/>
      <point x="375" y="260.167"/>
      <point x="375" y="331.5" type="curve" smooth="yes"/>
      <point x="375" y="402.833"/>
      <point x="367.167" y="416"/>
      <point x="310.5" y="416" type="curve" smooth="yes"/>
      <point x="253.833" y="416"/>
      <point x="246" y="404"/>
    </contour>
  </outline>
</glyph>
<glyph name="A" format="1">
  <advance width="610"/>
  <unicode hex="0041"/>
  <outline>
    <contour>
      <point x="346" y="636" type="line"/>
      <point x="583" y="37" type="line"/>
      <point x="590.469" y="14.5929"/>
      <point x="581.325" y="-16"/>
      <point x="550" y="-16" type="curve" smooth="yes"/>
      <point x="532.667" y="-16"/>
      <point x="520.333" y="-6.66667"/>
      <point x="513" y="12" type="curve" smooth="yes"/>
      <point x="444" y="189" type="line"/>
      <point x="166" y="189" type="line"/>
      <point x="97" y="12" type="line" smooth="yes"/>
      <point x="89" y="-6.66667"/>
      <point x="76.6667" y="-16"/>
      <point x="60" y="-16" type="curve" smooth="yes"/>
      <point x="28.6752" y="-16"/>
      <point x="19.531" y="14.5929"/>
      <point x="27" y="37" type="curve"/>
      <point x="264" y="636" type="line"/>
    </contour>
    <contour>
      <point x="195" y="261" type="line"/>
      <point x="415" y="261" type="line"/>
      <point x="304" y="532" type="line"/>
    </contour>
  </outline>
</glyph>
<glyph name="B" format="1">
  <advance width="644"/>
  <unicode hex="0042"/>
  <outline>
    <contour>
      <point x="354" y="312" type="curve" smooth="yes"/>
      <point x="156" y="312" type="line"/>
      <point x="156" y="72" type="line"/>
      <point x="336" y="72" type="line" smooth="yes"/>
      <point x="482.667" y="72"/>
      <point x="516" y="86.6667"/>
      <point x="516" y="184" type="curve" smooth="yes"/>
      <point x="516" y="200" type="line" smooth="yes"/>
      <point x="516" y="297.333"/>
      <point x="483.333" y="312"/>
    </contour>
    <contour>
      <point x="84" y="44" type="curve" smooth="yes"/>
      <point x="84" y="592" type="line" smooth="yes"/>
      <point x="84" y="621.333"/>
      <point x="95.3333" y="636"/>
      <point x="118" y="636" type="curve" smooth="yes"/>
      <point x="306" y="636" type="line" smooth="yes"/>
      <point x="468.667" y="636"/>
      <point x="546" y="597.667"/>
      <point x="546" y="475" type="curve" smooth="yes"/>
      <point x="546" y="427"/>
      <point x="532.667" y="390.667"/>
      <point x="506" y="366" type="curve"/>
      <point x="560.667" y="338.667"/>
      <point x="588" y="284.333"/>
      <point x="588" y="203" type="curve" smooth="yes"/>
      <point x="588" y="184" type="line" smooth="yes"/>
      <point x="588" y="38.6667"/>
      <point x="514.667" y="8.58307e-06"/>
      <point x="336" y="8.58307e-06" type="curve" smooth="yes"/>
      <point x="118" y="8.58307e-06" type="line" smooth="yes"/>
      <point x="95.3333" y="8.58307e-06"/>
      <point x="84" y="14.6667"/>
    </contour>
    <contour>
      <point x="306" y="384" type="line" smooth="yes"/>
      <point x="435.333" y="384"/>
      <point x="474" y="400"/>
      <point x="474" y="472" type="curve" smooth="yes"/>
      <point x="474" y="544"/>
      <point x="435.333" y="559"/>
      <point x="306" y="559" type="curve" smooth="yes"/>
      <point x="156" y="559" type="line"/>
      <point x="156" y="384" type="line"/>
    </contour>
  </outline>
</glyph>
<glyph name="C" format="1">
  <advance width="631"/>
  <unicode hex="0043"/>
  <outline>
    <contour>
      <point x="465" y="0" type="curve" smooth="yes"/>
      <point x="324" y="0" type="line" smooth="yes"/>
      <point x="144" y="0"/>
      <point x="71" y="38.6667"/>
      <point x="71" y="184" type="curve" smooth="yes"/>
      <point x="71" y="452" type="line" smooth="yes"/>
      <point x="71" y="597.333"/>
      <point x="144.667" y="636"/>
      <point x="306" y="636" type="curve" smooth="yes"/>
      <point x="465" y="636" type="line" smooth="yes"/>
      <point x="508.333" y="636"/>
      <point x="537.5" y="624.833"/>
      <point x="552.5" y="602.5" type="curve" smooth="yes"/>
      <point x="567.5" y="580.167"/>
      <point x="575" y="552.333"/>
      <point x="575" y="519" type="curve" smooth="yes"/>
      <point x="575" y="485.667"/>
      <point x="563" y="469"/>
      <point x="539" y="469" type="curve" smooth="yes"/>
      <point x="529.667" y="469"/>
      <point x="521.333" y="472.333"/>
      <point x="514" y="479" type="curve"/>
      <point x="492.333" y="507.333"/>
      <point x="517.167" y="574.667"/>
      <point x="458" y="564" type="curve"/>
      <point x="306" y="564" type="line" smooth="yes"/>
      <point x="176.667" y="564"/>
      <point x="143" y="548.667"/>
      <point x="143" y="450" type="curve" smooth="yes"/>
      <point x="143" y="186" type="line" smooth="yes"/>
      <point x="143" y="86"/>
      <point x="176" y="72"/>
      <point x="324" y="72" type="curve" smooth="yes"/>
      <point x="458" y="72" type="line" smooth="yes"/>
      <point x="494" y="72"/>
      <point x="503" y="85.3333"/>
      <point x="503" y="120" type="curve" smooth="yes"/>
      <point x="503" y="154.667"/>
      <point x="520.333" y="167"/>
      <point x="539" y="167" type="curve"/>
      <point x="563" y="166.333"/>
      <point x="575" y="149.333"/>
      <point x="575" y="116" type="curve" smooth="yes"/>
      <point x="575" y="49.3333"/>
      <point x="551.667" y="0"/>
    </contour>
  </outline>
</glyph>
<glyph name="D" format="1">
  <advance width="659"/>
  <unicode hex="0044"/>
  <outline>
    <contour>
      <point x="588" y="452" type="curve" smooth="yes"/>
      <point x="588" y="184" type="line" smooth="yes"/>
      <point x="588" y="38.6667"/>
      <point x="514.667" y="0"/>
      <point x="336" y="0" type="curve" smooth="yes"/>
      <point x="118" y="0" type="line" smooth="yes"/>
      <point x="95.3333" y="0"/>
      <point x="84" y="14.6667"/>
      <point x="84" y="44" type="curve" smooth="yes"/>
      <point x="84" y="592" type="line" smooth="yes"/>
      <point x="84" y="621.333"/>
      <point x="95.3333" y="636"/>
      <point x="118" y="636" type="curve" smooth="yes"/>
      <point x="354" y="636" type="line" smooth="yes"/>
      <point x="515.333" y="636"/>
      <point x="588" y="596"/>
    </contour>
    <contour>
      <point x="516" y="186" type="curve" smooth="yes"/>
      <point x="516" y="450" type="line" smooth="yes"/>
      <point x="516" y="548.667"/>
      <point x="483.333" y="564"/>
      <point x="354" y="564" type="curve" smooth="yes"/>
      <point x="156" y="564" type="line"/>
      <point x="156" y="72" type="line"/>
      <point x="336" y="72" type="line" smooth="yes"/>
      <point x="484" y="72"/>
      <point x="516" y="86"/>
    </contour>
  </outline>
</glyph>
<glyph name="E" format="1">
  <advance width="636"/>
  <unicode hex="0045"/>
  <outline>
    <contour>
      <point x="156" y="322" type="line"/>
      <point x="156" y="72" type="line"/>
      <point x="544" y="72" type="line" smooth="yes"/>
      <point x="573.333" y="72"/>
      <point x="588" y="59.3333"/>
      <point x="588" y="34" type="curve" smooth="yes"/>
      <point x="588" y="11.3333"/>
      <point x="573.333" y="0"/>
      <point x="544" y="0" type="curve" smooth="yes"/>
      <point x="118" y="0" type="line" smooth="yes"/>
      <point x="95.3333" y="0"/>
      <point x="84" y="14.6667"/>
      <point x="84" y="44" type="curve" smooth="yes"/>
      <point x="84" y="592" type="line" smooth="yes"/>
      <point x="84" y="621.333"/>
      <point x="95.3333" y="636"/>
      <point x="118" y="636" type="curve" smooth="yes"/>
      <point x="544" y="636" type="line" smooth="yes"/>
      <point x="573.333" y="636"/>
      <point x="588" y="623.333"/>
      <point x="588" y="598" type="curve" smooth="yes"/>
      <point x="588" y="575.333"/>
      <point x="573.333" y="564"/>
      <point x="544" y="564" type="curve" smooth="yes"/>
      <point x="156" y="564" type="line"/>
      <point x="156" y="394" type="line"/>
      <point x="421" y="394" type="line" smooth="yes"/>
      <point x="454.333" y="394"/>
      <point x="471" y="381.333"/>
      <point x="471" y="356" type="curve" smooth="yes"/>
      <point x="471" y="333.333"/>
      <point x="454.333" y="322"/>
      <point x="421" y="322" type="curve" smooth="yes"/>
    </contour>
  </outline>
</glyph>
<glyph name="F" format="1">
  <advance width="615"/>
  <unicode hex="0046"/>
  <outline>
    <contour>
      <point x="156" y="35" type="line" smooth="yes"/>
      <point x="156" y="7"/>
      <point x="144" y="-7"/>
      <point x="120" y="-7" type="curve" smooth="yes"/>
      <point x="96" y="-7"/>
      <point x="84" y="7.33333"/>
      <point x="84" y="36" type="curve" smooth="yes"/>
      <point x="84" y="592" type="line" smooth="yes"/>
      <point x="84" y="621.333"/>
      <point x="95.3333" y="636"/>
      <point x="118" y="636" type="curve" smooth="yes"/>
      <point x="544" y="636" type="line" smooth="yes"/>
      <point x="573.333" y="636"/>
      <point x="588" y="623.333"/>
      <point x="588" y="598" type="curve" smooth="yes"/>
      <point x="588" y="575.333"/>
      <point x="573.333" y="564"/>
      <point x="544" y="564" type="curve" smooth="yes"/>
      <point x="156" y="564" type="line"/>
      <point x="156" y="394" type="line"/>
      <point x="421" y="394" type="line" smooth="yes"/>
      <point x="454.333" y="394"/>
      <point x="471" y="381.333"/>
      <point x="471" y="356" type="curve" smooth="yes"/>
      <point x="471" y="333.333"/>
      <point x="454.333" y="322"/>
      <point x="421" y="322" type="curve" smooth="yes"/>
      <point x="156" y="322" type="line"/>
    </contour>
  </outline>
</glyph>
<glyph name="G" format="1">
  <advance width="645"/>
  <unicode hex="0047"/>
  <outline>
    <contour>
      <point x="503" y="236" type="line"/>
      <point x="376" y="236" type="line" smooth="yes"/>
      <point x="342.667" y="236"/>
      <point x="326" y="248"/>
      <point x="326" y="272" type="curve" smooth="yes"/>
      <point x="326" y="296"/>
      <point x="342.667" y="308"/>
      <point x="376" y="308" type="curve" smooth="yes"/>
      <point x="575" y="308" type="line"/>
      <point x="575" y="115" type="line" smooth="yes"/>
      <point x="575" y="45.6667"/>
      <point x="551.667" y="0"/>
      <point x="465" y="0" type="curve" smooth="yes"/>
      <point x="306" y="0" type="line" smooth="yes"/>
      <point x="143.333" y="0"/>
      <point x="71" y="38.3333"/>
      <point x="71" y="181" type="curve" smooth="yes"/>
      <point x="71" y="455" type="line" smooth="yes"/>
      <point x="71" y="600.333"/>
      <point x="144" y="636"/>
      <point x="324" y="636" type="curve" smooth="yes"/>
      <point x="465" y="636" type="line" smooth="yes"/>
      <point x="508.333" y="636"/>
      <point x="537.5" y="625"/>
      <point x="552.5" y="603" type="curve" smooth="yes"/>
      <point x="567.5" y="581"/>
      <point x="575" y="553.333"/>
      <point x="575" y="520" type="curve" smooth="yes"/>
      <point x="575" y="486.667"/>
      <point x="563" y="470"/>
      <point x="539" y="470" type="curve"/>
      <point x="538" y="469" type="line"/>
      <point x="514.667" y="469"/>
      <point x="503" y="483.667"/>
      <point x="503" y="513" type="curve" smooth="yes"/>
      <point x="503" y="553"/>
      <point x="494" y="564"/>
      <point x="458" y="564" type="curve" smooth="yes"/>
      <point x="324" y="564" type="line" smooth="yes"/>
      <point x="177.333" y="564"/>
      <point x="143" y="549.333"/>
      <point x="143" y="452" type="curve" smooth="yes"/>
      <point x="143" y="184" type="line" smooth="yes"/>
      <point x="143" y="86.6667"/>
      <point x="175.333" y="72"/>
      <point x="306" y="72" type="curve" smooth="yes"/>
      <point x="458" y="72" type="line" smooth="yes"/>
      <point x="494" y="72"/>
      <point x="503" y="81.3333"/>
      <point x="503" y="120" type="curve" smooth="yes"/>
    </contour>
  </outline>
</glyph>
<glyph name="H" format="1">
  <advance width="672"/>
  <unicode hex="0048"/>
  <outline>
    <contour>
      <point x="156" y="35" type="line" smooth="yes"/>
      <point x="156" y="7"/>
      <point x="144" y="-7"/>
      <point x="120" y="-7" type="curve" smooth="yes"/>
      <point x="96" y="-7"/>
      <point x="84" y="7"/>
      <point x="84" y="35" type="curve" smooth="yes"/>
      <point x="84" y="600" type="line" smooth="yes"/>
      <point x="84" y="628.667"/>
      <point x="95.3333" y="643"/>
      <point x="118" y="643" type="curve" smooth="yes"/>
      <point x="143.333" y="643"/>
      <point x="156" y="628.667"/>
      <point x="156" y="600" type="curve" smooth="yes"/>
      <point x="156" y="379" type="line"/>
      <point x="516" y="379" type="line"/>
      <point x="516" y="600" type="line" smooth="yes"/>
      <point x="516" y="628.667"/>
      <point x="528" y="643"/>
      <point x="552" y="643" type="curve" smooth="yes"/>
      <point x="576" y="643"/>
      <point x="588" y="628.667"/>
      <point x="588" y="600" type="curve" smooth="yes"/>
      <point x="588" y="35" type="line" smooth="yes"/>
      <point x="588" y="7"/>
      <point x="576" y="-7"/>
      <point x="552" y="-7" type="curve" smooth="yes"/>
      <point x="528" y="-7"/>
      <point x="516" y="7"/>
      <point x="516" y="35" type="curve" smooth="yes"/>
      <point x="516" y="307" type="line"/>
      <point x="156" y="307" type="line"/>
    </contour>
  </outline>
</glyph>
<glyph name="I" format="1">
  <advance width="240"/>
  <unicode hex="0049"/>
  <outline>
    <contour>
      <point x="156" y="33" type="line" smooth="yes"/>
      <point x="156" y="6.33333"/>
      <point x="144" y="-7"/>
      <point x="120" y="-7" type="curve" smooth="yes"/>
      <point x="96" y="-7"/>
      <point x="84" y="6.33333"/>
      <point x="84" y="33" type="curve" smooth="yes"/>
      <point x="84" y="602" type="line" smooth="yes"/>
      <point x="84" y="629.333"/>
      <point x="96" y="643"/>
      <point x="120" y="643" type="curve" smooth="yes"/>
      <point x="144" y="643"/>
      <point x="156" y="629.333"/>
      <point x="156" y="602" type="curve" smooth="yes"/>
    </contour>
  </outline>
</glyph>
<glyph name="J" format="1">
  <advance width="591"/>
  <unicode hex="004A"/>
  <outline>
    <contour>
      <point x="438" y="176" type="curve" smooth="yes"/>
      <point x="438" y="603" type="line" smooth="yes"/>
      <point x="438" y="631"/>
      <point x="455.333" y="643"/>
      <point x="474" y="643" type="curve" smooth="yes"/>
      <point x="498" y="643"/>
      <point x="510" y="629.333"/>
      <point x="510" y="602" type="curve" smooth="yes"/>
      <point x="510" y="173" type="line" smooth="yes"/>
      <point x="510" y="30.3333"/>
      <point x="437.333" y="-8"/>
      <point x="272" y="-8" type="curve" smooth="yes"/>
      <point x="189.333" y="-8"/>
      <point x="140" y="-0.666667"/>
      <point x="96" y="26" type="curve" smooth="yes"/>
      <point x="54" y="51.3333"/>
      <point x="33" y="103.333"/>
      <point x="33" y="182" type="curve" smooth="yes"/>
      <point x="33" y="210.667"/>
      <point x="45.6667" y="225"/>
      <point x="71" y="225" type="curve" smooth="yes"/>
      <point x="92.3333" y="225"/>
      <point x="106" y="207.333"/>
      <point x="106" y="182" type="curve" smooth="yes"/>
      <point x="106" y="79.3333"/>
      <point x="138.833" y="64"/>
      <point x="271.5" y="64" type="curve" smooth="yes"/>
      <point x="404.167" y="64"/>
      <point x="438" y="80"/>
    </contour>
  </outline>
</glyph>
<glyph name="K" format="1">
  <advance width="560"/>
  <unicode hex="004B"/>
  <outline>
    <contour>
      <point x="541" y="55" type="line"/>
      <point x="574.715" y="16.0986"/>
      <point x="524.844" y="-35.3144"/>
      <point x="485" y="12" type="curve"/>
      <point x="199" y="316" type="line"/>
      <point x="156" y="264" type="line"/>
      <point x="156" y="35" type="line" smooth="yes"/>
      <point x="156" y="7"/>
      <point x="144" y="-7"/>
      <point x="120" y="-7" type="curve" smooth="yes"/>
      <point x="96" y="-7"/>
      <point x="84" y="6.33333"/>
      <point x="84" y="33" type="curve" smooth="yes"/>
      <point x="84" y="602" type="line" smooth="yes"/>
      <point x="84" y="629.333"/>
      <point x="96" y="643"/>
      <point x="120" y="643" type="curve" smooth="yes"/>
      <point x="138.667" y="643"/>
      <point x="156" y="630.667"/>
      <point x="156" y="600" type="curve" smooth="yes"/>
      <point x="156" y="346" type="line"/>
      <point x="419" y="624" type="line"/>
      <point x="462.108" y="672.18"/>
      <point x="507.017" y="618.353"/>
      <point x="475" y="581" type="curve"/>
      <point x="251" y="354" type="line"/>
    </contour>
  </outline>
</glyph>
<glyph name="L" format="1">
  <advance width="554"/>
  <unicode hex="004C"/>
  <outline>
    <contour>
      <point x="118" y="0" type="line" smooth="yes"/>
      <point x="95.3333" y="0"/>
      <point x="84" y="14.3333"/>
      <point x="84" y="43" type="curve" smooth="yes"/>
      <point x="84" y="603" type="line" smooth="yes"/>
      <point x="84" y="656.804"/>
      <point x="156" y="656.804"/>
      <point x="156" y="603" type="curve" smooth="yes"/>
      <point x="156" y="72" type="line"/>
      <point x="489" y="72" type="line" smooth="yes"/>
      <point x="517.667" y="72"/>
      <point x="532" y="60"/>
      <point x="532" y="36" type="curve" smooth="yes"/>
      <point x="532" y="12"/>
      <point x="517.667" y="0"/>
      <point x="489" y="0" type="curve" smooth="yes"/>
    </contour>
  </outline>
</glyph>
<glyph name="M" format="1">
  <advance width="693"/>
  <unicode hex="004D"/>
  <outline>
    <contour>
      <point x="374" y="291" type="line"/>
      <point x="358" y="275"/>
      <point x="335" y="275"/>
      <point x="319" y="291" type="curve"/>
      <point x="156" y="523" type="line"/>
      <point x="156" y="38" type="line" smooth="yes"/>
      <point x="156" y="8"/>
      <point x="144" y="-7"/>
      <point x="120" y="-7" type="curve" smooth="yes"/>
      <point x="96" y="-7"/>
      <point x="84" y="7"/>
      <point x="84" y="35" type="curve" smooth="yes"/>
      <point x="84" y="600" type="line" smooth="yes"/>
      <point x="84" y="628.667"/>
      <point x="95.3333" y="643"/>
      <point x="118" y="643" type="curve" smooth="yes"/>
      <point x="132.667" y="643"/>
      <point x="145.333" y="635.333"/>
      <point x="156" y="620" type="curve" smooth="yes"/>
      <point x="346" y="354" type="line"/>
      <point x="537" y="620" type="line" smooth="yes"/>
      <point x="547.667" y="635.333"/>
      <point x="560" y="643"/>
      <point x="574" y="643" type="curve" smooth="yes"/>
      <point x="597.333" y="643"/>
      <point x="609" y="628.667"/>
      <point x="609" y="600" type="curve" smooth="yes"/>
      <point x="609" y="35" type="line" smooth="yes"/>
      <point x="609" y="7"/>
      <point x="597" y="-7"/>
      <point x="573" y="-7" type="curve" smooth="yes"/>
      <point x="549" y="-7"/>
      <point x="537" y="8"/>
      <point x="537" y="38" type="curve" smooth="yes"/>
      <point x="537" y="523" type="line"/>
    </contour>
  </outline>
</glyph>
<glyph name="N" format="1">
  <advance width="672"/>
  <unicode hex="004E"/>
  <outline>
    <contour>
      <point x="553" y="-7" type="curve" smooth="yes"/>
      <point x="537.667" y="-7"/>
      <point x="528.333" y="-4.66667"/>
      <point x="525" y="0" type="curve" smooth="yes"/>
      <point x="156" y="517" type="line"/>
      <point x="156" y="32" type="line" smooth="yes"/>
      <point x="156" y="6"/>
      <point x="144" y="-7"/>
      <point x="120" y="-7" type="curve" smooth="yes"/>
      <point x="96" y="-7"/>
      <point x="84" y="7"/>
      <point x="84" y="35" type="curve" smooth="yes"/>
      <point x="84" y="600" type="line" smooth="yes"/>
      <point x="84" y="628.667"/>
      <point x="95.3333" y="643"/>
      <point x="118" y="643" type="curve" smooth="yes"/>
      <point x="132.667" y="643"/>
      <point x="145.333" y="635.333"/>
      <point x="156" y="620" type="curve" smooth="yes"/>
      <point x="516" y="118" type="line"/>
      <point x="516" y="597" type="line" smooth="yes"/>
      <point x="516" y="627.667"/>
      <point x="528" y="643"/>
      <point x="552" y="643" type="curve" smooth="yes"/>
      <point x="576" y="643"/>
      <point x="588" y="628.667"/>
      <point x="588" y="600" type="curve" smooth="yes"/>
      <point x="588" y="35" type="line" smooth="yes"/>
      <point x="588" y="7"/>
      <point x="576.333" y="-7"/>
    </contour>
  </outline>
</glyph>
<glyph name="P" format="1">
  <advance width="580"/>
  <unicode hex="0050"/>
  <outline>
    <contour>
      <point x="156" y="33" type="line" smooth="yes"/>
      <point x="156" y="6.33333"/>
      <point x="144" y="-7"/>
      <point x="120" y="-7" type="curve" smooth="yes"/>
      <point x="96" y="-7"/>
      <point x="84" y="6.33333"/>
      <point x="84" y="33" type="curve" smooth="yes"/>
      <point x="84" y="597" type="line" smooth="yes"/>
      <point x="84" y="626.333"/>
      <point x="95.3333" y="641"/>
      <point x="118" y="641" type="curve" smooth="yes"/>
      <point x="309" y="641" type="line" smooth="yes"/>
      <point x="469" y="641"/>
      <point x="546" y="601"/>
      <point x="546" y="489" type="curve" smooth="yes"/>
      <point x="546" y="377"/>
      <point x="477" y="322"/>
      <point x="357" y="322" type="curve" smooth="yes"/>
      <point x="156" y="322" type="line"/>
    </contour>
    <contour>
      <point x="309" y="394" type="line" smooth="yes"/>
      <point x="376.333" y="394"/>
      <point x="420.667" y="400"/>
      <point x="442" y="412" type="curve" smooth="yes"/>
      <point x="463.333" y="422.667"/>
      <point x="474" y="446"/>
      <point x="474" y="482" type="curve" smooth="yes"/>
      <point x="474" y="554"/>
      <point x="437" y="569"/>
      <point x="309" y="569" type="curve" smooth="yes"/>
      <point x="156" y="569" type="line"/>
      <point x="156" y="394" type="line"/>
    </contour>
  </outline>
</glyph>
<glyph name="Q" format="1">
  <advance width="632"/>
  <unicode hex="0051"/>
  <outline>
    <contour>
      <point x="136" y="403" type="curve" smooth="yes"/>
      <point x="136" y="233" type="line" smooth="yes"/>
      <point x="136" y="123.667"/>
      <point x="198.667" y="63"/>
      <point x="316" y="63" type="curve" smooth="yes"/>
      <point x="356" y="63"/>
      <point x="389.333" y="69.6667"/>
      <point x="416" y="83" type="curve"/>
      <point x="367" y="124" type="line"/>
      <point x="343" y="138.667"/>
      <point x="345.333" y="163.333"/>
      <point x="360" y="178" type="curve" smooth="yes"/>
      <point x="373.333" y="192.667"/>
      <point x="400" y="194.667"/>
      <point x="424" y="172" type="curve" smooth="yes"/>
      <point x="470" y="130" type="line"/>
      <point x="487.333" y="158"/>
      <point x="496" y="192.333"/>
      <point x="496" y="233" type="curve" smooth="yes"/>
      <point x="496" y="403" type="line" smooth="yes"/>
      <point x="496" y="511"/>
      <point x="434.667" y="573"/>
      <point x="316" y="573" type="curve" smooth="yes"/>
      <point x="197.333" y="573"/>
      <point x="136" y="511"/>
    </contour>
    <contour>
      <point x="316" y="-9" type="curve" smooth="yes"/>
      <point x="164" y="-9"/>
      <point x="64" y="80.6667"/>
      <point x="64" y="230" type="curve" smooth="yes"/>
      <point x="64" y="406" type="line" smooth="yes"/>
      <point x="64" y="555.333"/>
      <point x="164" y="645"/>
      <point x="316" y="645" type="curve" smooth="yes"/>
      <point x="468" y="645"/>
      <point x="568" y="554"/>
      <point x="568" y="406" type="curve" smooth="yes"/>
      <point x="568" y="230" type="line" smooth="yes"/>
      <point x="568" y="168.667"/>
      <point x="553" y="118.333"/>
      <point x="523" y="79" type="curve"/>
      <point x="551" y="53" type="line"/>
      <point x="588.727" y="12.5785"/>
      <point x="536.301" y="-35.1929"/>
      <point x="499" y="-1" type="curve"/>
      <point x="470" y="28" type="line"/>
      <point x="428.667" y="3.33333"/>
      <point x="377.333" y="-9"/>
    </contour>
  </outline>
</glyph>
<glyph name="R" format="1">
  <advance width="609"/>
  <unicode hex="0052"/>
  <outline>
    <contour>
      <point x="438" y="336" type="curve"/>
      <point x="458.667" y="310.667"/>
      <point x="478.667" y="273.5"/>
      <point x="498" y="224.5" type="curve" smooth="yes"/>
      <point x="517.333" y="175.5"/>
      <point x="531.5" y="133.167"/>
      <point x="540.5" y="97.5" type="curve" smooth="yes"/>
      <point x="558.5" y="26.1667"/>
      <point x="557.333" y="20"/>
      <point x="544" y="4" type="curve"/>
      <point x="528" y="-12"/>
      <point x="502.667" y="-11"/>
      <point x="492" y="5" type="curve" smooth="yes"/>
      <point x="481.333" y="22.3333"/>
      <point x="485.5" y="33.3333"/>
      <point x="467.5" y="100" type="curve" smooth="yes"/>
      <point x="458.5" y="133.333"/>
      <point x="442.5" y="173.667"/>
      <point x="419.5" y="221" type="curve" smooth="yes"/>
      <point x="396.5" y="268.333"/>
      <point x="370.667" y="302"/>
      <point x="342" y="322" type="curve"/>
      <point x="156" y="322" type="line"/>
      <point x="156" y="33" type="line" smooth="yes"/>
      <point x="156" y="6.33333"/>
      <point x="144" y="-7"/>
      <point x="120" y="-7" type="curve" smooth="yes"/>
      <point x="96" y="-7"/>
      <point x="84" y="6.33333"/>
      <point x="84" y="33" type="curve" smooth="yes"/>
      <point x="84" y="602" type="line" smooth="yes"/>
      <point x="84" y="631.333"/>
      <point x="95.3333" y="646"/>
      <point x="118" y="646" type="curve" smooth="yes"/>
      <point x="306" y="646" type="line" smooth="yes"/>
      <point x="468.667" y="646"/>
      <point x="546" y="607.667"/>
      <point x="546" y="485" type="curve" smooth="yes"/>
      <point x="546" y="406.333"/>
      <point x="510" y="356.667"/>
    </contour>
    <contour>
      <point x="156" y="569" type="line"/>
      <point x="156" y="394" type="line"/>
      <point x="306" y="394" type="line" smooth="yes"/>
      <point x="436.667" y="394"/>
      <point x="474" y="410"/>
      <point x="474" y="482" type="curve" smooth="yes"/>
      <point x="474" y="554"/>
      <point x="434" y="569"/>
      <point x="306" y="569" type="curve" smooth="yes"/>
    </contour>
  </outline>
</glyph>
<glyph name="S" format="1">
  <advance width="658"/>
  <unicode hex="0053"/>
  <outline>
    <contour>
      <point x="185" y="385" type="curve"/>
      <point x="460" y="336" type="line" smooth="yes"/>
      <point x="556" y="318.667"/>
      <point x="597" y="247.5"/>
      <point x="597" y="157.5" type="curve" smooth="yes"/>
      <point x="597" y="67.5"/>
      <point x="542.667" y="-8"/>
      <point x="408" y="-8" type="curve" smooth="yes"/>
      <point x="312" y="-8" type="line" smooth="yes"/>
      <point x="136" y="-8"/>
      <point x="61" y="30"/>
      <point x="61" y="182" type="curve" smooth="yes"/>
      <point x="61" y="210.667"/>
      <point x="73.6667" y="225"/>
      <point x="99" y="225" type="curve" smooth="yes"/>
      <point x="120.333" y="225"/>
      <point x="134" y="207.333"/>
      <point x="134" y="182" type="curve" smooth="yes"/>
      <point x="134" y="79.3333"/>
      <point x="166.667" y="64"/>
      <point x="312" y="64" type="curve" smooth="yes"/>
      <point x="430" y="64" type="line"/>
      <point x="573.039" y="64.2549"/>
      <point x="523.373" y="269.922"/>
      <point x="473" y="265" type="curve"/>
      <point x="200" y="316" type="line"/>
      <point x="100" y="336"/>
      <point x="61" y="384.667"/>
      <point x="61" y="478" type="curve" smooth="yes"/>
      <point x="61" y="520.667"/>
      <point x="74.6667" y="558"/>
      <point x="102" y="590" type="curve" smooth="yes"/>
      <point x="133.333" y="626"/>
      <point x="188.667" y="644"/>
      <point x="268" y="644" type="curve" smooth="yes"/>
      <point x="344" y="644" type="line" smooth="yes"/>
      <point x="433.333" y="644"/>
      <point x="484.333" y="636.667"/>
      <point x="531" y="610" type="curve" smooth="yes"/>
      <point x="575" y="585.333"/>
      <point x="597" y="534"/>
      <point x="597" y="456" type="curve" smooth="yes"/>
      <point x="597" y="395.346"/>
      <point x="524" y="402.458"/>
      <point x="524" y="456" type="curve" smooth="yes"/>
      <point x="524" y="507.333"/>
      <point x="512.667" y="539.5"/>
      <point x="490" y="552.5" type="curve" smooth="yes"/>
      <point x="467.333" y="565.5"/>
      <point x="418.667" y="572"/>
      <point x="344" y="572" type="curve" smooth="yes"/>
      <point x="238" y="572" type="line"/>
      <point x="82.0065" y="565.092"/>
      <point x="131.895" y="387.203"/>
    </contour>
  </outline>
</glyph>
<glyph name="T" format="1">
  <advance width="520"/>
  <unicode hex="0054"/>
  <outline>
    <contour>
      <point x="450" y="636" type="line" smooth="yes"/>
      <point x="478.667" y="636"/>
      <point x="493" y="624"/>
      <point x="493" y="600" type="curve" smooth="yes"/>
      <point x="493" y="576"/>
      <point x="478.667" y="564"/>
      <point x="450" y="564" type="curve" smooth="yes"/>
      <point x="302" y="564" type="line"/>
      <point x="302" y="33" type="line" smooth="yes"/>
      <point x="302" y="-20.1503"/>
      <point x="219" y="-21.9281"/>
      <point x="219" y="33" type="curve" smooth="yes"/>
      <point x="219" y="564" type="line"/>
      <point x="69" y="564" type="line" smooth="yes"/>
      <point x="10.9608" y="564"/>
      <point x="10.9608" y="636"/>
      <point x="69" y="636" type="curve" smooth="yes"/>
    </contour>
  </outline>
</glyph>
<glyph name="U" format="1">
  <advance width="658"/>
  <unicode hex="0055"/>
  <outline>
    <contour>
      <point x="509" y="603" type="line" smooth="yes"/>
      <point x="509" y="629.667"/>
      <point x="521" y="643"/>
      <point x="545" y="643" type="curve" smooth="yes"/>
      <point x="569" y="643"/>
      <point x="581" y="629.333"/>
      <point x="581" y="602" type="curve" smooth="yes"/>
      <point x="581" y="230" type="line" smooth="yes"/>
      <point x="581" y="82"/>
      <point x="480" y="-9"/>
      <point x="328" y="-9" type="curve" smooth="yes"/>
      <point x="176" y="-9"/>
      <point x="77" y="80.6667"/>
      <point x="77" y="230" type="curve" smooth="yes"/>
      <point x="77" y="602" type="line" smooth="yes"/>
      <point x="77" y="629.333"/>
      <point x="89" y="643"/>
      <point x="113" y="643" type="curve" smooth="yes"/>
      <point x="131.667" y="643"/>
      <point x="149" y="631"/>
      <point x="149" y="603" type="curve" smooth="yes"/>
      <point x="149" y="233" type="line" smooth="yes"/>
      <point x="149" y="123.667"/>
      <point x="211.667" y="63"/>
      <point x="329" y="63" type="curve" smooth="yes"/>
      <point x="446.333" y="63"/>
      <point x="509" y="123.667"/>
      <point x="509" y="233" type="curve" smooth="yes"/>
    </contour>
  </outline>
</glyph>
<glyph name="V" format="1">
  <advance width="610"/>
  <unicode hex="0056"/>
  <outline>
    <contour>
      <point x="513" y="624" type="line" smooth="yes"/>
      <point x="521" y="642.667"/>
      <point x="533.333" y="652"/>
      <point x="550" y="652" type="curve" smooth="yes"/>
      <point x="581.325" y="652"/>
      <point x="590.469" y="621.407"/>
      <point x="583" y="599" type="curve"/>
      <point x="346" y="0" type="line"/>
      <point x="264" y="0" type="line"/>
      <point x="27" y="599" type="line"/>
      <point x="19.531" y="621.407"/>
      <point x="28.6752" y="652"/>
      <point x="60" y="652" type="curve" smooth="yes"/>
      <point x="77.3333" y="652"/>
      <point x="89.6667" y="642.667"/>
      <point x="97" y="624" type="curve" smooth="yes"/>
      <point x="306" y="104" type="line"/>
    </contour>
  </outline>
</glyph>
<glyph name="W" format="1">
  <advance width="955"/>
  <unicode hex="0057"/>
  <outline>
    <contour>
      <point x="694" y="96" type="line"/>
      <point x="856" y="621" type="line" smooth="yes"/>
      <point x="861.333" y="639.667"/>
      <point x="874.667" y="649"/>
      <point x="896" y="649" type="curve" smooth="yes"/>
      <point x="917.333" y="649"/>
      <point x="928" y="638.667"/>
      <point x="928" y="618" type="curve" smooth="yes"/>
      <point x="928" y="614"/>
      <point x="926.667" y="608"/>
      <point x="924" y="600" type="curve" smooth="yes"/>
      <point x="730" y="0" type="line"/>
      <point x="656" y="0" type="line"/>
      <point x="477" y="531" type="line"/>
      <point x="299" y="0" type="line"/>
      <point x="226" y="0" type="line"/>
      <point x="31" y="604" type="line" smooth="yes"/>
      <point x="28.3333" y="612"/>
      <point x="27" y="618.667"/>
      <point x="27" y="624" type="curve" smooth="yes"/>
      <point x="27" y="643.333"/>
      <point x="37.3333" y="653"/>
      <point x="58" y="653" type="curve" smooth="yes"/>
      <point x="79.3333" y="653"/>
      <point x="93" y="643.667"/>
      <point x="99" y="625" type="curve" smooth="yes"/>
      <point x="263" y="96" type="line"/>
      <point x="436" y="620" type="line"/>
      <point x="452" y="662.667"/>
      <point x="504" y="663"/>
      <point x="520" y="619" type="curve"/>
    </contour>
  </outline>
</glyph>
<glyph name="X" format="1">
  <advance width="605"/>
  <unicode hex="0058"/>
  <outline>
    <contour>
      <point x="497" y="621" type="line"/>
      <point x="536.645" y="675.511"/>
      <point x="584.863" y="619.522"/>
      <point x="556" y="582" type="curve" smooth="yes"/>
      <point x="351" y="317" type="line"/>
      <point x="556" y="53" type="line"/>
      <point x="585.659" y="17.4098"/>
      <point x="537.954" y="-38.1923"/>
      <point x="497" y="13" type="curve"/>
      <point x="302" y="270" type="line"/>
      <point x="108" y="13" type="line"/>
      <point x="66.268" y="-37.6928"/>
      <point x="16.3791" y="20.085"/>
      <point x="49" y="53" type="curve"/>
      <point x="254" y="317" type="line"/>
      <point x="49" y="582" type="line" smooth="yes"/>
      <point x="42.3333" y="590"/>
      <point x="39" y="599.667"/>
      <point x="39" y="611" type="curve" smooth="yes"/>
      <point x="39" y="619"/>
      <point x="41.3333" y="625.333"/>
      <point x="46" y="630" type="curve" smooth="yes"/>
      <point x="54" y="639.333"/>
      <point x="63.3333" y="644"/>
      <point x="74" y="644" type="curve"/>
      <point x="76" y="644" type="line"/>
      <point x="88" y="644"/>
      <point x="98.6667" y="636.333"/>
      <point x="108" y="621" type="curve"/>
      <point x="302" y="365" type="line"/>
    </contour>
  </outline>
</glyph>
<glyph name="Y" format="1">
  <advance width="563"/>
  <unicode hex="0059"/>
  <outline>
    <contour>
      <point x="243" y="306" type="line"/>
      <point x="28" y="583" type="line"/>
      <point x="-3.75163" y="618.098"/>
      <point x="44.0261" y="673.431"/>
      <point x="86" y="621" type="curve"/>
      <point x="281" y="365" type="line"/>
      <point x="475" y="621" type="line"/>
      <point x="518.667" y="673.431"/>
      <point x="565" y="618.098"/>
      <point x="534" y="583" type="curve"/>
      <point x="320" y="306" type="line"/>
      <point x="320" y="32" type="line" smooth="yes"/>
      <point x="320" y="6"/>
      <point x="307.333" y="-7"/>
      <point x="282" y="-7" type="curve" smooth="yes"/>
      <point x="256.667" y="-7"/>
      <point x="243.667" y="6"/>
      <point x="243" y="32" type="curve"/>
    </contour>
  </outline>
</glyph>
<glyph name="Z" format="1">
  <advance width="602"/>
  <unicode hex="005A"/>
  <outline>
    <contour>
      <point x="50" y="0" type="line"/>
      <point x="50" y="64" type="line"/>
      <point x="461" y="564" type="line"/>
      <point x="95" y="564" type="line" smooth="yes"/>
      <point x="64.3333" y="564"/>
      <point x="49" y="576"/>
      <point x="49" y="600" type="curve" smooth="yes"/>
      <point x="49" y="624"/>
      <point x="64.3333" y="636"/>
      <point x="95" y="636" type="curve" smooth="yes"/>
      <point x="553" y="636" type="line"/>
      <point x="553" y="569" type="line"/>
      <point x="144" y="72" type="line"/>
      <point x="508" y="72" type="line" smooth="yes"/>
      <point x="538" y="72"/>
      <point x="553" y="60"/>
      <point x="553" y="36" type="curve" smooth="yes"/>
      <point x="553" y="12"/>
      <point x="538" y="0"/>
      <point x="508" y="0" type="curve" smooth="yes"/>
    </contour>
  </outline>
</glyph>
<glyph name="backslash" format="1">
  <advance width="375"/>
  <unicode hex="005C"/>
  <outline>
    <contour>
      <point x="262" y="6" type="curve"/>
      <point x="50" y="590" type="line"/>
      <point x="31.3862" y="635.5"/>
      <point x="47.2244" y="660"/>
      <point x="78" y="660" type="curve" smooth="yes"/>
      <point x="92.6667" y="660"/>
      <point x="104.333" y="650.333"/>
      <point x="113" y="631" type="curve"/>
      <point x="323" y="53" type="line"/>
      <point x="344.707" y="-4.22803"/>
      <point x="327.001" y="-23"/>
      <point x="298" y="-23" type="curve" smooth="yes"/>
      <point x="282" y="-23"/>
      <point x="270" y="-13.3333"/>
    </contour>
  </outline>
</glyph>
<glyph name="bracketright" format="1">
  <advance width="279"/>
  <unicode hex="005D"/>
  <outline>
    <contour>
      <point x="126" y="15" type="line"/>
      <point x="126" y="621" type="line"/>
      <point x="48" y="621" type="line"/>
      <point x="48" y="693" type="line"/>
      <point x="198" y="693" type="line"/>
      <point x="198" y="-57" type="line"/>
      <point x="48" y="-57" type="line"/>
      <point x="48" y="15" type="line"/>
    </contour>
  </outline>
</glyph>
<glyph name="asciicircum" format="1">
  <advance width="443"/>
  <unicode hex="005E"/>
  <outline>
    <contour>
      <point x="103" y="350" type="curve" smooth="yes"/>
      <point x="70.453" y="350"/>
      <point x="67.7254" y="386.176"/>
      <point x="72" y="399" type="curve"/>
      <point x="186" y="651" type="line"/>
      <point x="258" y="651" type="line"/>
      <point x="371" y="399" type="line"/>
      <point x="373.667" y="389.667"/>
      <point x="376" y="371"/>
      <point x="364" y="359" type="curve" smooth="yes"/>
      <point x="353.333" y="347"/>
      <point x="321" y="341"/>
      <point x="301" y="377" type="curve"/>
      <point x="222" y="557" type="line"/>
      <point x="141" y="377" type="line" smooth="yes"/>
      <point x="133" y="359"/>
      <point x="120.333" y="350"/>
    </contour>
  </outline>
</glyph>
<glyph name="underscore" format="1">
  <advance width="475"/>
  <unicode hex="005F"/>
  <outline>
    <contour>
      <point x="447" y="15" type="line" smooth="yes"/>
      <point x="475.667" y="15"/>
      <point x="490" y="3"/>
      <point x="490" y="-21" type="curve" smooth="yes"/>
      <point x="490" y="-45"/>
      <point x="475.667" y="-57"/>
      <point x="447" y="-57" type="curve" smooth="yes"/>
      <point x="28" y="-57" type="line" smooth="yes"/>
      <point x="-0.666667" y="-57"/>
      <point x="-15" y="-45"/>
      <point x="-15" y="-21" type="curve" smooth="yes"/>
      <point x="-15" y="3"/>
      <point x="-0.666667" y="15"/>
      <point x="28" y="15" type="curve" smooth="yes"/>
    </contour>
  </outline>
</glyph>
<glyph name="grave" format="1">
  <advance width="212"/>
  <unicode hex="0060"/>
  <outline>
    <contour>
      <point x="183" y="559" type="line"/>
      <point x="210.663" y="521.278"/>
      <point x="171.928" y="465.52"/>
      <point x="126" y="514" type="curve"/>
      <point x="30" y="629" type="line"/>
      <point x="-1.34592" y="663.196"/>
      <point x="42.1254" y="724.154"/>
      <point x="87" y="674" type="curve"/>
    </contour>
  </outline>
</glyph>
<glyph name="a" format="1">
  <advance width="594"/>
  <unicode hex="0061"/>
  <outline>
    <contour>
      <point x="314" y="305" type="curve" smooth="yes"/>
      <point x="451" y="305" type="line"/>
      <point x="451" y="347" type="line" smooth="yes"/>
      <point x="451" y="380.333"/>
      <point x="442" y="389"/>
      <point x="406" y="389" type="curve" smooth="yes"/>
      <point x="265" y="389" type="line" smooth="yes"/>
      <point x="161" y="389"/>
      <point x="133" y="379.333"/>
      <point x="133" y="350" type="curve" smooth="yes"/>
      <point x="133" y="320"/>
      <point x="121" y="305"/>
      <point x="97" y="305" type="curve" smooth="yes"/>
      <point x="73" y="305"/>
      <point x="61" y="320"/>
      <point x="61" y="350" type="curve" smooth="yes"/>
      <point x="61" y="434"/>
      <point x="130" y="461"/>
      <point x="258" y="461" type="curve" smooth="yes"/>
      <point x="413" y="461" type="line" smooth="yes"/>
      <point x="498.333" y="461"/>
      <point x="523" y="424.333"/>
      <point x="523" y="331" type="curve" smooth="yes"/>
      <point x="523" y="35" type="line" smooth="yes"/>
      <point x="523" y="7"/>
      <point x="511" y="-7"/>
      <point x="487" y="-7" type="curve" smooth="yes"/>
      <point x="463" y="-7"/>
      <point x="451" y="8"/>
      <point x="451" y="38" type="curve" smooth="yes"/>
      <point x="451" y="50" type="line"/>
      <point x="411" y="16.6667"/>
      <point x="351" y="0"/>
      <point x="271" y="0" type="curve" smooth="yes"/>
      <point x="178" y="0" type="line" smooth="yes"/>
      <point x="110" y="0"/>
      <point x="61" y="50.3333"/>
      <point x="61" y="129" type="curve" smooth="yes"/>
      <point x="61" y="265"/>
      <point x="138" y="305"/>
    </contour>
    <contour>
      <point x="451" y="233" type="curve"/>
      <point x="314" y="233" type="line" smooth="yes"/>
      <point x="239.333" y="233"/>
      <point x="190.5" y="226.833"/>
      <point x="167.5" y="214.5" type="curve" smooth="yes"/>
      <point x="144.5" y="202.167"/>
      <point x="133" y="172"/>
      <point x="133" y="124" type="curve" smooth="yes"/>
      <point x="133" y="96"/>
      <point x="158" y="72"/>
      <point x="178" y="72" type="curve" smooth="yes"/>
      <point x="271" y="72" type="line" smooth="yes"/>
      <point x="350.333" y="72"/>
      <point x="401.333" y="91"/>
      <point x="424" y="129" type="curve" smooth="yes"/>
      <point x="442" y="157.667"/>
      <point x="451" y="191"/>
      <point x="451" y="229" type="curve"/>
      <point x="451" y="230.333"/>
      <point x="451" y="231.667"/>
    </contour>
  </outline>
</glyph>
<glyph name="b" format="1">
  <advance width="670"/>
  <unicode hex="0062"/>
  <outline>
    <contour>
      <point x="147" y="411" type="line"/>
      <point x="188.333" y="444.333"/>
      <point x="248.667" y="461"/>
      <point x="328" y="461" type="curve" smooth="yes"/>
      <point x="357" y="461" type="line" smooth="yes"/>
      <point x="535.667" y="461"/>
      <point x="609" y="423"/>
      <point x="609" y="283" type="curve" smooth="yes"/>
      <point x="609" y="178" type="line" smooth="yes"/>
      <point x="609" y="38"/>
      <point x="535.667" y="0"/>
      <point x="357" y="0" type="curve" smooth="yes"/>
      <point x="328" y="0" type="line" smooth="yes"/>
      <point x="248.667" y="0"/>
      <point x="188.333" y="16.6667"/>
      <point x="147" y="50" type="curve"/>
      <point x="147" y="38" type="line" smooth="yes"/>
      <point x="147" y="8"/>
      <point x="135" y="-7"/>
      <point x="111" y="-7" type="curve" smooth="yes"/>
      <point x="87" y="-7"/>
      <point x="75" y="7"/>
      <point x="75" y="35" type="curve" smooth="yes"/>
      <point x="75" y="597" type="line" smooth="yes"/>
      <point x="75" y="627.667"/>
      <point x="86.3333" y="643"/>
      <point x="109" y="643" type="curve" smooth="yes"/>
      <point x="134.333" y="643"/>
      <point x="147" y="627.667"/>
      <point x="147" y="597" type="curve" smooth="yes"/>
    </contour>
    <contour>
      <point x="328" y="389" type="line" smooth="yes"/>
      <point x="192" y="389"/>
      <point x="147" y="328"/>
      <point x="147" y="232" type="curve" smooth="yes"/>
      <point x="147" y="228" type="line" smooth="yes"/>
      <point x="147" y="133.333"/>
      <point x="193.333" y="72"/>
      <point x="328" y="72" type="curve" smooth="yes"/>
      <point x="357" y="72" type="line" smooth="yes"/>
      <point x="505" y="72"/>
      <point x="537" y="85"/>
      <point x="537" y="181" type="curve" smooth="yes"/>
      <point x="537" y="280" type="line" smooth="yes"/>
      <point x="537" y="376"/>
      <point x="505" y="389"/>
      <point x="357" y="389" type="curve" smooth="yes"/>
    </contour>
  </outline>
</glyph>
<glyph name="c" format="1">
  <advance width="624"/>
  <unicode hex="0063"/>
  <outline>
    <contour>
      <point x="455" y="0" type="curve" smooth="yes"/>
      <point x="314" y="0" type="line" smooth="yes"/>
      <point x="134" y="0"/>
      <point x="61" y="38"/>
      <point x="61" y="178" type="curve" smooth="yes"/>
      <point x="61" y="283" type="line" smooth="yes"/>
      <point x="61" y="423"/>
      <point x="134" y="461"/>
      <point x="314" y="461" type="curve" smooth="yes"/>
      <point x="455" y="461" type="line" smooth="yes"/>
      <point x="498.333" y="461"/>
      <point x="527.5" y="449.833"/>
      <point x="542.5" y="427.5" type="curve" smooth="yes"/>
      <point x="557.5" y="405.167"/>
      <point x="565" y="377.333"/>
      <point x="565" y="344" type="curve" smooth="yes"/>
      <point x="565" y="310.667"/>
      <point x="553" y="294"/>
      <point x="529" y="294" type="curve" smooth="yes"/>
      <point x="510.333" y="294"/>
      <point x="493" y="305.333"/>
      <point x="493" y="340" type="curve" smooth="yes"/>
      <point x="493" y="374.667"/>
      <point x="484" y="389"/>
      <point x="448" y="389" type="curve" smooth="yes"/>
      <point x="314" y="389" type="line" smooth="yes"/>
      <point x="239.333" y="389"/>
      <point x="190.5" y="382.833"/>
      <point x="167.5" y="370.5" type="curve" smooth="yes"/>
      <point x="144.5" y="358.167"/>
      <point x="133" y="328"/>
      <point x="133" y="280" type="curve" smooth="yes"/>
      <point x="133" y="181" type="line" smooth="yes"/>
      <point x="133" y="133"/>
      <point x="144.5" y="102.833"/>
      <point x="167.5" y="90.5" type="curve" smooth="yes"/>
      <point x="190.5" y="78.1667"/>
      <point x="239.333" y="72"/>
      <point x="314" y="72" type="curve" smooth="yes"/>
      <point x="448" y="72" type="line" smooth="yes"/>
      <point x="484" y="72"/>
      <point x="493" y="85.3333"/>
      <point x="493" y="120" type="curve" smooth="yes"/>
      <point x="493" y="154.667"/>
      <point x="510.333" y="167"/>
      <point x="529" y="167" type="curve"/>
      <point x="553" y="166.333"/>
      <point x="565" y="149.333"/>
      <point x="565" y="116" type="curve" smooth="yes"/>
      <point x="565" y="49.3333"/>
      <point x="541.667" y="-2.06232e-05"/>
    </contour>
  </outline>
</glyph>
<glyph name="e" format="1">
  <advance width="651"/>
  <unicode hex="0065"/>
  <outline>
    <contour>
      <point x="595" y="283" type="curve" smooth="yes"/>
      <point x="595" y="235" type="line"/>
      <point x="133" y="235" type="line"/>
      <point x="133" y="181" type="line" smooth="yes"/>
      <point x="133" y="133"/>
      <point x="144.5" y="102.833"/>
      <point x="167.5" y="90.5" type="curve" smooth="yes"/>
      <point x="190.5" y="78.1667"/>
      <point x="239.333" y="72"/>
      <point x="314" y="72" type="curve" smooth="yes"/>
      <point x="468" y="72" type="line" smooth="yes"/>
      <point x="504" y="72"/>
      <point x="513" y="85.3333"/>
      <point x="513" y="120" type="curve" smooth="yes"/>
      <point x="513" y="154.667"/>
      <point x="530.333" y="167"/>
      <point x="549" y="167" type="curve"/>
      <point x="573" y="166.333"/>
      <point x="585" y="149.333"/>
      <point x="585" y="116" type="curve" smooth="yes"/>
      <point x="585" y="49.3333"/>
      <point x="561.667" y="0"/>
      <point x="475" y="0" type="curve" smooth="yes"/>
      <point x="314" y="0" type="line" smooth="yes"/>
      <point x="134" y="0"/>
      <point x="61" y="38"/>
      <point x="61" y="178" type="curve" smooth="yes"/>
      <point x="61" y="283" type="line" smooth="yes"/>
      <point x="61" y="423"/>
      <point x="134" y="461"/>
      <point x="314" y="461" type="curve" smooth="yes"/>
      <point x="343" y="461" type="line" smooth="yes"/>
      <point x="521.667" y="461"/>
      <point x="595" y="423"/>
    </contour>
    <contour>
      <point x="343" y="389" type="curve" smooth="yes"/>
      <point x="314" y="389" type="line" smooth="yes"/>
      <point x="170" y="389"/>
      <point x="137" y="376.333"/>
      <point x="133" y="307" type="curve"/>
      <point x="523" y="307" type="line"/>
      <point x="517.667" y="377.667"/>
      <point x="481.667" y="389"/>
    </contour>
  </outline>
</glyph>
<glyph name="f" format="1">
  <advance width="345"/>
  <unicode hex="0066"/>
  <outline>
    <contour>
      <point x="303" y="564" type="curve" smooth="yes"/>
      <point x="189.667" y="564"/>
      <point x="154.667" y="550.333"/>
      <point x="152" y="461" type="curve"/>
      <point x="280" y="461" type="line" smooth="yes"/>
      <point x="310.667" y="461"/>
      <point x="326" y="448.333"/>
      <point x="326" y="423" type="curve" smooth="yes"/>
      <point x="326" y="400.333"/>
      <point x="310.667" y="389"/>
      <point x="280" y="389" type="curve" smooth="yes"/>
      <point x="152" y="389" type="line"/>
      <point x="152" y="36" type="line" smooth="yes"/>
      <point x="152" y="7.33333"/>
      <point x="139.333" y="-7"/>
      <point x="114" y="-7" type="curve" smooth="yes"/>
      <point x="91.3333" y="-7"/>
      <point x="80" y="7.33333"/>
      <point x="80" y="36" type="curve" smooth="yes"/>
      <point x="80" y="394" type="line"/>
      <point x="38.6667" y="402"/>
      <point x="38.6667" y="454.667"/>
      <point x="80" y="460" type="curve"/>
      <point x="85.3333" y="598.667"/>
      <point x="157.667" y="636"/>
      <point x="303" y="636" type="curve" smooth="yes"/>
      <point x="333.667" y="636"/>
      <point x="349" y="623.333"/>
      <point x="349" y="598" type="curve" smooth="yes"/>
      <point x="349" y="575.333"/>
      <point x="333.667" y="564"/>
    </contour>
  </outline>
</glyph>
<glyph name="g" format="1">
  <advance width="670"/>
  <unicode hex="0067"/>
  <outline>
    <contour>
      <point x="595" y="-77" type="line" smooth="yes"/>
      <point x="595" y="-169"/>
      <point x="571.333" y="-205"/>
      <point x="494" y="-205" type="curve" smooth="yes"/>
      <point x="171" y="-205" type="line" smooth="yes"/>
      <point x="84.3333" y="-205"/>
      <point x="61" y="-154.667"/>
      <point x="61" y="-88" type="curve" smooth="yes"/>
      <point x="61" y="-54.6667"/>
      <point x="73" y="-38"/>
      <point x="97" y="-38" type="curve" smooth="yes"/>
      <point x="121" y="-38"/>
      <point x="133" y="-52.3333"/>
      <point x="133" y="-81" type="curve" smooth="yes"/>
      <point x="133" y="-121"/>
      <point x="142" y="-133"/>
      <point x="178" y="-133" type="curve" smooth="yes"/>
      <point x="487" y="-133" type="line" smooth="yes"/>
      <point x="517.667" y="-133"/>
      <point x="523" y="-126.333"/>
      <point x="523" y="-93" type="curve" smooth="yes"/>
      <point x="523" y="0" type="line"/>
      <point x="311" y="0" type="line" smooth="yes"/>
      <point x="135" y="0"/>
      <point x="61" y="38"/>
      <point x="61" y="178" type="curve" smooth="yes"/>
      <point x="61" y="283" type="line" smooth="yes"/>
      <point x="61" y="423"/>
      <point x="134.333" y="461"/>
      <point x="313" y="461" type="curve" smooth="yes"/>
      <point x="342" y="461" type="line" smooth="yes"/>
      <point x="421.333" y="461"/>
      <point x="481.667" y="444.333"/>
      <point x="523" y="411" type="curve"/>
      <point x="523" y="423" type="line" smooth="yes"/>
      <point x="523" y="453"/>
      <point x="535" y="468"/>
      <point x="559" y="468" type="curve" smooth="yes"/>
      <point x="583" y="468"/>
      <point x="595" y="454"/>
      <point x="595" y="426" type="curve" smooth="yes"/>
    </contour>
    <contour>
      <point x="311" y="72" type="curve" smooth="yes"/>
      <point x="523" y="72" type="line"/>
      <point x="523" y="233" type="line" smooth="yes"/>
      <point x="523" y="327.667"/>
      <point x="476.667" y="389"/>
      <point x="342" y="389" type="curve" smooth="yes"/>
      <point x="313" y="389" type="line" smooth="yes"/>
      <point x="165" y="389"/>
      <point x="133" y="376"/>
      <point x="133" y="280" type="curve" smooth="yes"/>
      <point x="133" y="181" type="line" smooth="yes"/>
      <point x="133" y="85"/>
      <point x="165.667" y="72"/>
    </contour>
  </outline>
</glyph>
<glyph name="h" format="1">
  <advance width="679"/>
  <unicode hex="0068"/>
  <outline>
    <contour>
      <point x="328" y="389" type="line" smooth="yes"/>
      <point x="193.333" y="389"/>
      <point x="147" y="326.333"/>
      <point x="147" y="229" type="curve" smooth="yes"/>
      <point x="147" y="35" type="line" smooth="yes"/>
      <point x="147" y="7"/>
      <point x="135" y="-7"/>
      <point x="111" y="-7" type="curve" smooth="yes"/>
      <point x="87" y="-7"/>
      <point x="75" y="7"/>
      <point x="75" y="35" type="curve" smooth="yes"/>
      <point x="75" y="597" type="line" smooth="yes"/>
      <point x="75" y="627.667"/>
      <point x="86.3333" y="643"/>
      <point x="109" y="643" type="curve" smooth="yes"/>
      <point x="134.333" y="643"/>
      <point x="147" y="627.667"/>
      <point x="147" y="597" type="curve" smooth="yes"/>
      <point x="147" y="411" type="line"/>
      <point x="188.333" y="444.333"/>
      <point x="248.667" y="461"/>
      <point x="328" y="461" type="curve" smooth="yes"/>
      <point x="357" y="461" type="line" smooth="yes"/>
      <point x="535.667" y="461"/>
      <point x="609" y="423"/>
      <point x="609" y="283" type="curve" smooth="yes"/>
      <point x="609" y="35" type="line" smooth="yes"/>
      <point x="609" y="7"/>
      <point x="597" y="-7"/>
      <point x="573" y="-7" type="curve" smooth="yes"/>
      <point x="549" y="-7"/>
      <point x="537" y="7"/>
      <point x="537" y="35" type="curve" smooth="yes"/>
      <point x="537" y="280" type="line" smooth="yes"/>
      <point x="537" y="376"/>
      <point x="505" y="389"/>
      <point x="357" y="389" type="curve" smooth="yes"/>
    </contour>
  </outline>
</glyph>
<glyph name="i" format="1">
  <advance width="218"/>
  <unicode hex="0069"/>
  <outline>
    <contour>
      <point x="73" y="440" type="line" smooth="yes"/>
      <point x="73" y="498.039"/>
      <point x="145" y="498.039"/>
      <point x="145" y="440" type="curve" smooth="yes"/>
      <point x="145" y="20" type="line" smooth="yes"/>
      <point x="145" y="-8"/>
      <point x="132.667" y="-22"/>
      <point x="108" y="-22" type="curve" smooth="yes"/>
      <point x="89.3333" y="-22"/>
      <point x="73" y="-10.6667"/>
      <point x="73" y="20" type="curve" smooth="yes"/>
    </contour>
    <contour>
      <point x="149.5" y="564.5" type="curve"/>
      <point x="104.389" y="516.154"/>
      <point x="5.94444" y="592.042"/>
      <point x="67.5" y="637.5" type="curve"/>
      <point x="111.931" y="685.846"/>
      <point x="213.931" y="609.958"/>
    </contour>
  </outline>
</glyph>
<glyph name="j" format="1">
  <advance width="222"/>
  <unicode hex="006A"/>
  <outline>
    <contour>
      <point x="151.5" y="564.5" type="curve"/>
      <point x="106.389" y="516.154"/>
      <point x="7.94444" y="592.042"/>
      <point x="69.5" y="637.5" type="curve"/>
      <point x="113.931" y="685.846"/>
      <point x="215.931" y="609.958"/>
    </contour>
    <contour>
      <point x="147" y="0" type="line" smooth="yes"/>
      <point x="147" y="-140"/>
      <point x="76" y="-175"/>
      <point x="-76" y="-175" type="curve" smooth="yes"/>
      <point x="-106.667" y="-175"/>
      <point x="-122" y="-163"/>
      <point x="-122" y="-139" type="curve" smooth="yes"/>
      <point x="-122" y="-115"/>
      <point x="-106.667" y="-103"/>
      <point x="-76" y="-103" type="curve" smooth="yes"/>
      <point x="44" y="-103"/>
      <point x="75" y="-89.3333"/>
      <point x="75" y="0" type="curve" smooth="yes"/>
      <point x="75" y="422" type="line" smooth="yes"/>
      <point x="75" y="452.667"/>
      <point x="87" y="468"/>
      <point x="111" y="468" type="curve" smooth="yes"/>
      <point x="135" y="468"/>
      <point x="147" y="452.667"/>
      <point x="147" y="422" type="curve" smooth="yes"/>
    </contour>
  </outline>
</glyph>
<glyph name="k" format="1">
  <advance width="496"/>
  <unicode hex="006B"/>
  <outline>
    <contour>
      <point x="468" y="57" type="line"/>
      <point x="506.451" y="26.4967"/>
      <point x="457.451" y="-34.281"/>
      <point x="417" y="8" type="curve"/>
      <point x="166" y="231" type="line"/>
      <point x="147" y="212" type="line"/>
      <point x="147" y="35" type="line" smooth="yes"/>
      <point x="147" y="7"/>
      <point x="135" y="-7"/>
      <point x="111" y="-7" type="curve" smooth="yes"/>
      <point x="87" y="-7"/>
      <point x="75" y="6"/>
      <point x="75" y="32" type="curve" smooth="yes"/>
      <point x="75" y="600" type="line" smooth="yes"/>
      <point x="75" y="658.039"/>
      <point x="147" y="658.039"/>
      <point x="147" y="600" type="curve" smooth="yes"/>
      <point x="147" y="282" type="line"/>
      <point x="343" y="452" type="line"/>
      <point x="381.464" y="492.634"/>
      <point x="437.575" y="437.19"/>
      <point x="394" y="403" type="curve" smooth="yes"/>
      <point x="219" y="263" type="line"/>
    </contour>
  </outline>
</glyph>
<glyph name="l" format="1">
  <advance width="294"/>
  <unicode hex="006C"/>
  <outline>
    <contour>
      <point x="208" y="0" type="curve" smooth="yes"/>
      <point x="201" y="0" type="line" smooth="yes"/>
      <point x="117" y="0"/>
      <point x="91" y="38.3333"/>
      <point x="91" y="133" type="curve" smooth="yes"/>
      <point x="91" y="598" type="line" smooth="yes"/>
      <point x="91" y="628"/>
      <point x="103" y="643"/>
      <point x="127" y="643" type="curve" smooth="yes"/>
      <point x="151" y="643"/>
      <point x="163" y="628"/>
      <point x="163" y="598" type="curve" smooth="yes"/>
      <point x="163" y="118" type="line" smooth="yes"/>
      <point x="163" y="82"/>
      <point x="172" y="72"/>
      <point x="208" y="72" type="curve" smooth="yes"/>
      <point x="238" y="72"/>
      <point x="253" y="60"/>
      <point x="253" y="36" type="curve" smooth="yes"/>
      <point x="253" y="12"/>
      <point x="238" y="0"/>
    </contour>
  </outline>
</glyph>
<glyph name="m" format="1">
  <advance width="869"/>
  <unicode hex="006D"/>
  <outline>
    <contour>
      <point x="146" y="229" type="curve" smooth="yes"/>
      <point x="146" y="35" type="line" smooth="yes"/>
      <point x="146" y="7"/>
      <point x="134" y="-7"/>
      <point x="110" y="-7" type="curve" smooth="yes"/>
      <point x="86" y="-7"/>
      <point x="74" y="7"/>
      <point x="74" y="35" type="curve" smooth="yes"/>
      <point x="74" y="425" type="line" smooth="yes"/>
      <point x="74" y="453.667"/>
      <point x="85.3333" y="468"/>
      <point x="108" y="468" type="curve" smooth="yes"/>
      <point x="133.333" y="468"/>
      <point x="146" y="452.667"/>
      <point x="146" y="422" type="curve" smooth="yes"/>
      <point x="146" y="414" type="line"/>
      <point x="177.333" y="445.333"/>
      <point x="217" y="461"/>
      <point x="265" y="461" type="curve" smooth="yes"/>
      <point x="361" y="461"/>
      <point x="419.333" y="444.667"/>
      <point x="450" y="390" type="curve"/>
      <point x="488" y="437.333"/>
      <point x="539.333" y="461"/>
      <point x="604" y="461" type="curve" smooth="yes"/>
      <point x="733.333" y="461"/>
      <point x="799" y="421.667"/>
      <point x="799" y="283" type="curve" smooth="yes"/>
      <point x="799" y="35" type="line" smooth="yes"/>
      <point x="799" y="7"/>
      <point x="787" y="-7"/>
      <point x="763" y="-7" type="curve" smooth="yes"/>
      <point x="739" y="-7"/>
      <point x="727" y="7"/>
      <point x="727" y="35" type="curve" smooth="yes"/>
      <point x="727" y="280" type="line" smooth="yes"/>
      <point x="727" y="376"/>
      <point x="700.667" y="389"/>
      <point x="610" y="389" type="curve" smooth="yes"/>
      <point x="519.333" y="389"/>
      <point x="473.667" y="335.667"/>
      <point x="473" y="229" type="curve"/>
      <point x="473" y="35" type="line" smooth="yes"/>
      <point x="473" y="7"/>
      <point x="460.667" y="-7"/>
      <point x="436" y="-7" type="curve" smooth="yes"/>
      <point x="411.333" y="-7"/>
      <point x="399" y="7"/>
      <point x="399" y="35" type="curve" smooth="yes"/>
      <point x="399" y="280" type="line" smooth="yes"/>
      <point x="399" y="374.667"/>
      <point x="371" y="389"/>
      <point x="279" y="389" type="curve" smooth="yes"/>
      <point x="187" y="389"/>
      <point x="146" y="334.333"/>
    </contour>
  </outline>
</glyph>
<glyph name="n" format="1">
  <advance width="678"/>
  <unicode hex="006E"/>
  <outline>
    <contour>
      <point x="327" y="389" type="line" smooth="yes"/>
      <point x="192.333" y="389"/>
      <point x="146" y="326.333"/>
      <point x="146" y="229" type="curve" smooth="yes"/>
      <point x="146" y="35" type="line" smooth="yes"/>
      <point x="146" y="7"/>
      <point x="134" y="-7"/>
      <point x="110" y="-7" type="curve" smooth="yes"/>
      <point x="86" y="-7"/>
      <point x="74" y="7"/>
      <point x="74" y="35" type="curve" smooth="yes"/>
      <point x="74" y="425" type="line" smooth="yes"/>
      <point x="74" y="453.667"/>
      <point x="85.3333" y="468"/>
      <point x="108" y="468" type="curve" smooth="yes"/>
      <point x="133.333" y="468"/>
      <point x="146" y="452.667"/>
      <point x="146" y="422" type="curve" smooth="yes"/>
      <point x="146" y="411" type="line"/>
      <point x="187.333" y="444.333"/>
      <point x="247.667" y="461"/>
      <point x="327" y="461" type="curve" smooth="yes"/>
      <point x="356" y="461" type="line" smooth="yes"/>
      <point x="534.667" y="461"/>
      <point x="608" y="423"/>
      <point x="608" y="283" type="curve" smooth="yes"/>
      <point x="608" y="35" type="line" smooth="yes"/>
      <point x="608" y="7"/>
      <point x="596" y="-7"/>
      <point x="572" y="-7" type="curve" smooth="yes"/>
      <point x="548" y="-7"/>
      <point x="536" y="7"/>
      <point x="536" y="35" type="curve" smooth="yes"/>
      <point x="536" y="280" type="line" smooth="yes"/>
      <point x="536" y="376"/>
      <point x="504" y="389"/>
      <point x="356" y="389" type="curve" smooth="yes"/>
    </contour>
  </outline>
</glyph>
<glyph name="o" format="1">
  <advance width="656"/>
  <unicode hex="006F"/>
  <outline>
    <contour>
      <point x="343" y="0" type="curve" smooth="yes"/>
      <point x="314" y="0" type="line" smooth="yes"/>
      <point x="134" y="0"/>
      <point x="61" y="38"/>
      <point x="61" y="178" type="curve" smooth="yes"/>
      <point x="61" y="283" type="line" smooth="yes"/>
      <point x="61" y="423"/>
      <point x="134" y="461"/>
      <point x="314" y="461" type="curve" smooth="yes"/>
      <point x="343" y="461" type="line" smooth="yes"/>
      <point x="521.667" y="461"/>
      <point x="595" y="423"/>
      <point x="595" y="283" type="curve" smooth="yes"/>
      <point x="595" y="178" type="line" smooth="yes"/>
      <point x="595" y="38"/>
      <point x="521.667" y="0"/>
    </contour>
    <contour>
      <point x="314" y="72" type="curve" smooth="yes"/>
      <point x="343" y="72" type="line" smooth="yes"/>
      <point x="491" y="72"/>
      <point x="523" y="85"/>
      <point x="523" y="181" type="curve" smooth="yes"/>
      <point x="523" y="280" type="line" smooth="yes"/>
      <point x="523" y="376"/>
      <point x="491" y="389"/>
      <point x="343" y="389" type="curve" smooth="yes"/>
      <point x="314" y="389" type="line" smooth="yes"/>
      <point x="239.333" y="389"/>
      <point x="190.5" y="382.833"/>
      <point x="167.5" y="370.5" type="curve" smooth="yes"/>
      <point x="144.5" y="358.167"/>
      <point x="133" y="328"/>
      <point x="133" y="280" type="curve" smooth="yes"/>
      <point x="133" y="181" type="line" smooth="yes"/>
      <point x="133" y="133"/>
      <point x="144.5" y="102.833"/>
      <point x="167.5" y="90.5" type="curve" smooth="yes"/>
      <point x="190.5" y="78.1667"/>
      <point x="239.333" y="72"/>
    </contour>
  </outline>
</glyph>
<glyph name="p" format="1">
  <advance width="670"/>
  <unicode hex="0070"/>
  <outline>
    <contour>
      <point x="537" y="280" type="line" smooth="yes"/>
      <point x="537" y="376"/>
      <point x="505" y="389"/>
      <point x="357" y="389" type="curve" smooth="yes"/>
      <point x="328" y="389" type="line" smooth="yes"/>
      <point x="192" y="389"/>
      <point x="147" y="328"/>
      <point x="147" y="232" type="curve" smooth="yes"/>
      <point x="147" y="72" type="line"/>
      <point x="360" y="72" type="line" smooth="yes"/>
      <point x="505.333" y="72"/>
      <point x="537" y="85"/>
      <point x="537" y="181" type="curve" smooth="yes"/>
    </contour>
    <contour>
      <point x="609" y="178" type="line" smooth="yes"/>
      <point x="609" y="38"/>
      <point x="536" y="0"/>
      <point x="360" y="0" type="curve" smooth="yes"/>
      <point x="147" y="0" type="line"/>
      <point x="147" y="-137" type="line" smooth="yes"/>
      <point x="147" y="-167"/>
      <point x="134.333" y="-182"/>
      <point x="109" y="-182" type="curve" smooth="yes"/>
      <point x="86.3333" y="-182"/>
      <point x="75" y="-167"/>
      <point x="75" y="-137" type="curve" smooth="yes"/>
      <point x="75" y="426" type="line" smooth="yes"/>
      <point x="75" y="454"/>
      <point x="87" y="468"/>
      <point x="111" y="468" type="curve" smooth="yes"/>
      <point x="135" y="468"/>
      <point x="147" y="453"/>
      <point x="147" y="423" type="curve" smooth="yes"/>
      <point x="147" y="411" type="line"/>
      <point x="188.333" y="444.333"/>
      <point x="248.667" y="461"/>
      <point x="328" y="461" type="curve" smooth="yes"/>
      <point x="357" y="461" type="line" smooth="yes"/>
      <point x="535.667" y="461"/>
      <point x="609" y="423"/>
      <point x="609" y="283" type="curve" smooth="yes"/>
    </contour>
  </outline>
</glyph>
<glyph name="q" format="1">
  <advance width="670"/>
  <unicode hex="0071"/>
  <outline>
    <contour>
      <point x="133" y="280" type="curve" smooth="yes"/>
      <point x="133" y="181" type="line" smooth="yes"/>
      <point x="133" y="85"/>
      <point x="165.667" y="72"/>
      <point x="311" y="72" type="curve" smooth="yes"/>
      <point x="523" y="72" type="line"/>
      <point x="523" y="232" type="line" smooth="yes"/>
      <point x="523" y="336.667"/>
      <point x="463" y="389"/>
      <point x="343" y="389" type="curve" smooth="yes"/>
      <point x="314" y="389" type="line" smooth="yes"/>
      <point x="239.333" y="389"/>
      <point x="190.5" y="382.833"/>
      <point x="167.5" y="370.5" type="curve" smooth="yes"/>
      <point x="144.5" y="358.167"/>
      <point x="133" y="328"/>
    </contour>
    <contour>
      <point x="61" y="178" type="curve" smooth="yes"/>
      <point x="61" y="283" type="line" smooth="yes"/>
      <point x="61" y="423"/>
      <point x="134" y="461"/>
      <point x="314" y="461" type="curve" smooth="yes"/>
      <point x="343" y="461" type="line" smooth="yes"/>
      <point x="423" y="461"/>
      <point x="483" y="444.333"/>
      <point x="523" y="411" type="curve"/>
      <point x="523" y="423" type="line" smooth="yes"/>
      <point x="523" y="453"/>
      <point x="535" y="468"/>
      <point x="559" y="468" type="curve" smooth="yes"/>
      <point x="583" y="468"/>
      <point x="595" y="454"/>
      <point x="595" y="426" type="curve" smooth="yes"/>
      <point x="595" y="-137" type="line" smooth="yes"/>
      <point x="595" y="-167"/>
      <point x="583.667" y="-182"/>
      <point x="561" y="-182" type="curve" smooth="yes"/>
      <point x="542.333" y="-182"/>
      <point x="523" y="-170.333"/>
      <point x="523" y="-137" type="curve" smooth="yes"/>
      <point x="523" y="0" type="line"/>
      <point x="311" y="0" type="line" smooth="yes"/>
      <point x="135" y="0"/>
      <point x="61" y="38"/>
    </contour>
  </outline>
</glyph>
<glyph name="r" format="1">
  <advance width="406"/>
  <unicode hex="0072"/>
  <outline>
    <contour>
      <point x="297" y="389" type="line" smooth="yes"/>
      <point x="198.333" y="389"/>
      <point x="146" y="333"/>
      <point x="146" y="229" type="curve" smooth="yes"/>
      <point x="146" y="35" type="line" smooth="yes"/>
      <point x="146" y="7"/>
      <point x="134" y="-7"/>
      <point x="110" y="-7" type="curve" smooth="yes"/>
      <point x="86" y="-7"/>
      <point x="74" y="7"/>
      <point x="74" y="35" type="curve" smooth="yes"/>
      <point x="74" y="425" type="line" smooth="yes"/>
      <point x="74" y="453.667"/>
      <point x="85.3333" y="468"/>
      <point x="108" y="468" type="curve" smooth="yes"/>
      <point x="133.333" y="468"/>
      <point x="146" y="452.667"/>
      <point x="146" y="422" type="curve" smooth="yes"/>
      <point x="146" y="411" type="line"/>
      <point x="186" y="444.333"/>
      <point x="236.333" y="461"/>
      <point x="297" y="461" type="curve" smooth="yes"/>
      <point x="343" y="461" type="line" smooth="yes"/>
      <point x="373" y="461"/>
      <point x="388" y="449"/>
      <point x="388" y="425" type="curve" smooth="yes"/>
      <point x="388" y="401"/>
      <point x="373" y="389"/>
      <point x="343" y="389" type="curve" smooth="yes"/>
    </contour>
  </outline>
</glyph>
<glyph name="s" format="1">
  <advance width="625"/>
  <unicode hex="0073"/>
  <outline>
    <contour>
      <point x="170" y="0" type="line" smooth="yes"/>
      <point x="126.667" y="0"/>
      <point x="97.5" y="11"/>
      <point x="82.5" y="33" type="curve" smooth="yes"/>
      <point x="67.5" y="55"/>
      <point x="60" y="82.6667"/>
      <point x="60" y="116" type="curve" smooth="yes"/>
      <point x="60" y="149.333"/>
      <point x="72" y="166"/>
      <point x="96" y="166" type="curve"/>
      <point x="97" y="167" type="line"/>
      <point x="120.333" y="167"/>
      <point x="132" y="152.667"/>
      <point x="132" y="124" type="curve" smooth="yes"/>
      <point x="132" y="84"/>
      <point x="141" y="72"/>
      <point x="177" y="72" type="curve" smooth="yes"/>
      <point x="445" y="72" type="line" smooth="yes"/>
      <point x="477.667" y="72"/>
      <point x="494" y="92"/>
      <point x="494" y="132" type="curve" smooth="yes"/>
      <point x="494" y="170.667"/>
      <point x="474.333" y="200"/>
      <point x="445" y="200" type="curve" smooth="yes"/>
      <point x="199" y="200" type="line" smooth="yes"/>
      <point x="103" y="200"/>
      <point x="60" y="253.667"/>
      <point x="60" y="335" type="curve" smooth="yes"/>
      <point x="60" y="416.333"/>
      <point x="102.333" y="461"/>
      <point x="229" y="461" type="curve" smooth="yes"/>
      <point x="454" y="461" type="line" smooth="yes"/>
      <point x="497.333" y="461"/>
      <point x="526.5" y="449.833"/>
      <point x="541.5" y="427.5" type="curve" smooth="yes"/>
      <point x="556.5" y="405.167"/>
      <point x="564" y="377.333"/>
      <point x="564" y="344" type="curve" smooth="yes"/>
      <point x="564" y="310.667"/>
      <point x="552" y="294"/>
      <point x="528" y="294" type="curve" smooth="yes"/>
      <point x="509.333" y="294"/>
      <point x="492" y="305.333"/>
      <point x="492" y="340" type="curve" smooth="yes"/>
      <point x="492" y="374.667"/>
      <point x="483" y="389"/>
      <point x="447" y="389" type="curve" smooth="yes"/>
      <point x="181" y="389" type="line" smooth="yes"/>
      <point x="148.333" y="389"/>
      <point x="132" y="370.667"/>
      <point x="132" y="334" type="curve" smooth="yes"/>
      <point x="132" y="294"/>
      <point x="153" y="272"/>
      <point x="181" y="272" type="curve" smooth="yes"/>
      <point x="428" y="272" type="line" smooth="yes"/>
      <point x="526.667" y="272"/>
      <point x="566" y="212.667"/>
      <point x="566" y="130" type="curve" smooth="yes"/>
      <point x="566" y="47.3333"/>
      <point x="522" y="0"/>
      <point x="398" y="0" type="curve" smooth="yes"/>
    </contour>
  </outline>
</glyph>
<glyph name="t" format="1">
  <advance width="373"/>
  <unicode hex="0074"/>
  <outline>
    <contour>
      <point x="152" y="181" type="line" smooth="yes"/>
      <point x="152" y="86.3333"/>
      <point x="184.333" y="72"/>
      <point x="303" y="72" type="curve" smooth="yes"/>
      <point x="333" y="72"/>
      <point x="348" y="60.6667"/>
      <point x="348" y="38" type="curve" smooth="yes"/>
      <point x="348" y="12.6667"/>
      <point x="333" y="0"/>
      <point x="303" y="0" type="curve" smooth="yes"/>
      <point x="152.333" y="0"/>
      <point x="80" y="40.6667"/>
      <point x="80" y="178" type="curve" smooth="yes"/>
      <point x="80" y="394" type="line"/>
      <point x="38.6667" y="400.667"/>
      <point x="38.6667" y="453.333"/>
      <point x="80" y="460" type="curve"/>
      <point x="80" y="555" type="line" smooth="yes"/>
      <point x="80" y="585.667"/>
      <point x="91.3333" y="601"/>
      <point x="114" y="601" type="curve" smooth="yes"/>
      <point x="139.333" y="601"/>
      <point x="152" y="585.667"/>
      <point x="152" y="555" type="curve" smooth="yes"/>
      <point x="152" y="461" type="line"/>
      <point x="280" y="461" type="line" smooth="yes"/>
      <point x="310.667" y="461"/>
      <point x="326" y="448.333"/>
      <point x="326" y="423" type="curve" smooth="yes"/>
      <point x="326" y="400.333"/>
      <point x="310.667" y="389"/>
      <point x="280" y="389" type="curve" smooth="yes"/>
      <point x="152" y="389" type="line"/>
    </contour>
  </outline>
</glyph>
<glyph name="u" format="1">
  <advance width="678"/>
  <unicode hex="0075"/>
  <outline>
    <contour>
      <point x="351" y="72" type="line" smooth="yes"/>
      <point x="488.333" y="72"/>
      <point x="532" y="137.333"/>
      <point x="532" y="232" type="curve" smooth="yes"/>
      <point x="532" y="426" type="line" smooth="yes"/>
      <point x="532" y="454"/>
      <point x="544" y="468"/>
      <point x="568" y="468" type="curve" smooth="yes"/>
      <point x="592" y="468"/>
      <point x="604" y="454"/>
      <point x="604" y="426" type="curve" smooth="yes"/>
      <point x="604" y="36" type="line" smooth="yes"/>
      <point x="604" y="7.33333"/>
      <point x="592.667" y="-7"/>
      <point x="570" y="-7" type="curve" smooth="yes"/>
      <point x="544.667" y="-7"/>
      <point x="532" y="8.33333"/>
      <point x="532" y="39" type="curve" smooth="yes"/>
      <point x="532" y="50" type="line"/>
      <point x="490.667" y="16.6667"/>
      <point x="430.333" y="0"/>
      <point x="351" y="0" type="curve" smooth="yes"/>
      <point x="322" y="0" type="line" smooth="yes"/>
      <point x="143.333" y="0"/>
      <point x="70" y="38"/>
      <point x="70" y="178" type="curve" smooth="yes"/>
      <point x="70" y="426" type="line" smooth="yes"/>
      <point x="70" y="454"/>
      <point x="82" y="468"/>
      <point x="106" y="468" type="curve" smooth="yes"/>
      <point x="130" y="468"/>
      <point x="142" y="454"/>
      <point x="142" y="426" type="curve" smooth="yes"/>
      <point x="142" y="181" type="line" smooth="yes"/>
      <point x="142" y="85"/>
      <point x="174" y="72"/>
      <point x="322" y="72" type="curve" smooth="yes"/>
    </contour>
  </outline>
</glyph>
<glyph name="v" format="1">
  <advance width="533"/>
  <unicode hex="0076"/>
  <outline>
    <contour>
      <point x="214" y="0" type="line"/>
      <point x="34" y="432" type="line" smooth="yes"/>
      <point x="25.7769" y="452.558"/>
      <point x="31.6785" y="483"/>
      <point x="64" y="483" type="curve" smooth="yes"/>
      <point x="80" y="483"/>
      <point x="92.6667" y="473.667"/>
      <point x="102" y="455" type="curve"/>
      <point x="264" y="76" type="line"/>
      <point x="432" y="456" type="line" smooth="yes"/>
      <point x="440" y="474"/>
      <point x="452.667" y="483"/>
      <point x="470" y="483" type="curve" smooth="yes"/>
      <point x="492.667" y="483"/>
      <point x="504" y="472"/>
      <point x="504" y="450" type="curve" smooth="yes"/>
      <point x="504" y="444"/>
      <point x="502.667" y="438"/>
      <point x="500" y="432" type="curve" smooth="yes"/>
      <point x="309" y="0" type="line"/>
    </contour>
  </outline>
</glyph>
<glyph name="w" format="1">
  <advance width="834"/>
  <unicode hex="0077"/>
  <outline>
    <contour>
      <point x="799" y="424" type="curve" smooth="yes"/>
      <point x="642" y="0" type="line"/>
      <point x="547" y="0" type="line"/>
      <point x="418" y="354" type="line"/>
      <point x="277" y="0" type="line"/>
      <point x="184" y="0" type="line"/>
      <point x="36" y="424" type="line" smooth="yes"/>
      <point x="33.3333" y="432"/>
      <point x="32" y="438"/>
      <point x="32" y="442" type="curve" smooth="yes"/>
      <point x="32" y="462.667"/>
      <point x="43.3333" y="473"/>
      <point x="66" y="473" type="curve" smooth="yes"/>
      <point x="84" y="473"/>
      <point x="96.6667" y="463.667"/>
      <point x="104" y="445" type="curve"/>
      <point x="234" y="68" type="line"/>
      <point x="378" y="440" type="line" smooth="yes"/>
      <point x="391.333" y="476"/>
      <point x="444.667" y="476"/>
      <point x="458" y="440" type="curve" smooth="yes"/>
      <point x="596" y="68" type="line"/>
      <point x="731" y="445" type="line" smooth="yes"/>
      <point x="738.333" y="463.667"/>
      <point x="751" y="473"/>
      <point x="769" y="473" type="curve" smooth="yes"/>
      <point x="791.667" y="473"/>
      <point x="803" y="462.667"/>
      <point x="803" y="442" type="curve" smooth="yes"/>
      <point x="803" y="438"/>
      <point x="801.667" y="432"/>
    </contour>
  </outline>
</glyph>
<glyph name="x" format="1">
  <advance width="558"/>
  <unicode hex="0078"/>
  <outline>
    <contour>
      <point x="503" y="50" type="line"/>
      <point x="540.34" y="12.6601"/>
      <point x="482.895" y="-33.8954"/>
      <point x="448" y="1" type="curve"/>
      <point x="280" y="186" type="line"/>
      <point x="111" y="1" type="line"/>
      <point x="75.6634" y="-34.3366"/>
      <point x="17.5523" y="12.5523"/>
      <point x="55" y="50" type="curve"/>
      <point x="226" y="230" type="line"/>
      <point x="55" y="411" type="line" smooth="yes"/>
      <point x="18.9258" y="450.08"/>
      <point x="75.07" y="495.93"/>
      <point x="111" y="460" type="curve"/>
      <point x="280" y="275" type="line"/>
      <point x="448" y="460" type="line"/>
      <point x="483.456" y="495.456"/>
      <point x="539.012" y="450.013"/>
      <point x="503" y="411" type="curve" smooth="yes"/>
      <point x="332" y="230" type="line"/>
    </contour>
  </outline>
</glyph>
<glyph name="z" format="1">
  <advance width="594"/>
  <unicode hex="007A"/>
  <outline>
    <contour>
      <point x="162" y="72" type="line"/>
      <point x="424" y="72" type="line" smooth="yes"/>
      <point x="444" y="72"/>
      <point x="456.667" y="77"/>
      <point x="462" y="87" type="curve" smooth="yes"/>
      <point x="467.333" y="97"/>
      <point x="470" y="116"/>
      <point x="470" y="144" type="curve" smooth="yes"/>
      <point x="470" y="172"/>
      <point x="481.667" y="186"/>
      <point x="505" y="186" type="curve"/>
      <point x="506" y="186" type="line"/>
      <point x="530" y="186"/>
      <point x="542" y="170.333"/>
      <point x="542" y="139" type="curve" smooth="yes"/>
      <point x="542" y="40.3333"/>
      <point x="516" y="0"/>
      <point x="432" y="0" type="curve" smooth="yes"/>
      <point x="60" y="0" type="line"/>
      <point x="60" y="74" type="line"/>
      <point x="422" y="389" type="line"/>
      <point x="177" y="389" type="line" smooth="yes"/>
      <point x="139.667" y="389"/>
      <point x="132" y="376.333"/>
      <point x="132" y="319" type="curve" smooth="yes"/>
      <point x="132" y="290.333"/>
      <point x="120" y="276"/>
      <point x="96" y="276" type="curve" smooth="yes"/>
      <point x="72" y="276"/>
      <point x="60" y="291.333"/>
      <point x="60" y="322" type="curve" smooth="yes"/>
      <point x="60" y="422"/>
      <point x="84.6667" y="461"/>
      <point x="170" y="461" type="curve" smooth="yes"/>
      <point x="521" y="461" type="line"/>
      <point x="521" y="384" type="line"/>
    </contour>
  </outline>
</glyph>
<glyph name="braceleft" format="1">
  <advance width="287"/>
  <unicode hex="007B"/>
  <outline>
    <contour>
      <point x="40" y="327" type="line"/>
      <point x="73.3333" y="344.333"/>
      <point x="113" y="377.667"/>
      <point x="113" y="399" type="curve" smooth="yes"/>
      <point x="113" y="420.333"/>
      <point x="85" y="496.833"/>
      <point x="85" y="541.5" type="curve" smooth="yes"/>
      <point x="85" y="586.167"/>
      <point x="98.1667" y="632.333"/>
      <point x="113.5" y="655" type="curve" smooth="yes"/>
      <point x="139.203" y="692.995"/>
      <point x="187.888" y="693"/>
      <point x="235" y="693" type="curve"/>
      <point x="235" y="621" type="line"/>
      <point x="161.667" y="621"/>
      <point x="157" y="617.333"/>
      <point x="157" y="528" type="curve" smooth="yes"/>
      <point x="157" y="523.333"/>
      <point x="161.667" y="505.333"/>
      <point x="171" y="474" type="curve" smooth="yes"/>
      <point x="180.333" y="442.667"/>
      <point x="185" y="418"/>
      <point x="185" y="400" type="curve" smooth="yes"/>
      <point x="185" y="373.333"/>
      <point x="164.333" y="345.667"/>
      <point x="123" y="317" type="curve"/>
      <point x="164.333" y="291"/>
      <point x="185" y="264"/>
      <point x="185" y="236" type="curve" smooth="yes"/>
      <point x="185" y="218"/>
      <point x="180.333" y="193.667"/>
      <point x="171" y="163" type="curve" smooth="yes"/>
      <point x="161.667" y="132.333"/>
      <point x="157" y="114"/>
      <point x="157" y="108" type="curve" smooth="yes"/>
      <point x="157" y="18.6667"/>
      <point x="161.667" y="15"/>
      <point x="235" y="15" type="curve"/>
      <point x="235" y="-57" type="line"/>
      <point x="179.667" y="-56.3333"/>
      <point x="144" y="-48.6667"/>
      <point x="128" y="-34" type="curve"/>
      <point x="73.3333" y="33.25"/>
      <point x="77.9167" y="91.5"/>
      <point x="99" y="174.5" type="curve"/>
      <point x="108.333" y="205.5"/>
      <point x="113" y="226.333"/>
      <point x="113" y="237" type="curve" smooth="yes"/>
      <point x="113" y="258.333"/>
      <point x="74.6667" y="288.333"/>
      <point x="40" y="307" type="curve"/>
    </contour>
  </outline>
</glyph>
<glyph name="bar" format="1">
  <advance width="235"/>
  <unicode hex="007C"/>
  <outline>
    <contour>
      <point x="153" y="33" type="line" smooth="yes"/>
      <point x="153" y="6.33333"/>
      <point x="141" y="-7"/>
      <point x="117" y="-7" type="curve" smooth="yes"/>
      <point x="93" y="-7"/>
      <point x="81" y="6.33333"/>
      <point x="81" y="33" type="curve" smooth="yes"/>
      <point x="81" y="602" type="line" smooth="yes"/>
      <point x="81" y="629.333"/>
      <point x="93" y="643"/>
      <point x="117" y="643" type="curve" smooth="yes"/>
      <point x="141" y="643"/>
      <point x="153" y="629.333"/>
      <point x="153" y="602" type="curve" smooth="yes"/>
    </contour>
  </outline>
</glyph>
<glyph name="braceright" format="1">
  <advance width="287"/>
  <unicode hex="007D"/>
  <outline>
    <contour>
      <point x="247" y="327" type="curve"/>
      <point x="247" y="307" type="line"/>
      <point x="212.333" y="288.333"/>
      <point x="174" y="258.333"/>
      <point x="174" y="237" type="curve" smooth="yes"/>
      <point x="174" y="215.667"/>
      <point x="202" y="137.833"/>
      <point x="202" y="98.5" type="curve" smooth="yes"/>
      <point x="202" y="8.48915"/>
      <point x="172.548" y="-38.613"/>
      <point x="127" y="-50" type="curve" smooth="yes"/>
      <point x="108.333" y="-54.6667"/>
      <point x="83.3333" y="-57"/>
      <point x="52" y="-57" type="curve"/>
      <point x="52" y="15" type="line"/>
      <point x="125.333" y="15"/>
      <point x="130" y="18.6667"/>
      <point x="130" y="108" type="curve" smooth="yes"/>
      <point x="130" y="114"/>
      <point x="125.333" y="132.333"/>
      <point x="116" y="163" type="curve" smooth="yes"/>
      <point x="106.667" y="193.667"/>
      <point x="102" y="218"/>
      <point x="102" y="236" type="curve" smooth="yes"/>
      <point x="102" y="264"/>
      <point x="122.667" y="291"/>
      <point x="164" y="317" type="curve"/>
      <point x="122.667" y="345.667"/>
      <point x="102" y="373.333"/>
      <point x="102" y="400" type="curve" smooth="yes"/>
      <point x="102" y="418"/>
      <point x="106.667" y="442.667"/>
      <point x="116" y="474" type="curve" smooth="yes"/>
      <point x="125.333" y="505.333"/>
      <point x="130" y="523.333"/>
      <point x="130" y="528" type="curve" smooth="yes"/>
      <point x="130" y="617.333"/>
      <point x="125.333" y="621"/>
      <point x="52" y="621" type="curve"/>
      <point x="52" y="693" type="line"/>
      <point x="99.4444" y="693"/>
      <point x="147.174" y="693.004"/>
      <point x="174" y="655" type="curve" smooth="yes"/>
      <point x="192.667" y="627"/>
      <point x="202" y="584.667"/>
      <point x="202" y="528" type="curve" smooth="yes"/>
      <point x="202" y="508.4"/>
      <point x="174" y="413.727"/>
      <point x="174" y="399" type="curve" smooth="yes"/>
      <point x="174" y="377.667"/>
      <point x="213.667" y="344.333"/>
    </contour>
  </outline>
</glyph>
<glyph name="asciitilde" format="1">
  <advance width="438"/>
  <unicode hex="007E"/>
  <outline>
    <contour>
      <point x="171" y="205" type="line" smooth="yes"/>
      <point x="165.667" y="207.667"/>
      <point x="164" y="208"/>
      <point x="160" y="204" type="curve" smooth="yes"/>
      <point x="131" y="178" type="line"/>
      <point x="105.438" y="144.608"/>
      <point x="35.3268" y="190.275"/>
      <point x="86" y="235" type="curve" smooth="yes"/>
      <point x="131" y="273" type="line" smooth="yes"/>
      <point x="148.333" y="287.667"/>
      <point x="164" y="285.667"/>
      <point x="180" y="279" type="curve" smooth="yes"/>
      <point x="267" y="246" type="line"/>
      <point x="271" y="243.333"/>
      <point x="273" y="243"/>
      <point x="277" y="247" type="curve" smooth="yes"/>
      <point x="307" y="273" type="line"/>
      <point x="321.667" y="287.667"/>
      <point x="342" y="287.333"/>
      <point x="358" y="274" type="curve"/>
      <point x="374" y="263.333"/>
      <point x="375" y="234.667"/>
      <point x="351" y="216" type="curve"/>
      <point x="307" y="178" type="line"/>
      <point x="287" y="163.333"/>
      <point x="274.333" y="165.333"/>
      <point x="257" y="172" type="curve" smooth="yes"/>
    </contour>
  </outline>
</glyph>
<glyph name="exclamdown" format="1">
  <advance width="247"/>
  <unicode hex="00A1"/>
  <outline>
    <contour>
      <point x="88" y="282" type="line" smooth="yes"/>
      <point x="88" y="340.039"/>
      <point x="160" y="340.039"/>
      <point x="160" y="282" type="curve" smooth="yes"/>
      <point x="160" y="-138" type="line" smooth="yes"/>
      <point x="160" y="-166"/>
      <point x="147.667" y="-180"/>
      <point x="123" y="-180" type="curve" smooth="yes"/>
      <point x="104.333" y="-180"/>
      <point x="88" y="-168.667"/>
      <point x="88" y="-138" type="curve" smooth="yes"/>
    </contour>
    <contour>
      <point x="164" y="413.5" type="curve"/>
      <point x="118.324" y="365.154"/>
      <point x="19.1569" y="441.042"/>
      <point x="82.5" y="486.5" type="curve"/>
      <point x="129.275" y="534.846"/>
      <point x="228.441" y="458.958"/>
    </contour>
  </outline>
</glyph>
<glyph name="cent" format="1">
  <advance width="498"/>
  <unicode hex="00A2"/>
  <outline>
    <contour>
      <point x="218" y="108" type="line"/>
      <point x="104.667" y="117.333"/>
      <point x="49" y="168.667"/>
      <point x="49" y="298" type="curve" smooth="yes"/>
      <point x="49" y="340" type="line" smooth="yes"/>
      <point x="49" y="468"/>
      <point x="107.333" y="519.667"/>
      <point x="218" y="529" type="curve"/>
      <point x="218" y="615" type="line" smooth="yes"/>
      <point x="218" y="643.667"/>
      <point x="230" y="658"/>
      <point x="254" y="658" type="curve" smooth="yes"/>
      <point x="278" y="658"/>
      <point x="290" y="643.667"/>
      <point x="290" y="615" type="curve" smooth="yes"/>
      <point x="290" y="530" type="line"/>
      <point x="332" y="530" type="line" smooth="yes"/>
      <point x="375.333" y="530"/>
      <point x="404.333" y="519"/>
      <point x="419" y="497" type="curve" smooth="yes"/>
      <point x="433.667" y="475"/>
      <point x="441" y="447.333"/>
      <point x="441" y="414" type="curve" smooth="yes"/>
      <point x="441" y="380.667"/>
      <point x="429" y="363.667"/>
      <point x="405" y="363" type="curve"/>
      <point x="381" y="363"/>
      <point x="369" y="377.667"/>
      <point x="369" y="407" type="curve" smooth="yes"/>
      <point x="369" y="448.333"/>
      <point x="359.667" y="458"/>
      <point x="325" y="458" type="curve" smooth="yes"/>
      <point x="290" y="458" type="line"/>
      <point x="290" y="180" type="line"/>
      <point x="323" y="180" type="line" smooth="yes"/>
      <point x="360.333" y="180"/>
      <point x="369" y="191"/>
      <point x="369" y="231" type="curve" smooth="yes"/>
      <point x="369" y="260.333"/>
      <point x="381" y="275"/>
      <point x="405" y="275" type="curve" smooth="yes"/>
      <point x="429" y="275"/>
      <point x="441" y="258.333"/>
      <point x="441" y="225" type="curve" smooth="yes"/>
      <point x="441" y="158.333"/>
      <point x="416.667" y="108"/>
      <point x="330" y="108" type="curve" smooth="yes"/>
      <point x="290" y="108" type="line"/>
      <point x="290" y="20" type="line" smooth="yes"/>
      <point x="290" y="-8"/>
      <point x="277.667" y="-22"/>
      <point x="253" y="-22" type="curve" smooth="yes"/>
      <point x="234.333" y="-22"/>
      <point x="218" y="-10.6667"/>
      <point x="218" y="20" type="curve" smooth="yes"/>
    </contour>
    <contour>
      <point x="218" y="181" type="curve"/>
      <point x="218" y="457" type="line"/>
      <point x="147.333" y="450.333"/>
      <point x="121" y="425.333"/>
      <point x="121" y="340" type="curve" smooth="yes"/>
      <point x="121" y="298" type="line" smooth="yes"/>
      <point x="121" y="211.333"/>
      <point x="144.667" y="187.667"/>
    </contour>
  </outline>
</glyph>
<glyph name="sterling" format="1">
  <advance width="520"/>
  <unicode hex="00A3"/>
  <outline>
    <contour>
      <point x="104" y="468" type="line" smooth="yes"/>
      <point x="110.667" y="546.667"/>
      <point x="133.667" y="599"/>
      <point x="173" y="625" type="curve" smooth="yes"/>
      <point x="206.333" y="647"/>
      <point x="248.167" y="658"/>
      <point x="298.5" y="658" type="curve" smooth="yes"/>
      <point x="399.167" y="658"/>
      <point x="461" y="621"/>
      <point x="461" y="501" type="curve" smooth="yes"/>
      <point x="461" y="470.333"/>
      <point x="442.667" y="458"/>
      <point x="424" y="458" type="curve" smooth="yes"/>
      <point x="400.667" y="458"/>
      <point x="389" y="472.333"/>
      <point x="389" y="501" type="curve" smooth="yes"/>
      <point x="389" y="573"/>
      <point x="365.333" y="586"/>
      <point x="292" y="586" type="curve" smooth="yes"/>
      <point x="218.667" y="586"/>
      <point x="185.333" y="565.333"/>
      <point x="176" y="468" type="curve" smooth="yes"/>
      <point x="168" y="379" type="line"/>
      <point x="191" y="379" type="line" smooth="yes"/>
      <point x="247.941" y="379"/>
      <point x="247.941" y="307"/>
      <point x="191" y="307" type="curve" smooth="yes"/>
      <point x="163" y="307" type="line"/>
      <point x="139" y="57" type="line"/>
      <point x="420" y="57" type="line" smooth="yes"/>
      <point x="448.667" y="57"/>
      <point x="463" y="45"/>
      <point x="463" y="21" type="curve" smooth="yes"/>
      <point x="463" y="-3"/>
      <point x="448.667" y="-15"/>
      <point x="420" y="-15" type="curve" smooth="yes"/>
      <point x="97" y="-15" type="line" smooth="yes"/>
      <point x="75.6667" y="-15"/>
      <point x="65" y="-1.66667"/>
      <point x="65" y="25" type="curve" smooth="yes"/>
      <point x="65" y="29"/>
      <point x="65.3333" y="32"/>
      <point x="66" y="34" type="curve" smooth="yes"/>
    </contour>
  </outline>
</glyph>
<glyph name="currency" format="1">
  <advance width="521"/>
  <unicode hex="00A4"/>
  <outline>
    <contour>
      <point x="260.5" y="325" type="curve" smooth="yes"/>
      <point x="209.167" y="325"/>
      <point x="166" y="281.833"/>
      <point x="166" y="230.5" type="curve" smooth="yes"/>
      <point x="166" y="179.167"/>
      <point x="209.167" y="136"/>
      <point x="260.5" y="136" type="curve" smooth="yes"/>
      <point x="311.833" y="136"/>
      <point x="355" y="179.167"/>
      <point x="355" y="230.5" type="curve" smooth="yes"/>
      <point x="355" y="281.833"/>
      <point x="311.833" y="325"/>
    </contour>
    <contour>
      <point x="85" y="354" type="line"/>
      <point x="48.179" y="396.081"/>
      <point x="96.3243" y="439.716"/>
      <point x="136" y="405" type="curve"/>
      <point x="177" y="364" type="line"/>
      <point x="229" y="397.333"/>
      <point x="293.333" y="397"/>
      <point x="344" y="365" type="curve"/>
      <point x="384" y="405" type="line"/>
      <point x="421.613" y="440.105"/>
      <point x="480.518" y="395.127"/>
      <point x="432" y="352" type="curve"/>
      <point x="395" y="314" type="line"/>
      <point x="427" y="263.333"/>
      <point x="427" y="197.667"/>
      <point x="395" y="147" type="curve"/>
      <point x="434" y="108" type="line"/>
      <point x="472.862" y="66.7086"/>
      <point x="424.686" y="13.8026"/>
      <point x="382" y="59" type="curve"/>
      <point x="344" y="96" type="line"/>
      <point x="293.333" y="64"/>
      <point x="229" y="63.6667"/>
      <point x="177" y="97" type="curve"/>
      <point x="138" y="59" type="line"/>
      <point x="96.6866" y="12.5224"/>
      <point x="46.8284" y="66.1018"/>
      <point x="85" y="107" type="curve"/>
      <point x="126" y="148" type="line"/>
      <point x="94" y="193.333"/>
      <point x="94" y="267.667"/>
      <point x="126" y="313" type="curve"/>
    </contour>
  </outline>
</glyph>
<glyph name="yen" format="1">
  <advance width="560"/>
  <unicode hex="00A5"/>
  <outline>
    <contour>
      <point x="100" y="636" type="curve"/>
      <point x="280" y="381" type="line"/>
      <point x="459" y="636" type="line" smooth="yes"/>
      <point x="498.17" y="690.725"/>
      <point x="551.614" y="629.059"/>
      <point x="518" y="595" type="curve"/>
      <point x="316" y="304" type="line"/>
      <point x="316" y="287" type="line"/>
      <point x="400" y="287" type="line" smooth="yes"/>
      <point x="458.039" y="287"/>
      <point x="458.039" y="215"/>
      <point x="400" y="215" type="curve" smooth="yes"/>
      <point x="316" y="215" type="line"/>
      <point x="316" y="198" type="line"/>
      <point x="400" y="198" type="line" smooth="yes"/>
      <point x="430.667" y="198"/>
      <point x="443" y="179.667"/>
      <point x="443" y="161" type="curve" smooth="yes"/>
      <point x="443" y="137.667"/>
      <point x="428.667" y="126"/>
      <point x="400" y="126" type="curve" smooth="yes"/>
      <point x="316" y="126" type="line"/>
      <point x="316" y="20" type="line" smooth="yes"/>
      <point x="316" y="-8"/>
      <point x="304" y="-22"/>
      <point x="280" y="-22" type="curve" smooth="yes"/>
      <point x="261.333" y="-22"/>
      <point x="245" y="-10.6667"/>
      <point x="245" y="20" type="curve" smooth="yes"/>
      <point x="245" y="126" type="line"/>
      <point x="155" y="126" type="line" smooth="yes"/>
      <point x="127" y="126"/>
      <point x="113" y="138"/>
      <point x="113" y="162" type="curve" smooth="yes"/>
      <point x="113" y="186"/>
      <point x="127" y="198"/>
      <point x="155" y="198" type="curve" smooth="yes"/>
      <point x="245" y="198" type="line"/>
      <point x="245" y="215" type="line"/>
      <point x="155" y="215" type="line" smooth="yes"/>
      <point x="124.333" y="215"/>
      <point x="113" y="233.333"/>
      <point x="113" y="252" type="curve" smooth="yes"/>
      <point x="113" y="275.333"/>
      <point x="127" y="287"/>
      <point x="155" y="287" type="curve" smooth="yes"/>
      <point x="245" y="287" type="line"/>
      <point x="245" y="304" type="line"/>
      <point x="42" y="595" type="line"/>
      <point x="10.2484" y="631.307"/>
      <point x="58.0261" y="689.418"/>
    </contour>
  </outline>
</glyph>
<glyph name="brokenbar" format="1">
  <advance width="231"/>
  <unicode hex="00A6"/>
  <outline>
    <contour>
      <point x="80" y="235" type="line" smooth="yes"/>
      <point x="80" y="295.654"/>
      <point x="151" y="288.542"/>
      <point x="151" y="235" type="curve" smooth="yes"/>
      <point x="151" y="22" type="line" smooth="yes"/>
      <point x="151" y="-7.33333"/>
      <point x="138.667" y="-22"/>
      <point x="114" y="-22" type="curve" smooth="yes"/>
      <point x="96.6667" y="-22"/>
      <point x="80" y="-10"/>
      <point x="80" y="22" type="curve" smooth="yes"/>
    </contour>
    <contour>
      <point x="151" y="401" type="line" smooth="yes"/>
      <point x="151" y="340.346"/>
      <point x="80" y="347.458"/>
      <point x="80" y="401" type="curve" smooth="yes"/>
      <point x="80" y="616" type="line" smooth="yes"/>
      <point x="80" y="644"/>
      <point x="92" y="658"/>
      <point x="116" y="658" type="curve" smooth="yes"/>
      <point x="134.667" y="658"/>
      <point x="151" y="646.667"/>
      <point x="151" y="616" type="curve" smooth="yes"/>
    </contour>
  </outline>
</glyph>
<glyph name="section" format="1">
  <advance width="539"/>
  <unicode hex="00A7"/>
  <outline>
    <contour>
      <point x="349" y="-15" type="curve" smooth="yes"/>
      <point x="165" y="-15" type="line" smooth="yes"/>
      <point x="93" y="-15"/>
      <point x="74" y="24.6667"/>
      <point x="74" y="86" type="curve" smooth="yes"/>
      <point x="74" y="121.366"/>
      <point x="113.31" y="139.959"/>
      <point x="136" y="115" type="curve"/>
      <point x="157.583" y="85.9167"/>
      <point x="131.167" y="47.8333"/>
      <point x="176" y="57" type="curve"/>
      <point x="360" y="57" type="line" smooth="yes"/>
      <point x="385.333" y="57"/>
      <point x="392" y="65.6667"/>
      <point x="392" y="99" type="curve" smooth="yes"/>
      <point x="392" y="136.333"/>
      <point x="381.667" y="156.333"/>
      <point x="361" y="159" type="curve" smooth="yes"/>
      <point x="186" y="184" type="line"/>
      <point x="111.333" y="193.333"/>
      <point x="74" y="234"/>
      <point x="74" y="306" type="curve" smooth="yes"/>
      <point x="74" y="349.333"/>
      <point x="86.3333" y="380.667"/>
      <point x="111" y="400" type="curve"/>
      <point x="86.3333" y="421.333"/>
      <point x="74" y="453"/>
      <point x="74" y="495" type="curve" smooth="yes"/>
      <point x="74" y="571"/>
      <point x="112.333" y="609"/>
      <point x="189" y="609" type="curve" smooth="yes"/>
      <point x="374" y="609" type="line" smooth="yes"/>
      <point x="409.333" y="609"/>
      <point x="433.167" y="599.833"/>
      <point x="445.5" y="581.5" type="curve" smooth="yes"/>
      <point x="457.833" y="563.167"/>
      <point x="464" y="539.667"/>
      <point x="464" y="511" type="curve" smooth="yes"/>
      <point x="464" y="482.333"/>
      <point x="452" y="468"/>
      <point x="428" y="468" type="curve" smooth="yes"/>
      <point x="406.667" y="468"/>
      <point x="392" y="483.667"/>
      <point x="392" y="509" type="curve" smooth="yes"/>
      <point x="392" y="534.333"/>
      <point x="390" y="537"/>
      <point x="362" y="537" type="curve" smooth="yes"/>
      <point x="178" y="537" type="line" smooth="yes"/>
      <point x="152.667" y="537"/>
      <point x="146" y="527"/>
      <point x="146" y="495" type="curve" smooth="yes"/>
      <point x="146" y="457.667"/>
      <point x="156.333" y="437.667"/>
      <point x="177" y="435" type="curve" smooth="yes"/>
      <point x="352" y="410" type="line"/>
      <point x="426.667" y="400.667"/>
      <point x="464" y="360.333"/>
      <point x="464" y="289" type="curve" smooth="yes"/>
      <point x="464" y="243.667"/>
      <point x="451.667" y="212"/>
      <point x="427" y="194" type="curve"/>
      <point x="451.667" y="172.667"/>
      <point x="464" y="141"/>
      <point x="464" y="99" type="curve" smooth="yes"/>
      <point x="464" y="23"/>
      <point x="425.667" y="-15"/>
    </contour>
    <contour>
      <point x="227.5" y="358" type="curve" smooth="yes"/>
      <point x="149.5" y="358"/>
      <point x="146" y="353.5"/>
      <point x="146" y="307.5" type="curve" smooth="yes"/>
      <point x="146" y="261.5"/>
      <point x="219.667" y="236"/>
      <point x="305" y="236" type="curve" smooth="yes"/>
      <point x="390.333" y="236"/>
      <point x="392" y="239.833"/>
      <point x="392" y="288.5" type="curve" smooth="yes"/>
      <point x="392" y="337.167"/>
      <point x="305.5" y="358"/>
    </contour>
  </outline>
</glyph>
<glyph name="dieresis" format="1">
  <advance width="392"/>
  <unicode hex="00A8"/>
  <outline>
    <contour>
      <point x="172" y="630" type="curve" smooth="yes"/>
      <point x="172" y="563.647"/>
      <point x="50" y="563.647"/>
      <point x="50" y="630" type="curve" smooth="yes"/>
      <point x="50" y="696.353"/>
      <point x="172" y="696.353"/>
    </contour>
    <contour>
      <point x="342" y="630" type="curve" smooth="yes"/>
      <point x="342" y="563.647"/>
      <point x="220" y="563.647"/>
      <point x="220" y="630" type="curve" smooth="yes"/>
      <point x="220" y="696.353"/>
      <point x="342" y="696.353"/>
    </contour>
  </outline>
</glyph>
<glyph name="copyright" format="1">
  <advance width="630"/>
  <unicode hex="00A9"/>
  <outline>
    <contour>
      <point x="301" y="144" type="curve" smooth="yes"/>
      <point x="330" y="144" type="line" smooth="yes"/>
      <point x="446" y="144"/>
      <point x="480" y="160.667"/>
      <point x="480" y="262" type="curve" smooth="yes"/>
      <point x="480" y="373" type="line" smooth="yes"/>
      <point x="480" y="474.333"/>
      <point x="446" y="491"/>
      <point x="330" y="491" type="curve" smooth="yes"/>
      <point x="301" y="491" type="line" smooth="yes"/>
      <point x="182.333" y="491"/>
      <point x="150" y="474.333"/>
      <point x="150" y="373" type="curve" smooth="yes"/>
      <point x="150" y="262" type="line" smooth="yes"/>
      <point x="150" y="160.667"/>
      <point x="182.333" y="144"/>
    </contour>
    <contour>
      <point x="78" y="373" type="line" smooth="yes"/>
      <point x="78" y="522.333"/>
      <point x="150.333" y="563"/>
      <point x="301" y="563" type="curve" smooth="yes"/>
      <point x="330" y="563" type="line" smooth="yes"/>
      <point x="479.333" y="563"/>
      <point x="552" y="522.333"/>
      <point x="552" y="373" type="curve" smooth="yes"/>
      <point x="552" y="262" type="line" smooth="yes"/>
      <point x="552" y="112.667"/>
      <point x="479.333" y="72"/>
      <point x="330" y="72" type="curve" smooth="yes"/>
      <point x="301" y="72" type="line" smooth="yes"/>
      <point x="150.333" y="72"/>
      <point x="78" y="112.667"/>
      <point x="78" y="262" type="curve" smooth="yes"/>
    </contour>
    <contour>
      <point x="393" y="336" type="curve" smooth="yes"/>
      <point x="376.333" y="336"/>
      <point x="367.333" y="343.667"/>
      <point x="366" y="359" type="curve" smooth="yes"/>
      <point x="365" y="369" type="line"/>
      <point x="364.333" y="369.667"/>
      <point x="362" y="370"/>
      <point x="358" y="370" type="curve" smooth="yes"/>
      <point x="310" y="370" type="line" smooth="yes"/>
      <point x="282" y="370"/>
      <point x="265" y="357"/>
      <point x="265" y="337" type="curve" smooth="yes"/>
      <point x="265" y="298" type="line" smooth="yes"/>
      <point x="265" y="278"/>
      <point x="282" y="265"/>
      <point x="310" y="265" type="curve" smooth="yes"/>
      <point x="358" y="265" type="line" smooth="yes"/>
      <point x="362.667" y="265"/>
      <point x="365" y="265.333"/>
      <point x="365" y="266" type="curve"/>
      <point x="370.274" y="304.678"/>
      <point x="396.946" y="305.671"/>
      <point x="415.5" y="292" type="curve" smooth="yes"/>
      <point x="428.122" y="282.7"/>
      <point x="436.403" y="204"/>
      <point x="360" y="204" type="curve" smooth="yes"/>
      <point x="310" y="204" type="line" smooth="yes"/>
      <point x="251.333" y="204"/>
      <point x="205" y="238"/>
      <point x="205" y="298" type="curve" smooth="yes"/>
      <point x="205" y="337" type="line" smooth="yes"/>
      <point x="205" y="397"/>
      <point x="251.333" y="431"/>
      <point x="310" y="431" type="curve" smooth="yes"/>
      <point x="360" y="431" type="line" smooth="yes"/>
      <point x="405.333" y="431"/>
      <point x="425" y="394.167"/>
      <point x="425" y="369.5" type="curve" smooth="yes"/>
      <point x="425" y="344.833"/>
      <point x="410.333" y="336"/>
    </contour>
  </outline>
</glyph>
<glyph name="ordfeminine" format="1">
  <advance width="392"/>
  <unicode hex="00AA"/>
  <outline>
    <contour>
      <point x="245" y="404" type="line" smooth="yes"/>
      <point x="245" y="413.333"/>
      <point x="244.333" y="415"/>
      <point x="235" y="415" type="curve" smooth="yes"/>
      <point x="156" y="415" type="line" smooth="yes"/>
      <point x="151.333" y="415"/>
      <point x="148.333" y="414.667"/>
      <point x="147" y="414" type="curve"/>
      <point x="147" y="381.595"/>
      <point x="86" y="380.484"/>
      <point x="86" y="416" type="curve" smooth="yes"/>
      <point x="86" y="454.667"/>
      <point x="111.667" y="476"/>
      <point x="153" y="476" type="curve" smooth="yes"/>
      <point x="238" y="476" type="line" smooth="yes"/>
      <point x="283.333" y="476"/>
      <point x="306" y="445"/>
      <point x="306" y="397" type="curve" smooth="yes"/>
      <point x="306" y="258" type="line" smooth="yes"/>
      <point x="306" y="236.006"/>
      <point x="265.445" y="213.159"/>
      <point x="247" y="248" type="curve"/>
      <point x="233.667" y="238.667"/>
      <point x="215.667" y="234"/>
      <point x="193" y="234" type="curve" smooth="yes"/>
      <point x="156" y="234" type="line" smooth="yes"/>
      <point x="114.667" y="234"/>
      <point x="86" y="272.333"/>
      <point x="86" y="311" type="curve" smooth="yes"/>
      <point x="86" y="377.667"/>
      <point x="126" y="400"/>
      <point x="198" y="400" type="curve" smooth="yes"/>
      <point x="245" y="400" type="line"/>
    </contour>
    <contour>
      <point x="293" y="214" type="line" smooth="yes"/>
      <point x="342.725" y="214"/>
      <point x="342.725" y="149"/>
      <point x="293" y="149" type="curve" smooth="yes"/>
      <point x="97" y="149" type="line" smooth="yes"/>
      <point x="46.5686" y="149"/>
      <point x="51.902" y="214"/>
      <point x="97" y="214" type="curve" smooth="yes"/>
    </contour>
    <contour>
      <point x="156" y="295" type="curve"/>
      <point x="193" y="295" type="line" smooth="yes"/>
      <point x="222.333" y="295"/>
      <point x="239.333" y="309.667"/>
      <point x="244" y="339" type="curve"/>
      <point x="198" y="339" type="line"/>
      <point x="134.5" y="348.333"/>
      <point x="143" y="302.917"/>
    </contour>
  </outline>
</glyph>
<glyph name="logicalnot" format="1">
  <advance width="543"/>
  <unicode hex="00AC"/>
  <outline>
    <contour>
      <point x="389" y="141" type="curve" smooth="yes"/>
      <point x="389" y="194" type="line"/>
      <point x="120" y="194" type="line" smooth="yes"/>
      <point x="92.6667" y="194"/>
      <point x="79" y="206.333"/>
      <point x="79" y="231" type="curve" smooth="yes"/>
      <point x="79" y="248.333"/>
      <point x="90.6667" y="267"/>
      <point x="120" y="267" type="curve" smooth="yes"/>
      <point x="418" y="267" type="line" smooth="yes"/>
      <point x="447.333" y="267"/>
      <point x="462" y="253"/>
      <point x="462" y="225" type="curve" smooth="yes"/>
      <point x="462" y="141" type="line" smooth="yes"/>
      <point x="462" y="112.333"/>
      <point x="449.333" y="98"/>
      <point x="424" y="98" type="curve" smooth="yes"/>
      <point x="402.667" y="98"/>
      <point x="389" y="115.667"/>
    </contour>
  </outline>
</glyph>
<glyph name="registered" format="1">
  <advance width="630"/>
  <unicode hex="00AE"/>
  <outline>
    <contour>
      <point x="301" y="144" type="curve" smooth="yes"/>
      <point x="330" y="144" type="line" smooth="yes"/>
      <point x="446" y="144"/>
      <point x="480" y="160.667"/>
      <point x="480" y="262" type="curve" smooth="yes"/>
      <point x="480" y="373" type="line" smooth="yes"/>
      <point x="480" y="474.333"/>
      <point x="446" y="491"/>
      <point x="330" y="491" type="curve" smooth="yes"/>
      <point x="301" y="491" type="line" smooth="yes"/>
      <point x="182.333" y="491"/>
      <point x="150" y="474.333"/>
      <point x="150" y="373" type="curve" smooth="yes"/>
      <point x="150" y="262" type="line" smooth="yes"/>
      <point x="150" y="160.667"/>
      <point x="182.333" y="144"/>
    </contour>
    <contour>
      <point x="78" y="373" type="line" smooth="yes"/>
      <point x="78" y="522.333"/>
      <point x="150.333" y="563"/>
      <point x="301" y="563" type="curve" smooth="yes"/>
      <point x="330" y="563" type="line" smooth="yes"/>
      <point x="479.333" y="563"/>
      <point x="552" y="522.333"/>
      <point x="552" y="373" type="curve" smooth="yes"/>
      <point x="552" y="262" type="line" smooth="yes"/>
      <point x="552" y="112.667"/>
      <point x="479.333" y="72"/>
      <point x="330" y="72" type="curve" smooth="yes"/>
      <point x="301" y="72" type="line" smooth="yes"/>
      <point x="150.333" y="72"/>
      <point x="78" y="112.667"/>
      <point x="78" y="262" type="curve" smooth="yes"/>
    </contour>
    <contour>
      <point x="407" y="193" type="curve" smooth="yes"/>
      <point x="389" y="193"/>
      <point x="378.333" y="200"/>
      <point x="375" y="214" type="curve" smooth="yes"/>
      <point x="371" y="228.667"/>
      <point x="348" y="270.667"/>
      <point x="320" y="288" type="curve"/>
      <point x="262" y="288" type="line"/>
      <point x="262" y="217" type="line" smooth="yes"/>
      <point x="262" y="185.941"/>
      <point x="201" y="185.941"/>
      <point x="201" y="217" type="curve" smooth="yes"/>
      <point x="201" y="411" type="line" smooth="yes"/>
      <point x="201" y="427"/>
      <point x="218" y="436"/>
      <point x="230" y="436" type="curve" smooth="yes"/>
      <point x="314" y="436" type="line" smooth="yes"/>
      <point x="393.333" y="436"/>
      <point x="433" y="411"/>
      <point x="433" y="361" type="curve" smooth="yes"/>
      <point x="433" y="332.333"/>
      <point x="419.333" y="311"/>
      <point x="392" y="297" type="curve"/>
      <point x="421.333" y="263"/>
      <point x="436" y="236.333"/>
      <point x="436" y="217" type="curve" smooth="yes"/>
      <point x="436" y="203.667"/>
      <point x="421.667" y="193"/>
    </contour>
    <contour>
      <point x="314" y="349" type="line" smooth="yes"/>
      <point x="378" y="349"/>
      <point x="372" y="354.333"/>
      <point x="372" y="361" type="curve" smooth="yes"/>
      <point x="372" y="373"/>
      <point x="363.333" y="375"/>
      <point x="314" y="375" type="curve" smooth="yes"/>
      <point x="262" y="375" type="line"/>
      <point x="262" y="349" type="line"/>
    </contour>
  </outline>
</glyph>
<glyph name="macron" format="1">
  <advance width="429"/>
  <unicode hex="00AF"/>
  <outline>
    <contour>
      <point x="336" y="736" type="line" smooth="yes"/>
      <point x="365.333" y="736"/>
      <point x="380" y="723.333"/>
      <point x="380" y="698" type="curve" smooth="yes"/>
      <point x="380" y="676.667"/>
      <point x="361.333" y="663"/>
      <point x="336" y="663" type="curve" smooth="yes"/>
      <point x="91" y="663" type="line" smooth="yes"/>
      <point x="63.6667" y="663"/>
      <point x="50" y="675.333"/>
      <point x="50" y="700" type="curve" smooth="yes"/>
      <point x="50" y="717.333"/>
      <point x="61.6667" y="736"/>
      <point x="91" y="736" type="curve" smooth="yes"/>
    </contour>
  </outline>
</glyph>
<glyph name="degree" format="1">
  <advance width="424"/>
  <unicode hex="00B0"/>
  <outline>
    <contour>
      <point x="212.5" y="622" type="curve" smooth="yes"/>
      <point x="165.167" y="622"/>
      <point x="125" y="581.833"/>
      <point x="125" y="534.5" type="curve" smooth="yes"/>
      <point x="125" y="487.167"/>
      <point x="165.167" y="447"/>
      <point x="212.5" y="447" type="curve" smooth="yes"/>
      <point x="259.833" y="447"/>
      <point x="300" y="487.167"/>
      <point x="300" y="534.5" type="curve" smooth="yes"/>
      <point x="300" y="581.833"/>
      <point x="259.833" y="622"/>
    </contour>
    <contour>
      <point x="371" y="534.5" type="curve" smooth="yes"/>
      <point x="371" y="447.167"/>
      <point x="299.833" y="376"/>
      <point x="212.5" y="376" type="curve" smooth="yes"/>
      <point x="125.167" y="376"/>
      <point x="54" y="447.167"/>
      <point x="54" y="534.5" type="curve" smooth="yes"/>
      <point x="54" y="621.833"/>
      <point x="125.167" y="693"/>
      <point x="212.5" y="693" type="curve" smooth="yes"/>
      <point x="299.833" y="693"/>
      <point x="371" y="621.833"/>
    </contour>
  </outline>
</glyph>
<glyph name="plusminus" format="1">
  <advance width="587"/>
  <unicode hex="00B1"/>
  <outline>
    <contour>
      <point x="103" y="-10" type="line" smooth="yes"/>
      <point x="81.6667" y="-10"/>
      <point x="62" y="1.33333"/>
      <point x="62" y="28" type="curve" smooth="yes"/>
      <point x="62" y="51.3333"/>
      <point x="75.6667" y="63"/>
      <point x="103" y="63" type="curve" smooth="yes"/>
      <point x="481" y="63" type="line" smooth="yes"/>
      <point x="510.333" y="63"/>
      <point x="525" y="50.3333"/>
      <point x="525" y="25" type="curve" smooth="yes"/>
      <point x="525" y="3.66667"/>
      <point x="506.333" y="-10"/>
      <point x="481" y="-10" type="curve" smooth="yes"/>
    </contour>
    <contour>
      <point x="257" y="255" type="line"/>
      <point x="103" y="255" type="line" smooth="yes"/>
      <point x="76.3333" y="255"/>
      <point x="62" y="271.667"/>
      <point x="62" y="293" type="curve" smooth="yes"/>
      <point x="62" y="316.333"/>
      <point x="75.6667" y="328"/>
      <point x="103" y="328" type="curve" smooth="yes"/>
      <point x="257" y="328" type="line"/>
      <point x="257" y="440" type="line" smooth="yes"/>
      <point x="257" y="468.667"/>
      <point x="269" y="483"/>
      <point x="293" y="483" type="curve" smooth="yes"/>
      <point x="317" y="483"/>
      <point x="329" y="468.667"/>
      <point x="329" y="440" type="curve" smooth="yes"/>
      <point x="329" y="328" type="line"/>
      <point x="481" y="328" type="line" smooth="yes"/>
      <point x="539.379" y="328"/>
      <point x="537.601" y="255"/>
      <point x="481" y="255" type="curve" smooth="yes"/>
      <point x="329" y="255" type="line"/>
      <point x="329" y="143" type="line" smooth="yes"/>
      <point x="329" y="115"/>
      <point x="317" y="101"/>
      <point x="293" y="101" type="curve" smooth="yes"/>
      <point x="269" y="101"/>
      <point x="257" y="115"/>
      <point x="257" y="143" type="curve" smooth="yes"/>
    </contour>
  </outline>
</glyph>
<glyph name="twosuperior" format="1">
  <advance width="355"/>
  <unicode hex="00B2"/>
  <outline>
    <contour>
      <point x="268" y="446" type="curve" smooth="yes"/>
      <point x="50" y="446" type="line"/>
      <point x="50" y="483" type="line" smooth="yes"/>
      <point x="50" y="615.722"/>
      <point x="242" y="636.778"/>
      <point x="242" y="682" type="curve" smooth="yes"/>
      <point x="242" y="715.333"/>
      <point x="232.667" y="719"/>
      <point x="170" y="719" type="curve" smooth="yes"/>
      <point x="144" y="719" type="line" smooth="yes"/>
      <point x="106.667" y="719"/>
      <point x="119.167" y="692.167"/>
      <point x="106.5" y="679.5" type="curve" smooth="yes"/>
      <point x="89.0833" y="662.083"/>
      <point x="50" y="670.667"/>
      <point x="50" y="703" type="curve" smooth="yes"/>
      <point x="50" y="749.667"/>
      <point x="93.3333" y="782"/>
      <point x="140" y="782" type="curve" smooth="yes"/>
      <point x="170" y="782" type="line" smooth="yes"/>
      <point x="258" y="782"/>
      <point x="305" y="764.667"/>
      <point x="305" y="682" type="curve"/>
      <point x="305" y="681.333"/>
      <point x="305" y="680.667"/>
      <point x="305" y="680" type="curve"/>
      <point x="305" y="645.333"/>
      <point x="277.333" y="614"/>
      <point x="222" y="586" type="curve" smooth="yes"/>
      <point x="162.667" y="557.333"/>
      <point x="128.667" y="531.667"/>
      <point x="120" y="509" type="curve"/>
      <point x="268" y="509" type="line"/>
      <point x="314.007" y="505.461"/>
      <point x="315.311" y="446"/>
    </contour>
  </outline>
</glyph>
<glyph name="threesuperior" format="1">
  <advance width="325"/>
  <unicode hex="00B3"/>
  <outline>
    <contour>
      <point x="168" y="719" type="curve"/>
      <point x="152" y="719"/>
      <point x="139.333" y="718"/>
      <point x="130" y="716" type="curve" smooth="yes"/>
      <point x="112.667" y="712"/>
      <point x="103.667" y="707"/>
      <point x="103" y="701" type="curve"/>
      <point x="103" y="663.706"/>
      <point x="37" y="664.373"/>
      <point x="37" y="703" type="curve" smooth="yes"/>
      <point x="37" y="741.667"/>
      <point x="85" y="782"/>
      <point x="149" y="782" type="curve" smooth="yes"/>
      <point x="200.333" y="782"/>
      <point x="234.667" y="774.667"/>
      <point x="252" y="760" type="curve" smooth="yes"/>
      <point x="270.667" y="744"/>
      <point x="280" y="718.667"/>
      <point x="280" y="684" type="curve" smooth="yes"/>
      <point x="280" y="657.333"/>
      <point x="264.333" y="635.333"/>
      <point x="233" y="618" type="curve"/>
      <point x="264.333" y="596"/>
      <point x="280" y="570"/>
      <point x="280" y="540" type="curve" smooth="yes"/>
      <point x="280" y="497.333"/>
      <point x="266" y="470.667"/>
      <point x="238" y="460" type="curve"/>
      <point x="169.5" y="423.167"/>
      <point x="26" y="459.833"/>
      <point x="37" y="525" type="curve"/>
      <point x="37" y="550.569"/>
      <point x="73.0025" y="565.998"/>
      <point x="92" y="547" type="curve" smooth="yes"/>
      <point x="98.6667" y="540.333"/>
      <point x="102.333" y="533"/>
      <point x="103" y="525" type="curve"/>
      <point x="108.333" y="514.333"/>
      <point x="127" y="509"/>
      <point x="159" y="509" type="curve" smooth="yes"/>
      <point x="164.333" y="509"/>
      <point x="169" y="509"/>
      <point x="173" y="509" type="curve" smooth="yes"/>
      <point x="181" y="509"/>
      <point x="187.333" y="509.333"/>
      <point x="192" y="510" type="curve" smooth="yes"/>
      <point x="209.333" y="512.667"/>
      <point x="218" y="523"/>
      <point x="218" y="541" type="curve" smooth="yes"/>
      <point x="218" y="562.333"/>
      <point x="173" y="586"/>
      <point x="145" y="586" type="curve" smooth="yes"/>
      <point x="104.072" y="586"/>
      <point x="100.744" y="624.126"/>
      <point x="117.5" y="640" type="curve" smooth="yes"/>
      <point x="130.167" y="652"/>
      <point x="157.333" y="645.333"/>
      <point x="192" y="660" type="curve"/>
      <point x="241.75" y="687.917"/>
      <point x="213.5" y="727.083"/>
    </contour>
  </outline>
</glyph>
<glyph name="acute" format="1">
  <advance width="212"/>
  <unicode hex="00B4"/>
  <outline>
    <contour>
      <point x="87" y="514" type="line"/>
      <point x="43.8784" y="465.805"/>
      <point x="1.25832" y="519.807"/>
      <point x="30" y="559" type="curve"/>
      <point x="126" y="674" type="line"/>
      <point x="170.875" y="724.154"/>
      <point x="214.346" y="663.196"/>
      <point x="183" y="629" type="curve"/>
    </contour>
  </outline>
</glyph>
<glyph name="uni00B5" format="1">
  <advance width="594"/>
  <unicode hex="00B5"/>
  <outline>
    <contour>
      <point x="449" y="438" type="line" smooth="yes"/>
      <point x="449" y="468"/>
      <point x="461" y="483"/>
      <point x="485" y="483" type="curve" smooth="yes"/>
      <point x="509" y="483"/>
      <point x="521" y="468"/>
      <point x="521" y="438" type="curve" smooth="yes"/>
      <point x="521" y="24" type="line" smooth="yes"/>
      <point x="521" y="-6.66667"/>
      <point x="509" y="-22"/>
      <point x="485" y="-22" type="curve" smooth="yes"/>
      <point x="461" y="-22"/>
      <point x="449" y="-6.66667"/>
      <point x="449" y="24" type="curve" smooth="yes"/>
      <point x="449" y="35" type="line"/>
      <point x="409" y="1.66667"/>
      <point x="358.667" y="-15"/>
      <point x="298" y="-15" type="curve" smooth="yes"/>
      <point x="237.333" y="-15"/>
      <point x="187" y="1.66667"/>
      <point x="147" y="35" type="curve"/>
      <point x="147" y="-159" type="line" smooth="yes"/>
      <point x="147" y="-189.667"/>
      <point x="134.333" y="-205"/>
      <point x="109" y="-205" type="curve" smooth="yes"/>
      <point x="86.3333" y="-205"/>
      <point x="75" y="-189.667"/>
      <point x="75" y="-159" type="curve" smooth="yes"/>
      <point x="75" y="438" type="line" smooth="yes"/>
      <point x="75" y="468"/>
      <point x="87" y="483"/>
      <point x="111" y="483" type="curve" smooth="yes"/>
      <point x="135" y="483"/>
      <point x="147" y="468"/>
      <point x="147" y="438" type="curve" smooth="yes"/>
      <point x="147" y="228" type="line" smooth="yes"/>
      <point x="147" y="117.333"/>
      <point x="199.333" y="57"/>
      <point x="298" y="57" type="curve" smooth="yes"/>
      <point x="396.667" y="57"/>
      <point x="449" y="117.333"/>
      <point x="449" y="228" type="curve" smooth="yes"/>
    </contour>
  </outline>
</glyph>
<glyph name="paragraph" format="1">
  <advance width="506"/>
  <unicode hex="00B6"/>
  <outline>
    <contour>
      <point x="345" y="579" type="line"/>
      <point x="314" y="579" type="line"/>
      <point x="314" y="20" type="line" smooth="yes"/>
      <point x="314" y="-10.6667"/>
      <point x="297.667" y="-22"/>
      <point x="279" y="-22" type="curve" smooth="yes"/>
      <point x="254.333" y="-22"/>
      <point x="242" y="-8"/>
      <point x="242" y="20" type="curve" smooth="yes"/>
      <point x="242" y="322" type="line"/>
      <point x="215" y="322" type="line" smooth="yes"/>
      <point x="103" y="322"/>
      <point x="35" y="378.333"/>
      <point x="35" y="493" type="curve" smooth="yes"/>
      <point x="35" y="607.667"/>
      <point x="111.667" y="651"/>
      <point x="257" y="651" type="curve" smooth="yes"/>
      <point x="417" y="651" type="line"/>
      <point x="417" y="20" type="line" smooth="yes"/>
      <point x="417" y="-10.6667"/>
      <point x="400.667" y="-22"/>
      <point x="382" y="-22" type="curve" smooth="yes"/>
      <point x="357.333" y="-22"/>
      <point x="345" y="-8"/>
      <point x="345" y="20" type="curve" smooth="yes"/>
    </contour>
  </outline>
</glyph>
<glyph name="periodcentered" format="1">
  <advance width="252"/>
  <unicode hex="00B7"/>
  <outline>
    <contour>
      <point x="187" y="387" type="curve" smooth="yes"/>
      <point x="187" y="320.647"/>
      <point x="65" y="320.647"/>
      <point x="65" y="387" type="curve" smooth="yes"/>
      <point x="65" y="453.353"/>
      <point x="187" y="453.353"/>
    </contour>
  </outline>
</glyph>
<glyph name="cedilla" format="1">
  <advance width="242"/>
  <unicode hex="00B8"/>
  <outline>
    <contour>
      <point x="153" y="5" type="line"/>
      <point x="153.667" y="-9"/>
      <point x="165.333" y="-22.6667"/>
      <point x="188" y="-36" type="curve" smooth="yes"/>
      <point x="204" y="-46.6667"/>
      <point x="222" y="-69.6667"/>
      <point x="222" y="-99" type="curve" smooth="yes"/>
      <point x="222" y="-156.333"/>
      <point x="172" y="-190"/>
      <point x="116" y="-190" type="curve" smooth="yes"/>
      <point x="19.4861" y="-190"/>
      <point x="21.7674" y="-120.579"/>
      <point x="35" y="-109" type="curve"/>
      <point x="44.5556" y="-82.4118"/>
      <point x="130.111" y="-139.745"/>
      <point x="137" y="-121" type="curve"/>
      <point x="141.667" y="-120.333"/>
      <point x="144.667" y="-118"/>
      <point x="146" y="-114" type="curve" smooth="yes"/>
      <point x="148.667" y="-108.667"/>
      <point x="150" y="-103.333"/>
      <point x="150" y="-98" type="curve" smooth="yes"/>
      <point x="150" y="-93.6667"/>
      <point x="81" y="-58.5833"/>
      <point x="81" y="5" type="curve" smooth="yes"/>
      <point x="81" y="10" type="line"/>
      <point x="153" y="10" type="line"/>
    </contour>
  </outline>
</glyph>
<glyph name="onesuperior" format="1">
  <advance width="182"/>
  <unicode hex="00B9"/>
  <outline>
    <contour>
      <point x="59" y="679" type="line"/>
      <point x="37.6667" y="657.667"/>
      <point x="15.6667" y="660"/>
      <point x="5" y="672" type="curve" smooth="yes"/>
      <point x="-5.66667" y="685.333"/>
      <point x="-8" y="701"/>
      <point x="12" y="721" type="curve" smooth="yes"/>
      <point x="61" y="772" type="line"/>
      <point x="85.9223" y="793.599"/>
      <point x="123" y="786.421"/>
      <point x="123" y="751" type="curve" smooth="yes"/>
      <point x="123" y="480" type="line" smooth="yes"/>
      <point x="123" y="455.333"/>
      <point x="112.333" y="443"/>
      <point x="91" y="443" type="curve" smooth="yes"/>
      <point x="69.6667" y="443"/>
      <point x="59" y="455.333"/>
      <point x="59" y="480" type="curve" smooth="yes"/>
    </contour>
  </outline>
</glyph>
<glyph name="ordmasculine" format="1">
  <advance width="392"/>
  <unicode hex="00BA"/>
  <outline>
    <contour>
      <point x="191" y="295" type="curve" smooth="yes"/>
      <point x="200" y="295" type="line" smooth="yes"/>
      <point x="241.333" y="295"/>
      <point x="245" y="297"/>
      <point x="245" y="333" type="curve" smooth="yes"/>
      <point x="245" y="377" type="line" smooth="yes"/>
      <point x="245" y="413"/>
      <point x="241.333" y="415"/>
      <point x="200" y="415" type="curve" smooth="yes"/>
      <point x="191" y="415" type="line" smooth="yes"/>
      <point x="151" y="415"/>
      <point x="147" y="413"/>
      <point x="147" y="377" type="curve" smooth="yes"/>
      <point x="147" y="333" type="line" smooth="yes"/>
      <point x="147" y="297"/>
      <point x="151" y="295"/>
    </contour>
    <contour>
      <point x="86" y="377" type="line" smooth="yes"/>
      <point x="86" y="453"/>
      <point x="116.333" y="476"/>
      <point x="191" y="476" type="curve" smooth="yes"/>
      <point x="200" y="476" type="line" smooth="yes"/>
      <point x="276" y="476"/>
      <point x="306" y="453"/>
      <point x="306" y="377" type="curve" smooth="yes"/>
      <point x="306" y="333" type="line" smooth="yes"/>
      <point x="306" y="257"/>
      <point x="276" y="234"/>
      <point x="200" y="234" type="curve" smooth="yes"/>
      <point x="191" y="234" type="line" smooth="yes"/>
      <point x="116.333" y="234"/>
      <point x="86" y="257"/>
      <point x="86" y="333" type="curve" smooth="yes"/>
    </contour>
    <contour>
      <point x="293" y="214" type="line" smooth="yes"/>
      <point x="341.288" y="214"/>
      <point x="343.065" y="149"/>
      <point x="293" y="149" type="curve" smooth="yes"/>
      <point x="97" y="149" type="line" smooth="yes"/>
      <point x="46.5686" y="149"/>
      <point x="51.902" y="214"/>
      <point x="97" y="214" type="curve" smooth="yes"/>
    </contour>
  </outline>
</glyph>
<glyph name="questiondown" format="1">
  <advance width="545"/>
  <unicode hex="00BF"/>
  <outline>
    <contour>
      <point x="228" y="449.5" type="curve"/>
      <point x="228" y="516.856"/>
      <point x="351" y="516.134"/>
      <point x="351" y="450" type="curve"/>
      <point x="346.105" y="384.082"/>
      <point x="233.993" y="383.026"/>
    </contour>
    <contour>
      <point x="325" y="285" type="curve" smooth="yes"/>
      <point x="325" y="133" type="line"/>
      <point x="160" y="88" type="line" smooth="yes"/>
      <point x="130.667" y="80"/>
      <point x="108" y="42.1667"/>
      <point x="108" y="-6.5" type="curve" smooth="yes"/>
      <point x="108" y="-55.1667"/>
      <point x="135" y="-108"/>
      <point x="195" y="-108" type="curve" smooth="yes"/>
      <point x="289" y="-108" type="line" smooth="yes"/>
      <point x="409" y="-108"/>
      <point x="439" y="-93.3333"/>
      <point x="439" y="8" type="curve" smooth="yes"/>
      <point x="439" y="61.5425"/>
      <point x="512" y="68.6536"/>
      <point x="512" y="8" type="curve" smooth="yes"/>
      <point x="512" y="-69.3333"/>
      <point x="491.333" y="-120.667"/>
      <point x="450" y="-146" type="curve" smooth="yes"/>
      <point x="407.333" y="-172.667"/>
      <point x="362.333" y="-180"/>
      <point x="289" y="-180" type="curve" smooth="yes"/>
      <point x="213" y="-180" type="line" smooth="yes"/>
      <point x="89" y="-180"/>
      <point x="36" y="-100.667"/>
      <point x="36" y="-6" type="curve" smooth="yes"/>
      <point x="36" y="88.6667"/>
      <point x="73.3333" y="137"/>
      <point x="172" y="165" type="curve" smooth="yes"/>
      <point x="253" y="188" type="line"/>
      <point x="253" y="285" type="line" smooth="yes"/>
      <point x="253" y="313.667"/>
      <point x="265" y="328"/>
      <point x="289" y="328" type="curve" smooth="yes"/>
      <point x="313" y="328"/>
      <point x="325" y="313.667"/>
    </contour>
  </outline>
</glyph>
<glyph name="AE" format="1">
  <advance width="904"/>
  <unicode hex="00C6"/>
  <outline>
    <contour>
      <point x="482" y="317" type="line"/>
      <point x="482" y="72" type="line"/>
      <point x="813" y="72" type="line" smooth="yes"/>
      <point x="842.333" y="72"/>
      <point x="857" y="59.3333"/>
      <point x="857" y="34" type="curve" smooth="yes"/>
      <point x="857" y="11.3333"/>
      <point x="842.333" y="0"/>
      <point x="813" y="0" type="curve" smooth="yes"/>
      <point x="442" y="0" type="line" smooth="yes"/>
      <point x="419.333" y="0"/>
      <point x="408" y="14.6667"/>
      <point x="408" y="44" type="curve" smooth="yes"/>
      <point x="408" y="184" type="line"/>
      <point x="201" y="184" type="line"/>
      <point x="81" y="11" type="line" smooth="yes"/>
      <point x="69" y="-7"/>
      <point x="55.3333" y="-16"/>
      <point x="40" y="-16" type="curve" smooth="yes"/>
      <point x="18.899" y="-16"/>
      <point x="-2.91545" y="9.20992"/>
      <point x="20" y="39" type="curve"/>
      <point x="414" y="627" type="line" smooth="yes"/>
      <point x="420.667" y="636.333"/>
      <point x="430" y="641"/>
      <point x="442" y="641" type="curve" smooth="yes"/>
      <point x="813" y="641" type="line" smooth="yes"/>
      <point x="842.333" y="641"/>
      <point x="857" y="628.333"/>
      <point x="857" y="603" type="curve" smooth="yes"/>
      <point x="857" y="580.333"/>
      <point x="842.333" y="569"/>
      <point x="813" y="569" type="curve" smooth="yes"/>
      <point x="482" y="569" type="line"/>
      <point x="482" y="389" type="line"/>
      <point x="692" y="389" type="line" smooth="yes"/>
      <point x="724" y="389"/>
      <point x="740" y="376.333"/>
      <point x="740" y="351" type="curve" smooth="yes"/>
      <point x="740" y="328.333"/>
      <point x="724" y="317"/>
      <point x="692" y="317" type="curve" smooth="yes"/>
    </contour>
    <contour>
      <point x="408" y="494" type="line"/>
      <point x="249" y="256" type="line"/>
      <point x="408" y="256" type="line"/>
    </contour>
  </outline>
</glyph>
<glyph name="Ccedilla" format="1">
  <advance width="631"/>
  <unicode hex="00C7"/>
  <outline>
    <contour>
      <point x="297" y="0" type="curve"/>
      <point x="138.333" y="2.66667"/>
      <point x="71" y="45.3333"/>
      <point x="71" y="184" type="curve" smooth="yes"/>
      <point x="71" y="452" type="line" smooth="yes"/>
      <point x="71" y="597.333"/>
      <point x="144.667" y="636"/>
      <point x="306" y="636" type="curve" smooth="yes"/>
      <point x="465" y="636" type="line" smooth="yes"/>
      <point x="508.333" y="636"/>
      <point x="537.5" y="624.833"/>
      <point x="552.5" y="602.5" type="curve" smooth="yes"/>
      <point x="567.5" y="580.167"/>
      <point x="575" y="552.333"/>
      <point x="575" y="519" type="curve" smooth="yes"/>
      <point x="575" y="485.667"/>
      <point x="563" y="469"/>
      <point x="539" y="469" type="curve" smooth="yes"/>
      <point x="520.333" y="469"/>
      <point x="503" y="480.167"/>
      <point x="503" y="515.5" type="curve" smooth="yes"/>
      <point x="503" y="550.833"/>
      <point x="494" y="564"/>
      <point x="458" y="564" type="curve" smooth="yes"/>
      <point x="306" y="564" type="line" smooth="yes"/>
      <point x="176.667" y="564"/>
      <point x="143" y="548.667"/>
      <point x="143" y="450" type="curve" smooth="yes"/>
      <point x="143" y="186" type="line" smooth="yes"/>
      <point x="143" y="86"/>
      <point x="176" y="72"/>
      <point x="324" y="72" type="curve" smooth="yes"/>
      <point x="458" y="72" type="line" smooth="yes"/>
      <point x="494" y="72"/>
      <point x="503" y="85.1667"/>
      <point x="503" y="120.5" type="curve" smooth="yes"/>
      <point x="503" y="155.833"/>
      <point x="520.333" y="167"/>
      <point x="539" y="167" type="curve" smooth="yes"/>
      <point x="563" y="167"/>
      <point x="575" y="150.167"/>
      <point x="575" y="116.5" type="curve" smooth="yes"/>
      <point x="575" y="49.1667"/>
      <point x="551.667" y="0"/>
      <point x="465" y="0" type="curve" smooth="yes"/>
      <point x="369" y="0" type="line"/>
      <point x="373.073" y="-26.4752"/>
      <point x="438" y="-43.3199"/>
      <point x="438" y="-99" type="curve" smooth="yes"/>
      <point x="438" y="-156.333"/>
      <point x="388" y="-190"/>
      <point x="332" y="-190" type="curve" smooth="yes"/>
      <point x="235.486" y="-190"/>
      <point x="237.767" y="-120.579"/>
      <point x="251" y="-109" type="curve"/>
      <point x="260.556" y="-82.4118"/>
      <point x="346.111" y="-139.745"/>
      <point x="353" y="-121" type="curve"/>
      <point x="357.667" y="-120.333"/>
      <point x="360.667" y="-118"/>
      <point x="362" y="-114" type="curve" smooth="yes"/>
      <point x="364.667" y="-108.667"/>
      <point x="366" y="-103.333"/>
      <point x="366" y="-98" type="curve" smooth="yes"/>
      <point x="366" y="-92.313"/>
      <point x="299.084" y="-60.4421"/>
    </contour>
  </outline>
</glyph>
<glyph name="Eth" format="1">
  <advance width="659"/>
  <unicode hex="00D0"/>
  <outline>
    <contour>
      <point x="516" y="186" type="curve" smooth="yes"/>
      <point x="516" y="450" type="line" smooth="yes"/>
      <point x="516" y="548.667"/>
      <point x="483.333" y="564"/>
      <point x="354" y="564" type="curve" smooth="yes"/>
      <point x="156" y="564" type="line"/>
      <point x="156" y="361" type="line"/>
      <point x="240" y="361" type="line" smooth="yes"/>
      <point x="269.333" y="361"/>
      <point x="284" y="348.667"/>
      <point x="284" y="324" type="curve" smooth="yes"/>
      <point x="284" y="302.667"/>
      <point x="266.667" y="288"/>
      <point x="240" y="288" type="curve" smooth="yes"/>
      <point x="156" y="288" type="line"/>
      <point x="156" y="72" type="line"/>
      <point x="336" y="72" type="line" smooth="yes"/>
      <point x="484" y="72"/>
      <point x="516" y="86"/>
    </contour>
    <contour>
      <point x="588" y="452" type="curve" smooth="yes"/>
      <point x="588" y="184" type="line" smooth="yes"/>
      <point x="588" y="38.6667"/>
      <point x="514.667" y="0"/>
      <point x="336" y="0" type="curve" smooth="yes"/>
      <point x="118" y="0" type="line" smooth="yes"/>
      <point x="95.3333" y="0"/>
      <point x="84" y="14.6667"/>
      <point x="84" y="44" type="curve" smooth="yes"/>
      <point x="84" y="288" type="line"/>
      <point x="56" y="288"/>
      <point x="42" y="300.667"/>
      <point x="42" y="326" type="curve" smooth="yes"/>
      <point x="42" y="344.667"/>
      <point x="53.3333" y="361"/>
      <point x="84" y="361" type="curve"/>
      <point x="84" y="592" type="line" smooth="yes"/>
      <point x="84" y="621.333"/>
      <point x="95.3333" y="636"/>
      <point x="118" y="636" type="curve" smooth="yes"/>
      <point x="354" y="636" type="line" smooth="yes"/>
      <point x="515.333" y="636"/>
      <point x="588" y="596"/>
    </contour>
  </outline>
</glyph>
<glyph name="multiply" format="1">
  <advance width="510"/>
  <unicode hex="00D7"/>
  <outline>
    <contour>
      <point x="84" y="351" type="line"/>
      <point x="42.5602" y="386.915"/>
      <point x="94.7829" y="442.217"/>
      <point x="135" y="402" type="curve" smooth="yes"/>
      <point x="255" y="282" type="line"/>
      <point x="376" y="403" type="line"/>
      <point x="417.497" y="441.73"/>
      <point x="463.974" y="387.974"/>
      <point x="427" y="351" type="curve" smooth="yes"/>
      <point x="306" y="230" type="line"/>
      <point x="427" y="109" type="line"/>
      <point x="465.163" y="77.9085"/>
      <point x="414.386" y="11.1307"/>
      <point x="376" y="58" type="curve"/>
      <point x="255" y="179" type="line"/>
      <point x="134" y="58" type="line" smooth="yes"/>
      <point x="96.9332" y="20.9332"/>
      <point x="43.5952" y="72.4098"/>
      <point x="83" y="109" type="curve"/>
      <point x="204" y="230" type="line"/>
    </contour>
  </outline>
</glyph>
<glyph name="Oslash" format="1">
  <advance width="632"/>
  <unicode hex="00D8"/>
  <outline>
    <contour>
      <point x="438" y="539" type="line"/>
      <point x="408" y="561.667"/>
      <point x="365.333" y="573"/>
      <point x="310" y="573" type="curve" smooth="yes"/>
      <point x="199.333" y="573"/>
      <point x="136" y="511"/>
      <point x="136" y="403" type="curve" smooth="yes"/>
      <point x="136" y="233" type="line" smooth="yes"/>
      <point x="136" y="203"/>
      <point x="140.333" y="177.333"/>
      <point x="149" y="156" type="curve"/>
    </contour>
    <contour>
      <point x="505" y="627" type="line" smooth="yes"/>
      <point x="542.85" y="676.484"/>
      <point x="597.405" y="615.928"/>
      <point x="562" y="584" type="curve"/>
      <point x="531" y="543" type="line"/>
      <point x="555.667" y="505"/>
      <point x="568" y="459.333"/>
      <point x="568" y="406" type="curve" smooth="yes"/>
      <point x="568" y="230" type="line" smooth="yes"/>
      <point x="568" y="156"/>
      <point x="544.833" y="97.6667"/>
      <point x="498.5" y="55" type="curve" smooth="yes"/>
      <point x="452.167" y="12.3333"/>
      <point x="394" y="-9"/>
      <point x="324" y="-9" type="curve" smooth="yes"/>
      <point x="254" y="-9"/>
      <point x="196.667" y="7"/>
      <point x="152" y="39" type="curve"/>
      <point x="127" y="6" type="line" smooth="yes"/>
      <point x="89.8335" y="-41.7855"/>
      <point x="39.5048" y="14.6058"/>
      <point x="69" y="50" type="curve"/>
      <point x="101" y="93" type="line"/>
      <point x="76.3333" y="131"/>
      <point x="64" y="176.667"/>
      <point x="64" y="230" type="curve" smooth="yes"/>
      <point x="64" y="406" type="line" smooth="yes"/>
      <point x="64" y="480.667"/>
      <point x="87" y="539.167"/>
      <point x="133" y="581.5" type="curve" smooth="yes"/>
      <point x="179" y="623.833"/>
      <point x="237.5" y="645"/>
      <point x="308.5" y="645" type="curve" smooth="yes"/>
      <point x="379.5" y="645"/>
      <point x="437" y="628.667"/>
      <point x="481" y="596" type="curve"/>
    </contour>
    <contour>
      <point x="483" y="479" type="curve"/>
      <point x="195" y="96" type="line"/>
      <point x="223.667" y="74"/>
      <point x="265.667" y="63"/>
      <point x="321" y="63" type="curve" smooth="yes"/>
      <point x="431.667" y="63"/>
      <point x="496" y="123.667"/>
      <point x="496" y="233" type="curve" smooth="yes"/>
      <point x="496" y="403" type="line" smooth="yes"/>
      <point x="496" y="432.333"/>
      <point x="491.667" y="457.667"/>
    </contour>
  </outline>
</glyph>
<glyph name="Thorn" format="1">
  <advance width="560"/>
  <unicode hex="00DE"/>
  <outline>
    <contour>
      <point x="156" y="476" type="line"/>
      <point x="335" y="476" type="line" smooth="yes"/>
      <point x="456.333" y="476"/>
      <point x="525" y="420"/>
      <point x="525" y="316" type="curve" smooth="yes"/>
      <point x="525" y="212"/>
      <point x="455.667" y="155"/>
      <point x="333" y="155" type="curve" smooth="yes"/>
      <point x="156" y="155" type="line"/>
      <point x="156" y="35" type="line" smooth="yes"/>
      <point x="156" y="7"/>
      <point x="144" y="-7"/>
      <point x="120" y="-7" type="curve" smooth="yes"/>
      <point x="96" y="-7"/>
      <point x="84" y="7"/>
      <point x="84" y="35" type="curve" smooth="yes"/>
      <point x="84" y="573" type="line" smooth="yes"/>
      <point x="84" y="631.039"/>
      <point x="156" y="631.039"/>
      <point x="156" y="573" type="curve" smooth="yes"/>
    </contour>
    <contour>
      <point x="284" y="404" type="curve" smooth="yes"/>
      <point x="156" y="404" type="line"/>
      <point x="156" y="218" type="line"/>
      <point x="283" y="218" type="line" smooth="yes"/>
      <point x="417.667" y="218"/>
      <point x="452" y="235"/>
      <point x="452" y="311" type="curve" smooth="yes"/>
      <point x="452" y="387"/>
      <point x="414.667" y="404"/>
    </contour>
  </outline>
</glyph>
